G04*
G04 #@! TF.GenerationSoftware,Altium Limited,Altium Designer,23.8.1 (32)*
G04*
G04 Layer_Color=255*
%FSLAX25Y25*%
%MOIN*%
G70*
G04*
G04 #@! TF.SameCoordinates,D6E9CDF8-AAC3-469D-917B-50C59DE8B454*
G04*
G04*
G04 #@! TF.FilePolarity,Positive*
G04*
G01*
G75*
%ADD20C,0.05900*%
%ADD27R,0.06260X0.06260*%
%ADD28C,0.06260*%
%ADD29C,0.07677*%
%ADD30C,0.04724*%
%ADD31C,0.05512*%
%ADD32R,0.05512X0.05512*%
%ADD33R,0.06260X0.06260*%
%ADD34R,0.05512X0.05512*%
%ADD35C,0.17717*%
D20*
X265000Y508500D02*
D03*
X274843D02*
D03*
X284686D02*
D03*
X213472D02*
D03*
X223315D02*
D03*
X233157D02*
D03*
X243000D02*
D03*
D27*
X250606Y442000D02*
D03*
X317394Y177500D02*
D03*
X304606Y442000D02*
D03*
X163894Y360000D02*
D03*
D28*
X291394Y442000D02*
D03*
X276606Y177500D02*
D03*
X345394Y442000D02*
D03*
X176500Y378213D02*
D03*
Y473894D02*
D03*
X123106Y360000D02*
D03*
D29*
X285000Y421921D02*
D03*
X255472D02*
D03*
X285000Y342000D02*
D03*
X255472D02*
D03*
X285000Y361843D02*
D03*
X255472D02*
D03*
X285000Y322157D02*
D03*
X255472D02*
D03*
X282472Y195579D02*
D03*
X312000D02*
D03*
X282472Y275500D02*
D03*
X312000D02*
D03*
X282472Y255657D02*
D03*
X312000D02*
D03*
X282472Y295343D02*
D03*
X312000D02*
D03*
X339000Y421921D02*
D03*
X309472D02*
D03*
X339000Y342000D02*
D03*
X309472D02*
D03*
X339000Y361843D02*
D03*
X309472D02*
D03*
X339000Y322157D02*
D03*
X309472D02*
D03*
X128000Y379421D02*
D03*
X157528D02*
D03*
X128000Y459343D02*
D03*
X157528D02*
D03*
X128000Y439500D02*
D03*
X157528D02*
D03*
X128000Y479185D02*
D03*
X157528D02*
D03*
D30*
X467500Y395154D02*
D03*
Y351846D02*
D03*
X370807Y172000D02*
D03*
X327500D02*
D03*
X370807Y159000D02*
D03*
X327500D02*
D03*
X250846Y489000D02*
D03*
X294154D02*
D03*
X250846Y476000D02*
D03*
X294154D02*
D03*
X370500Y395154D02*
D03*
Y351846D02*
D03*
X394750Y395154D02*
D03*
Y351846D02*
D03*
X419000Y395154D02*
D03*
Y351846D02*
D03*
X443250Y395154D02*
D03*
Y351846D02*
D03*
X331000Y474346D02*
D03*
Y517654D02*
D03*
X318000Y474346D02*
D03*
Y517654D02*
D03*
X235000Y386000D02*
D03*
Y429307D02*
D03*
Y334846D02*
D03*
Y378154D02*
D03*
X130500Y279846D02*
D03*
Y323154D02*
D03*
X144000D02*
D03*
Y279846D02*
D03*
X157000Y323154D02*
D03*
Y279846D02*
D03*
D31*
X308000Y159000D02*
D03*
X298157D02*
D03*
X262157Y462579D02*
D03*
X272000D02*
D03*
X314657D02*
D03*
X324500D02*
D03*
X126500Y336500D02*
D03*
X162343Y338421D02*
D03*
X152500D02*
D03*
X419250Y411500D02*
D03*
X443625D02*
D03*
X370500D02*
D03*
X394875D02*
D03*
X468000D02*
D03*
D32*
X288315Y159000D02*
D03*
X281843Y462579D02*
D03*
X334343D02*
D03*
X142657Y338421D02*
D03*
D33*
X176500Y419000D02*
D03*
Y433106D02*
D03*
D34*
X126500Y346500D02*
D03*
X419250Y421500D02*
D03*
X443625D02*
D03*
X370500D02*
D03*
X394875D02*
D03*
X468000D02*
D03*
D35*
X468122Y179500D02*
D03*
X444500D02*
D03*
Y223000D02*
D03*
X468122D02*
D03*
X147122Y179500D02*
D03*
X123500D02*
D03*
X147122Y223000D02*
D03*
X123500D02*
D03*
X458500Y254000D02*
D03*
X136000Y255500D02*
D03*
X460000Y515500D02*
D03*
X116000D02*
D03*
M02*
