G04*
G04 #@! TF.GenerationSoftware,Altium Limited,Altium Designer,23.8.1 (32)*
G04*
G04 Layer_Physical_Order=2*
G04 Layer_Color=16711680*
%FSLAX25Y25*%
%MOIN*%
G70*
G04*
G04 #@! TF.SameCoordinates,D6E9CDF8-AAC3-469D-917B-50C59DE8B454*
G04*
G04*
G04 #@! TF.FilePolarity,Positive*
G04*
G01*
G75*
%ADD20C,0.05900*%
%ADD25C,0.01968*%
%ADD27R,0.06260X0.06260*%
%ADD28C,0.06260*%
%ADD29C,0.07677*%
%ADD30C,0.04724*%
%ADD31C,0.05512*%
%ADD32R,0.05512X0.05512*%
%ADD33R,0.06260X0.06260*%
%ADD34R,0.05512X0.05512*%
%ADD35C,0.17717*%
%ADD36C,0.05000*%
G36*
X346372Y366600D02*
X345939D01*
X345049Y366361D01*
X344251Y365901D01*
X343599Y365249D01*
X343398Y364901D01*
X343121Y364855D01*
X342808Y364878D01*
X341971Y365714D01*
X340868Y366351D01*
X339637Y366681D01*
X339500D01*
Y361843D01*
Y357004D01*
X339637D01*
X340868Y357334D01*
X341971Y357971D01*
X342872Y358872D01*
X343509Y359975D01*
X343605Y360333D01*
X344088Y360462D01*
X344251Y360299D01*
X345049Y359839D01*
X345939Y359600D01*
X346372D01*
Y335628D01*
X300872D01*
Y368128D01*
X346372D01*
Y366600D01*
D02*
G37*
G36*
X245500Y331500D02*
X478500D01*
Y205500D01*
X387500D01*
Y303000D01*
X245000D01*
Y331347D01*
X245462Y331538D01*
X245500Y331500D01*
D02*
G37*
G36*
X297000Y335500D02*
X240500D01*
Y289500D01*
X210500D01*
Y204500D01*
X106000D01*
Y235000D01*
X177000D01*
Y373500D01*
X297000D01*
Y335500D01*
D02*
G37*
G36*
X380500Y196500D02*
X478500D01*
Y168000D01*
X380000D01*
Y180000D01*
X335500D01*
Y284000D01*
X268000D01*
Y301000D01*
X380500D01*
Y196500D01*
D02*
G37*
G36*
X320500Y282000D02*
X321500Y281000D01*
Y248000D01*
X260500D01*
Y163000D01*
X100500D01*
Y194500D01*
X218000D01*
Y282034D01*
X218354Y282387D01*
X320500Y282000D01*
D02*
G37*
%LPC*%
G36*
X310109Y366681D02*
X309972D01*
Y362343D01*
X314311D01*
Y362480D01*
X313981Y363710D01*
X313344Y364814D01*
X312443Y365714D01*
X311340Y366351D01*
X310109Y366681D01*
D02*
G37*
G36*
X338500D02*
X338363D01*
X337132Y366351D01*
X336029Y365714D01*
X335128Y364814D01*
X334491Y363710D01*
X334161Y362480D01*
Y362343D01*
X338500D01*
Y366681D01*
D02*
G37*
G36*
X308972D02*
X308835D01*
X307605Y366351D01*
X306501Y365714D01*
X305601Y364814D01*
X304964Y363710D01*
X304634Y362480D01*
Y362343D01*
X308972D01*
Y366681D01*
D02*
G37*
G36*
X338500Y361343D02*
X334161D01*
Y361206D01*
X334491Y359975D01*
X335128Y358872D01*
X336029Y357971D01*
X337132Y357334D01*
X338363Y357004D01*
X338500D01*
Y361343D01*
D02*
G37*
G36*
X314311D02*
X309972D01*
Y357004D01*
X310109D01*
X311340Y357334D01*
X312443Y357971D01*
X313344Y358872D01*
X313981Y359975D01*
X314311Y361206D01*
Y361343D01*
D02*
G37*
G36*
X308972D02*
X304634D01*
Y361206D01*
X304964Y359975D01*
X305601Y358872D01*
X306501Y357971D01*
X307605Y357334D01*
X308835Y357004D01*
X308972D01*
Y361343D01*
D02*
G37*
G36*
X310109Y346839D02*
X309972D01*
Y342500D01*
X314311D01*
Y342637D01*
X313981Y343868D01*
X313344Y344971D01*
X312443Y345872D01*
X311340Y346509D01*
X310109Y346839D01*
D02*
G37*
G36*
X339637D02*
X339500D01*
Y342500D01*
X343839D01*
Y342637D01*
X343509Y343868D01*
X342872Y344971D01*
X341971Y345872D01*
X340868Y346509D01*
X339637Y346839D01*
D02*
G37*
G36*
X308972D02*
X308835D01*
X307605Y346509D01*
X306501Y345872D01*
X305601Y344971D01*
X304964Y343868D01*
X304634Y342637D01*
Y342500D01*
X308972D01*
Y346839D01*
D02*
G37*
G36*
X338500D02*
X338363D01*
X337132Y346509D01*
X336029Y345872D01*
X335128Y344971D01*
X334491Y343868D01*
X334161Y342637D01*
Y342500D01*
X338500D01*
Y346839D01*
D02*
G37*
G36*
X343839Y341500D02*
X339500D01*
Y337161D01*
X339637D01*
X340868Y337491D01*
X341971Y338128D01*
X342872Y339029D01*
X343509Y340132D01*
X343839Y341363D01*
Y341500D01*
D02*
G37*
G36*
X338500D02*
X334161D01*
Y341363D01*
X334491Y340132D01*
X335128Y339029D01*
X336029Y338128D01*
X337132Y337491D01*
X338363Y337161D01*
X338500D01*
Y341500D01*
D02*
G37*
G36*
X314311D02*
X309972D01*
Y337161D01*
X310109D01*
X311340Y337491D01*
X312443Y338128D01*
X313344Y339029D01*
X313981Y340132D01*
X314311Y341363D01*
Y341500D01*
D02*
G37*
G36*
X308972D02*
X304634D01*
Y341363D01*
X304964Y340132D01*
X305601Y339029D01*
X306501Y338128D01*
X307605Y337491D01*
X308835Y337161D01*
X308972D01*
Y341500D01*
D02*
G37*
G36*
X459450Y263646D02*
X457550D01*
X455687Y263275D01*
X453931Y262548D01*
X452351Y261492D01*
X451008Y260149D01*
X449952Y258569D01*
X449225Y256814D01*
X448854Y254950D01*
Y253050D01*
X449225Y251186D01*
X449952Y249431D01*
X451008Y247851D01*
X452351Y246508D01*
X453931Y245452D01*
X455687Y244725D01*
X457550Y244354D01*
X459450D01*
X461313Y244725D01*
X463069Y245452D01*
X464649Y246508D01*
X465992Y247851D01*
X467048Y249431D01*
X467775Y251186D01*
X468146Y253050D01*
Y254950D01*
X467775Y256814D01*
X467048Y258569D01*
X465992Y260149D01*
X464649Y261492D01*
X463069Y262548D01*
X461313Y263275D01*
X459450Y263646D01*
D02*
G37*
%LPD*%
D20*
X265000Y508500D02*
D03*
X274843D02*
D03*
X284686D02*
D03*
X213472D02*
D03*
X223315D02*
D03*
X233157D02*
D03*
X243000D02*
D03*
D25*
X123500Y179500D02*
X147122D01*
X102500Y268654D02*
X157000Y323154D01*
X102500Y200500D02*
Y268654D01*
Y200500D02*
X123500Y179500D01*
X475341Y346160D02*
X480500Y341000D01*
X424687Y346160D02*
X475341D01*
X419000Y351846D02*
X424687Y346160D01*
X480500Y160153D02*
Y341000D01*
X479347Y159000D02*
X480500Y160153D01*
X370807Y159000D02*
X479347D01*
X467500Y351846D02*
X482347D01*
X483500Y156000D02*
Y350693D01*
X482347Y351846D02*
X483500Y350693D01*
X481972Y154472D02*
X483500Y156000D01*
X292843Y154472D02*
X481972D01*
X288315Y159000D02*
X292843Y154472D01*
X250606Y426787D02*
Y442000D01*
Y426787D02*
X255472Y421921D01*
X252752Y444146D02*
Y445748D01*
X248606Y444000D02*
X250606Y442000D01*
X253905Y446902D02*
X299705D01*
X250606Y442000D02*
X252752Y444146D01*
Y445748D02*
X253905Y446902D01*
X299705D02*
X304606Y442000D01*
X201500Y444000D02*
X248606D01*
X176500Y419000D02*
X201500Y444000D01*
X304606Y442000D02*
X332500D01*
X304606Y426787D02*
Y442000D01*
Y426787D02*
X309472Y421921D01*
X332500Y442000D02*
X359000Y468500D01*
X285000Y361843D02*
X301757Y378600D01*
X327600D01*
X370500Y421500D01*
X243715Y373600D02*
X255472Y361843D01*
X181113Y373600D02*
X243715D01*
X176500Y378213D02*
X181113Y373600D01*
X438625Y416500D02*
X443625Y421500D01*
X399875Y416500D02*
X438625D01*
X394875Y421500D02*
X399875Y416500D01*
X274786Y498600D02*
X284686Y508500D01*
X176943Y498600D02*
X274786D01*
X157528Y479185D02*
X176943Y498600D01*
X370500Y351846D02*
X375046Y347300D01*
X414454D01*
X419000Y351846D01*
X308000Y159000D02*
X312200Y163200D01*
X366607D01*
X370807Y159000D01*
X213472Y508500D02*
X222626Y517654D01*
X318000D01*
X172079Y473894D02*
X176500D01*
X157528Y459343D02*
X172079Y473894D01*
X413300Y421500D02*
X419250D01*
X406600Y428200D02*
X413300Y421500D01*
X390400Y428200D02*
X406600D01*
X386800Y424600D02*
X390400Y428200D01*
X386800Y403500D02*
Y424600D01*
X346400Y363100D02*
X386800Y403500D01*
X262157Y462579D02*
Y465600D01*
X260211Y467546D02*
X262157Y465600D01*
X259300Y467546D02*
X260211D01*
X250846Y476000D02*
X259300Y467546D01*
X150394Y346500D02*
X163894Y360000D01*
X126500Y346500D02*
X150394D01*
X294154Y489000D02*
Y508800D01*
X289654Y513300D02*
X294154Y508800D01*
X228115Y513300D02*
X289654D01*
X223315Y508500D02*
X228115Y513300D01*
X365307Y166500D02*
X370807Y172000D01*
X305657Y166500D02*
X365307D01*
X298157Y159000D02*
X305657Y166500D01*
X262157Y462579D02*
X268979Y469400D01*
X307836D01*
X314657Y462579D01*
X443625Y421500D02*
X468000D01*
X318000Y517654D02*
X331000D01*
X144000Y279846D02*
X157000D01*
D27*
X250606Y442000D02*
D03*
X317394Y177500D02*
D03*
X304606Y442000D02*
D03*
X163894Y360000D02*
D03*
D28*
X291394Y442000D02*
D03*
X276606Y177500D02*
D03*
X345394Y442000D02*
D03*
X176500Y378213D02*
D03*
Y473894D02*
D03*
X123106Y360000D02*
D03*
D29*
X285000Y421921D02*
D03*
X255472D02*
D03*
X285000Y342000D02*
D03*
X255472D02*
D03*
X285000Y361843D02*
D03*
X255472D02*
D03*
X285000Y322157D02*
D03*
X255472D02*
D03*
X282472Y195579D02*
D03*
X312000D02*
D03*
X282472Y275500D02*
D03*
X312000D02*
D03*
X282472Y255657D02*
D03*
X312000D02*
D03*
X282472Y295343D02*
D03*
X312000D02*
D03*
X339000Y421921D02*
D03*
X309472D02*
D03*
X339000Y342000D02*
D03*
X309472D02*
D03*
X339000Y361843D02*
D03*
X309472D02*
D03*
X339000Y322157D02*
D03*
X309472D02*
D03*
X128000Y379421D02*
D03*
X157528D02*
D03*
X128000Y459343D02*
D03*
X157528D02*
D03*
X128000Y439500D02*
D03*
X157528D02*
D03*
X128000Y479185D02*
D03*
X157528D02*
D03*
D30*
X467500Y395154D02*
D03*
Y351846D02*
D03*
X370807Y172000D02*
D03*
X327500D02*
D03*
X370807Y159000D02*
D03*
X327500D02*
D03*
X250846Y489000D02*
D03*
X294154D02*
D03*
X250846Y476000D02*
D03*
X294154D02*
D03*
X370500Y395154D02*
D03*
Y351846D02*
D03*
X394750Y395154D02*
D03*
Y351846D02*
D03*
X419000Y395154D02*
D03*
Y351846D02*
D03*
X443250Y395154D02*
D03*
Y351846D02*
D03*
X331000Y474346D02*
D03*
Y517654D02*
D03*
X318000Y474346D02*
D03*
Y517654D02*
D03*
X235000Y386000D02*
D03*
Y429307D02*
D03*
Y334846D02*
D03*
Y378154D02*
D03*
X130500Y279846D02*
D03*
Y323154D02*
D03*
X144000D02*
D03*
Y279846D02*
D03*
X157000Y323154D02*
D03*
Y279846D02*
D03*
D31*
X308000Y159000D02*
D03*
X298157D02*
D03*
X262157Y462579D02*
D03*
X272000D02*
D03*
X314657D02*
D03*
X324500D02*
D03*
X126500Y336500D02*
D03*
X162343Y338421D02*
D03*
X152500D02*
D03*
X419250Y411500D02*
D03*
X443625D02*
D03*
X370500D02*
D03*
X394875D02*
D03*
X468000D02*
D03*
D32*
X288315Y159000D02*
D03*
X281843Y462579D02*
D03*
X334343D02*
D03*
X142657Y338421D02*
D03*
D33*
X176500Y419000D02*
D03*
Y433106D02*
D03*
D34*
X126500Y346500D02*
D03*
X419250Y421500D02*
D03*
X443625D02*
D03*
X370500D02*
D03*
X394875D02*
D03*
X468000D02*
D03*
D35*
X468122Y179500D02*
D03*
X444500D02*
D03*
Y223000D02*
D03*
X468122D02*
D03*
X147122Y179500D02*
D03*
X123500D02*
D03*
X147122Y223000D02*
D03*
X123500D02*
D03*
X458500Y254000D02*
D03*
X136000Y255500D02*
D03*
X460000Y515500D02*
D03*
X116000D02*
D03*
D36*
X359000Y468500D02*
D03*
X346400Y363100D02*
D03*
M02*
