G04*
G04 #@! TF.GenerationSoftware,Altium Limited,Altium Designer,23.8.1 (32)*
G04*
G04 Layer_Color=2752767*
%FSLAX25Y25*%
%MOIN*%
G70*
G04*
G04 #@! TF.SameCoordinates,D6E9CDF8-AAC3-469D-917B-50C59DE8B454*
G04*
G04*
G04 #@! TF.FilePolarity,Positive*
G04*
G01*
G75*
%ADD11C,0.00500*%
%ADD40C,0.00667*%
D11*
X285000Y419921D02*
X286000Y420921D01*
X287000D01*
X286000Y421921D01*
X287000Y422921D01*
X286000D01*
X285000Y423921D01*
X284000Y422921D01*
X283000D01*
X284000Y421921D01*
X283000Y420921D01*
X284000D01*
X285000Y419921D01*
X255472D02*
X256472Y420921D01*
X257472D01*
X256472Y421921D01*
X257472Y422921D01*
X256472D01*
X255472Y423921D01*
X254472Y422921D01*
X253472D01*
X254472Y421921D01*
X253472Y420921D01*
X254472D01*
X255472Y419921D01*
X285000Y340000D02*
X286000Y341000D01*
X287000D01*
X286000Y342000D01*
X287000Y343000D01*
X286000D01*
X285000Y344000D01*
X284000Y343000D01*
X283000D01*
X284000Y342000D01*
X283000Y341000D01*
X284000D01*
X285000Y340000D01*
X255472D02*
X256472Y341000D01*
X257472D01*
X256472Y342000D01*
X257472Y343000D01*
X256472D01*
X255472Y344000D01*
X254472Y343000D01*
X253472D01*
X254472Y342000D01*
X253472Y341000D01*
X254472D01*
X255472Y340000D01*
X285000Y359843D02*
X286000Y360843D01*
X287000D01*
X286000Y361843D01*
X287000Y362843D01*
X286000D01*
X285000Y363843D01*
X284000Y362843D01*
X283000D01*
X284000Y361843D01*
X283000Y360843D01*
X284000D01*
X285000Y359843D01*
X255472D02*
X256472Y360843D01*
X257472D01*
X256472Y361843D01*
X257472Y362843D01*
X256472D01*
X255472Y363843D01*
X254472Y362843D01*
X253472D01*
X254472Y361843D01*
X253472Y360843D01*
X254472D01*
X255472Y359843D01*
X285000Y320157D02*
X286000Y321157D01*
X287000D01*
X286000Y322157D01*
X287000Y323157D01*
X286000D01*
X285000Y324157D01*
X284000Y323157D01*
X283000D01*
X284000Y322157D01*
X283000Y321157D01*
X284000D01*
X285000Y320157D01*
X255472D02*
X256472Y321157D01*
X257472D01*
X256472Y322157D01*
X257472Y323157D01*
X256472D01*
X255472Y324157D01*
X254472Y323157D01*
X253472D01*
X254472Y322157D01*
X253472Y321157D01*
X254472D01*
X255472Y320157D01*
X465500Y393154D02*
Y397154D01*
X469500D01*
Y393154D01*
X465500D01*
Y349846D02*
Y353846D01*
X469500D01*
Y349846D01*
X465500D01*
X368807Y170000D02*
Y174000D01*
X372807D01*
Y170000D01*
X368807D01*
X325500D02*
Y174000D01*
X329500D01*
Y170000D01*
X325500D01*
X368807Y157000D02*
Y161000D01*
X372807D01*
Y157000D01*
X368807D01*
X325500D02*
Y161000D01*
X329500D01*
Y157000D01*
X325500D01*
X306000D02*
X307000Y159000D01*
X306000Y161000D01*
X308000Y160000D01*
X310000Y161000D01*
X309000Y159000D01*
X310000Y157000D01*
X308000Y158000D01*
X306000Y157000D01*
X296157D02*
X297157Y159000D01*
X296157Y161000D01*
X298157Y160000D01*
X300157Y161000D01*
X299157Y159000D01*
X300157Y157000D01*
X298157Y158000D01*
X296157Y157000D01*
X286315D02*
X287315Y159000D01*
X286315Y161000D01*
X288315Y160000D01*
X290315Y161000D01*
X289315Y159000D01*
X290315Y157000D01*
X288315Y158000D01*
X286315Y157000D01*
X282472Y193579D02*
X283472Y194579D01*
X284472D01*
X283472Y195579D01*
X284472Y196579D01*
X283472D01*
X282472Y197579D01*
X281472Y196579D01*
X280472D01*
X281472Y195579D01*
X280472Y194579D01*
X281472D01*
X282472Y193579D01*
X312000D02*
X313000Y194579D01*
X314000D01*
X313000Y195579D01*
X314000Y196579D01*
X313000D01*
X312000Y197579D01*
X311000Y196579D01*
X310000D01*
X311000Y195579D01*
X310000Y194579D01*
X311000D01*
X312000Y193579D01*
X282472Y273500D02*
X283472Y274500D01*
X284472D01*
X283472Y275500D01*
X284472Y276500D01*
X283472D01*
X282472Y277500D01*
X281472Y276500D01*
X280472D01*
X281472Y275500D01*
X280472Y274500D01*
X281472D01*
X282472Y273500D01*
X312000D02*
X313000Y274500D01*
X314000D01*
X313000Y275500D01*
X314000Y276500D01*
X313000D01*
X312000Y277500D01*
X311000Y276500D01*
X310000D01*
X311000Y275500D01*
X310000Y274500D01*
X311000D01*
X312000Y273500D01*
X282472Y253657D02*
X283472Y254657D01*
X284472D01*
X283472Y255657D01*
X284472Y256657D01*
X283472D01*
X282472Y257657D01*
X281472Y256657D01*
X280472D01*
X281472Y255657D01*
X280472Y254657D01*
X281472D01*
X282472Y253657D01*
X312000D02*
X313000Y254657D01*
X314000D01*
X313000Y255657D01*
X314000Y256657D01*
X313000D01*
X312000Y257657D01*
X311000Y256657D01*
X310000D01*
X311000Y255657D01*
X310000Y254657D01*
X311000D01*
X312000Y253657D01*
X282472Y293343D02*
X283472Y294343D01*
X284472D01*
X283472Y295343D01*
X284472Y296343D01*
X283472D01*
X282472Y297343D01*
X281472Y296343D01*
X280472D01*
X281472Y295343D01*
X280472Y294343D01*
X281472D01*
X282472Y293343D01*
X312000D02*
X313000Y294343D01*
X314000D01*
X313000Y295343D01*
X314000Y296343D01*
X313000D01*
X312000Y297343D01*
X311000Y296343D01*
X310000D01*
X311000Y295343D01*
X310000Y294343D01*
X311000D01*
X312000Y293343D01*
X248846Y487000D02*
Y491000D01*
X252846D01*
Y487000D01*
X248846D01*
X292154D02*
Y491000D01*
X296154D01*
Y487000D01*
X292154D01*
X248846Y474000D02*
Y478000D01*
X252846D01*
Y474000D01*
X248846D01*
X292154D02*
Y478000D01*
X296154D01*
Y474000D01*
X292154D01*
X260157Y460579D02*
X261157Y462579D01*
X260157Y464579D01*
X262157Y463579D01*
X264157Y464579D01*
X263157Y462579D01*
X264157Y460579D01*
X262157Y461579D01*
X260157Y460579D01*
X270000D02*
X271000Y462579D01*
X270000Y464579D01*
X272000Y463579D01*
X274000Y464579D01*
X273000Y462579D01*
X274000Y460579D01*
X272000Y461579D01*
X270000Y460579D01*
X279843D02*
X280843Y462579D01*
X279843Y464579D01*
X281843Y463579D01*
X283843Y464579D01*
X282843Y462579D01*
X283843Y460579D01*
X281843Y461579D01*
X279843Y460579D01*
X368500Y393154D02*
Y397154D01*
X372500D01*
Y393154D01*
X368500D01*
Y349846D02*
Y353846D01*
X372500D01*
Y349846D01*
X368500D01*
X392750Y393154D02*
Y397154D01*
X396750D01*
Y393154D01*
X392750D01*
Y349846D02*
Y353846D01*
X396750D01*
Y349846D01*
X392750D01*
X264000Y507500D02*
Y506500D01*
X266000D01*
Y507500D01*
X267000D01*
Y509500D01*
X266000D01*
Y510500D01*
X264000D01*
Y509500D01*
X263000D01*
Y507500D01*
X264000D01*
X273843D02*
Y506500D01*
X275843D01*
Y507500D01*
X276843D01*
Y509500D01*
X275843D01*
Y510500D01*
X273843D01*
Y509500D01*
X272843D01*
Y507500D01*
X273843D01*
X283686D02*
Y506500D01*
X285686D01*
Y507500D01*
X286686D01*
Y509500D01*
X285686D01*
Y510500D01*
X283686D01*
Y509500D01*
X282686D01*
Y507500D01*
X283686D01*
X417000Y393154D02*
Y397154D01*
X421000D01*
Y393154D01*
X417000D01*
Y349846D02*
Y353846D01*
X421000D01*
Y349846D01*
X417000D01*
X441250Y393154D02*
Y397154D01*
X445250D01*
Y393154D01*
X441250D01*
Y349846D02*
Y353846D01*
X445250D01*
Y349846D01*
X441250D01*
X329000Y472346D02*
Y476346D01*
X333000D01*
Y472346D01*
X329000D01*
Y515654D02*
Y519654D01*
X333000D01*
Y515654D01*
X329000D01*
X316000Y472346D02*
Y476346D01*
X320000D01*
Y472346D01*
X316000D01*
Y515654D02*
Y519654D01*
X320000D01*
Y515654D01*
X316000D01*
X233000Y384000D02*
Y388000D01*
X237000D01*
Y384000D01*
X233000D01*
Y427307D02*
Y431307D01*
X237000D01*
Y427307D01*
X233000D01*
Y332846D02*
Y336846D01*
X237000D01*
Y332846D01*
X233000D01*
Y376154D02*
Y380154D01*
X237000D01*
Y376154D01*
X233000D01*
X312657Y460579D02*
X313657Y462579D01*
X312657Y464579D01*
X314657Y463579D01*
X316657Y464579D01*
X315657Y462579D01*
X316657Y460579D01*
X314657Y461579D01*
X312657Y460579D01*
X322500D02*
X323500Y462579D01*
X322500Y464579D01*
X324500Y463579D01*
X326500Y464579D01*
X325500Y462579D01*
X326500Y460579D01*
X324500Y461579D01*
X322500Y460579D01*
X332343D02*
X333343Y462579D01*
X332343Y464579D01*
X334343Y463579D01*
X336343Y464579D01*
X335343Y462579D01*
X336343Y460579D01*
X334343Y461579D01*
X332343Y460579D01*
X339000Y419921D02*
X340000Y420921D01*
X341000D01*
X340000Y421921D01*
X341000Y422921D01*
X340000D01*
X339000Y423921D01*
X338000Y422921D01*
X337000D01*
X338000Y421921D01*
X337000Y420921D01*
X338000D01*
X339000Y419921D01*
X309472D02*
X310472Y420921D01*
X311472D01*
X310472Y421921D01*
X311472Y422921D01*
X310472D01*
X309472Y423921D01*
X308472Y422921D01*
X307472D01*
X308472Y421921D01*
X307472Y420921D01*
X308472D01*
X309472Y419921D01*
X339000Y340000D02*
X340000Y341000D01*
X341000D01*
X340000Y342000D01*
X341000Y343000D01*
X340000D01*
X339000Y344000D01*
X338000Y343000D01*
X337000D01*
X338000Y342000D01*
X337000Y341000D01*
X338000D01*
X339000Y340000D01*
X309472D02*
X310472Y341000D01*
X311472D01*
X310472Y342000D01*
X311472Y343000D01*
X310472D01*
X309472Y344000D01*
X308472Y343000D01*
X307472D01*
X308472Y342000D01*
X307472Y341000D01*
X308472D01*
X309472Y340000D01*
X339000Y359843D02*
X340000Y360843D01*
X341000D01*
X340000Y361843D01*
X341000Y362843D01*
X340000D01*
X339000Y363843D01*
X338000Y362843D01*
X337000D01*
X338000Y361843D01*
X337000Y360843D01*
X338000D01*
X339000Y359843D01*
X309472D02*
X310472Y360843D01*
X311472D01*
X310472Y361843D01*
X311472Y362843D01*
X310472D01*
X309472Y363843D01*
X308472Y362843D01*
X307472D01*
X308472Y361843D01*
X307472Y360843D01*
X308472D01*
X309472Y359843D01*
X339000Y320157D02*
X340000Y321157D01*
X341000D01*
X340000Y322157D01*
X341000Y323157D01*
X340000D01*
X339000Y324157D01*
X338000Y323157D01*
X337000D01*
X338000Y322157D01*
X337000Y321157D01*
X338000D01*
X339000Y320157D01*
X309472D02*
X310472Y321157D01*
X311472D01*
X310472Y322157D01*
X311472Y323157D01*
X310472D01*
X309472Y324157D01*
X308472Y323157D01*
X307472D01*
X308472Y322157D01*
X307472Y321157D01*
X308472D01*
X309472Y320157D01*
X128500Y277846D02*
Y281846D01*
X132500D01*
Y277846D01*
X128500D01*
Y321154D02*
Y325154D01*
X132500D01*
Y321154D01*
X128500D01*
X126500Y344500D02*
X124500Y348500D01*
X128500D01*
X126500Y344500D01*
Y334500D02*
X124500Y338500D01*
X128500D01*
X126500Y334500D01*
X160343Y336421D02*
X161343Y338421D01*
X160343Y340421D01*
X162343Y339421D01*
X164343Y340421D01*
X163343Y338421D01*
X164343Y336421D01*
X162343Y337421D01*
X160343Y336421D01*
X150500D02*
X151500Y338421D01*
X150500Y340421D01*
X152500Y339421D01*
X154500Y340421D01*
X153500Y338421D01*
X154500Y336421D01*
X152500Y337421D01*
X150500Y336421D01*
X140657D02*
X141657Y338421D01*
X140657Y340421D01*
X142657Y339421D01*
X144657Y340421D01*
X143657Y338421D01*
X144657Y336421D01*
X142657Y337421D01*
X140657Y336421D01*
X142000Y321154D02*
Y325154D01*
X146000D01*
Y321154D01*
X142000D01*
Y277846D02*
Y281846D01*
X146000D01*
Y277846D01*
X142000D01*
X155000Y321154D02*
Y325154D01*
X159000D01*
Y321154D01*
X155000D01*
Y277846D02*
Y281846D01*
X159000D01*
Y277846D01*
X155000D01*
X212472Y507500D02*
Y506500D01*
X214472D01*
Y507500D01*
X215472D01*
Y509500D01*
X214472D01*
Y510500D01*
X212472D01*
Y509500D01*
X211472D01*
Y507500D01*
X212472D01*
X222315D02*
Y506500D01*
X224315D01*
Y507500D01*
X225315D01*
Y509500D01*
X224315D01*
Y510500D01*
X222315D01*
Y509500D01*
X221315D01*
Y507500D01*
X222315D01*
X232157D02*
Y506500D01*
X234157D01*
Y507500D01*
X235157D01*
Y509500D01*
X234157D01*
Y510500D01*
X232157D01*
Y509500D01*
X231157D01*
Y507500D01*
X232157D01*
X242000D02*
Y506500D01*
X244000D01*
Y507500D01*
X245000D01*
Y509500D01*
X244000D01*
Y510500D01*
X242000D01*
Y509500D01*
X241000D01*
Y507500D01*
X242000D01*
X128000Y377421D02*
X129000Y378421D01*
X130000D01*
X129000Y379421D01*
X130000Y380421D01*
X129000D01*
X128000Y381421D01*
X127000Y380421D01*
X126000D01*
X127000Y379421D01*
X126000Y378421D01*
X127000D01*
X128000Y377421D01*
X157528D02*
X158528Y378421D01*
X159528D01*
X158528Y379421D01*
X159528Y380421D01*
X158528D01*
X157528Y381421D01*
X156528Y380421D01*
X155528D01*
X156528Y379421D01*
X155528Y378421D01*
X156528D01*
X157528Y377421D01*
X128000Y457343D02*
X129000Y458343D01*
X130000D01*
X129000Y459343D01*
X130000Y460343D01*
X129000D01*
X128000Y461343D01*
X127000Y460343D01*
X126000D01*
X127000Y459343D01*
X126000Y458343D01*
X127000D01*
X128000Y457343D01*
X157528D02*
X158528Y458343D01*
X159528D01*
X158528Y459343D01*
X159528Y460343D01*
X158528D01*
X157528Y461343D01*
X156528Y460343D01*
X155528D01*
X156528Y459343D01*
X155528Y458343D01*
X156528D01*
X157528Y457343D01*
X128000Y437500D02*
X129000Y438500D01*
X130000D01*
X129000Y439500D01*
X130000Y440500D01*
X129000D01*
X128000Y441500D01*
X127000Y440500D01*
X126000D01*
X127000Y439500D01*
X126000Y438500D01*
X127000D01*
X128000Y437500D01*
X157528D02*
X158528Y438500D01*
X159528D01*
X158528Y439500D01*
X159528Y440500D01*
X158528D01*
X157528Y441500D01*
X156528Y440500D01*
X155528D01*
X156528Y439500D01*
X155528Y438500D01*
X156528D01*
X157528Y437500D01*
X128000Y477185D02*
X129000Y478185D01*
X130000D01*
X129000Y479185D01*
X130000Y480185D01*
X129000D01*
X128000Y481185D01*
X127000Y480185D01*
X126000D01*
X127000Y479185D01*
X126000Y478185D01*
X127000D01*
X128000Y477185D01*
X157528D02*
X158528Y478185D01*
X159528D01*
X158528Y479185D01*
X159528Y480185D01*
X158528D01*
X157528Y481185D01*
X156528Y480185D01*
X155528D01*
X156528Y479185D01*
X155528Y478185D01*
X156528D01*
X157528Y477185D01*
X466122Y177500D02*
X467122D01*
X468122Y178500D01*
X469122Y177500D01*
X470122D01*
Y178500D01*
X469122Y179500D01*
X470122Y180500D01*
Y181500D01*
X469122D01*
X468122Y180500D01*
X467122Y181500D01*
X466122D01*
Y180500D01*
X467122Y179500D01*
X466122Y178500D01*
Y177500D01*
X442500D02*
X443500D01*
X444500Y178500D01*
X445500Y177500D01*
X446500D01*
Y178500D01*
X445500Y179500D01*
X446500Y180500D01*
Y181500D01*
X445500D01*
X444500Y180500D01*
X443500Y181500D01*
X442500D01*
Y180500D01*
X443500Y179500D01*
X442500Y178500D01*
Y177500D01*
Y221000D02*
X443500D01*
X444500Y222000D01*
X445500Y221000D01*
X446500D01*
Y222000D01*
X445500Y223000D01*
X446500Y224000D01*
Y225000D01*
X445500D01*
X444500Y224000D01*
X443500Y225000D01*
X442500D01*
Y224000D01*
X443500Y223000D01*
X442500Y222000D01*
Y221000D01*
X466122D02*
X467122D01*
X468122Y222000D01*
X469122Y221000D01*
X470122D01*
Y222000D01*
X469122Y223000D01*
X470122Y224000D01*
Y225000D01*
X469122D01*
X468122Y224000D01*
X467122Y225000D01*
X466122D01*
Y224000D01*
X467122Y223000D01*
X466122Y222000D01*
Y221000D01*
X145122Y177500D02*
X146122D01*
X147122Y178500D01*
X148122Y177500D01*
X149122D01*
Y178500D01*
X148122Y179500D01*
X149122Y180500D01*
Y181500D01*
X148122D01*
X147122Y180500D01*
X146122Y181500D01*
X145122D01*
Y180500D01*
X146122Y179500D01*
X145122Y178500D01*
Y177500D01*
X121500D02*
X122500D01*
X123500Y178500D01*
X124500Y177500D01*
X125500D01*
Y178500D01*
X124500Y179500D01*
X125500Y180500D01*
Y181500D01*
X124500D01*
X123500Y180500D01*
X122500Y181500D01*
X121500D01*
Y180500D01*
X122500Y179500D01*
X121500Y178500D01*
Y177500D01*
X145122Y221000D02*
X146122D01*
X147122Y222000D01*
X148122Y221000D01*
X149122D01*
Y222000D01*
X148122Y223000D01*
X149122Y224000D01*
Y225000D01*
X148122D01*
X147122Y224000D01*
X146122Y225000D01*
X145122D01*
Y224000D01*
X146122Y223000D01*
X145122Y222000D01*
Y221000D01*
X121500D02*
X122500D01*
X123500Y222000D01*
X124500Y221000D01*
X125500D01*
Y222000D01*
X124500Y223000D01*
X125500Y224000D01*
Y225000D01*
X124500D01*
X123500Y224000D01*
X122500Y225000D01*
X121500D01*
Y224000D01*
X122500Y223000D01*
X121500Y222000D01*
Y221000D01*
X456500Y252000D02*
X457500D01*
X458500Y253000D01*
X459500Y252000D01*
X460500D01*
Y253000D01*
X459500Y254000D01*
X460500Y255000D01*
Y256000D01*
X459500D01*
X458500Y255000D01*
X457500Y256000D01*
X456500D01*
Y255000D01*
X457500Y254000D01*
X456500Y253000D01*
Y252000D01*
X134000Y253500D02*
X135000D01*
X136000Y254500D01*
X137000Y253500D01*
X138000D01*
Y254500D01*
X137000Y255500D01*
X138000Y256500D01*
Y257500D01*
X137000D01*
X136000Y256500D01*
X135000Y257500D01*
X134000D01*
Y256500D01*
X135000Y255500D01*
X134000Y254500D01*
Y253500D01*
X458000Y513500D02*
X459000D01*
X460000Y514500D01*
X461000Y513500D01*
X462000D01*
Y514500D01*
X461000Y515500D01*
X462000Y516500D01*
Y517500D01*
X461000D01*
X460000Y516500D01*
X459000Y517500D01*
X458000D01*
Y516500D01*
X459000Y515500D01*
X458000Y514500D01*
Y513500D01*
X114000D02*
X115000D01*
X116000Y514500D01*
X117000Y513500D01*
X118000D01*
Y514500D01*
X117000Y515500D01*
X118000Y516500D01*
Y517500D01*
X117000D01*
X116000Y516500D01*
X115000Y517500D01*
X114000D01*
Y516500D01*
X115000Y515500D01*
X114000Y514500D01*
Y513500D01*
X419250Y419500D02*
X417250Y423500D01*
X421250D01*
X419250Y419500D01*
Y409500D02*
X417250Y413500D01*
X421250D01*
X419250Y409500D01*
X443625Y419500D02*
X441625Y423500D01*
X445625D01*
X443625Y419500D01*
Y409500D02*
X441625Y413500D01*
X445625D01*
X443625Y409500D01*
X370500Y419500D02*
X368500Y423500D01*
X372500D01*
X370500Y419500D01*
Y409500D02*
X368500Y413500D01*
X372500D01*
X370500Y409500D01*
X394875Y419500D02*
X392875Y423500D01*
X396875D01*
X394875Y419500D01*
Y409500D02*
X392875Y413500D01*
X396875D01*
X394875Y409500D01*
X468000Y419500D02*
X466000Y423500D01*
X470000D01*
X468000Y419500D01*
Y409500D02*
X466000Y413500D01*
X470000D01*
X468000Y409500D01*
X357000Y468500D02*
X359000Y470500D01*
X361000Y468500D01*
X359000Y466500D01*
X357000Y468500D01*
X344400Y363100D02*
X346400Y365100D01*
X348400Y363100D01*
X346400Y361100D01*
X344400Y363100D01*
D40*
X252606Y442000D02*
X252377Y442929D01*
X251743Y443646D01*
X250848Y443985D01*
X249897Y443870D01*
X249109Y443326D01*
X248664Y442479D01*
Y441521D01*
X249109Y440674D01*
X249897Y440130D01*
X250848Y440015D01*
X251743Y440354D01*
X252377Y441071D01*
X252606Y442000D01*
X293394D02*
X293165Y442929D01*
X292530Y443646D01*
X291635Y443985D01*
X290685Y443870D01*
X289897Y443326D01*
X289452Y442479D01*
Y441521D01*
X289897Y440674D01*
X290685Y440130D01*
X291635Y440015D01*
X292530Y440354D01*
X293165Y441071D01*
X293394Y442000D01*
X319394Y177500D02*
X319165Y178429D01*
X318530Y179146D01*
X317635Y179485D01*
X316685Y179370D01*
X315897Y178826D01*
X315452Y177979D01*
Y177021D01*
X315897Y176174D01*
X316685Y175630D01*
X317635Y175515D01*
X318530Y175854D01*
X319165Y176571D01*
X319394Y177500D01*
X278606D02*
X278377Y178429D01*
X277743Y179146D01*
X276848Y179485D01*
X275897Y179370D01*
X275109Y178826D01*
X274664Y177979D01*
Y177021D01*
X275109Y176174D01*
X275897Y175630D01*
X276848Y175515D01*
X277743Y175854D01*
X278377Y176571D01*
X278606Y177500D01*
X306606Y442000D02*
X306377Y442929D01*
X305743Y443646D01*
X304848Y443985D01*
X303897Y443870D01*
X303109Y443326D01*
X302664Y442479D01*
Y441521D01*
X303109Y440674D01*
X303897Y440130D01*
X304848Y440015D01*
X305743Y440354D01*
X306377Y441071D01*
X306606Y442000D01*
X347394D02*
X347165Y442929D01*
X346530Y443646D01*
X345635Y443985D01*
X344685Y443870D01*
X343897Y443326D01*
X343452Y442479D01*
Y441521D01*
X343897Y440674D01*
X344685Y440130D01*
X345635Y440015D01*
X346530Y440354D01*
X347165Y441071D01*
X347394Y442000D01*
X178500Y419000D02*
X178271Y419929D01*
X177636Y420646D01*
X176741Y420985D01*
X175791Y420870D01*
X175003Y420326D01*
X174558Y419479D01*
Y418521D01*
X175003Y417674D01*
X175791Y417130D01*
X176741Y417015D01*
X177636Y417354D01*
X178271Y418071D01*
X178500Y419000D01*
Y378213D02*
X178271Y379142D01*
X177636Y379859D01*
X176741Y380198D01*
X175791Y380083D01*
X175003Y379539D01*
X174558Y378691D01*
Y377734D01*
X175003Y376886D01*
X175791Y376343D01*
X176741Y376227D01*
X177636Y376567D01*
X178271Y377283D01*
X178500Y378213D01*
Y433106D02*
X178271Y434036D01*
X177636Y434752D01*
X176741Y435092D01*
X175791Y434976D01*
X175003Y434433D01*
X174558Y433585D01*
Y432628D01*
X175003Y431780D01*
X175791Y431236D01*
X176741Y431121D01*
X177636Y431460D01*
X178271Y432177D01*
X178500Y433106D01*
Y473894D02*
X178271Y474823D01*
X177636Y475540D01*
X176741Y475879D01*
X175791Y475764D01*
X175003Y475220D01*
X174558Y474372D01*
Y473415D01*
X175003Y472568D01*
X175791Y472024D01*
X176741Y471908D01*
X177636Y472248D01*
X178271Y472964D01*
X178500Y473894D01*
X165894Y360000D02*
X165665Y360929D01*
X165030Y361646D01*
X164135Y361985D01*
X163185Y361870D01*
X162397Y361326D01*
X161952Y360479D01*
Y359521D01*
X162397Y358674D01*
X163185Y358130D01*
X164135Y358015D01*
X165030Y358354D01*
X165665Y359071D01*
X165894Y360000D01*
X125106D02*
X124877Y360929D01*
X124242Y361646D01*
X123347Y361985D01*
X122397Y361870D01*
X121609Y361326D01*
X121165Y360479D01*
Y359521D01*
X121609Y358674D01*
X122397Y358130D01*
X123347Y358015D01*
X124242Y358354D01*
X124877Y359071D01*
X125106Y360000D01*
M02*
