G04*
G04 #@! TF.GenerationSoftware,Altium Limited,Altium Designer,23.8.1 (32)*
G04*
G04 Layer_Color=65535*
%FSLAX25Y25*%
%MOIN*%
G70*
G04*
G04 #@! TF.SameCoordinates,D6E9CDF8-AAC3-469D-917B-50C59DE8B454*
G04*
G04*
G04 #@! TF.FilePolarity,Positive*
G04*
G01*
G75*
%ADD10C,0.00787*%
%ADD11C,0.00500*%
%ADD12C,0.00600*%
%ADD13C,0.01000*%
D10*
X243933Y442000D02*
X243146D01*
X243933D01*
X282016Y159000D02*
X281228D01*
X282016D01*
X324854Y177500D02*
X324067D01*
X324854D01*
X288929Y462579D02*
X288142D01*
X288929D01*
X341429D02*
X340642D01*
X341429D01*
X297933Y442000D02*
X297146D01*
X297933D01*
X176894Y426067D02*
X176106D01*
X176894D01*
Y426039D02*
X176106D01*
X176894D01*
X130656Y335280D02*
X131473Y335912D01*
X132196Y336651D01*
X132809Y337482D01*
X133303Y338389D01*
X133667Y339356D01*
X133894Y340364D01*
X133979Y341394D01*
X133923Y342425D01*
X133725Y343439D01*
X133389Y344416D01*
X132921Y345337D01*
X132331Y346185D01*
X131630Y346944D01*
X130831Y347599D01*
X122169D02*
X121370Y346944D01*
X120669Y346185D01*
X120079Y345337D01*
X119611Y344416D01*
X119275Y343439D01*
X119077Y342425D01*
X119020Y341394D01*
X119106Y340364D01*
X119333Y339356D01*
X119697Y338389D01*
X120191Y337482D01*
X120804Y336651D01*
X121527Y335912D01*
X122344Y335280D01*
X136358Y338421D02*
X135571D01*
X136358D01*
X423406Y410280D02*
X424223Y410912D01*
X424946Y411651D01*
X425559Y412482D01*
X426053Y413389D01*
X426417Y414356D01*
X426644Y415364D01*
X426730Y416394D01*
X426673Y417425D01*
X426475Y418439D01*
X426139Y419416D01*
X425671Y420337D01*
X425081Y421185D01*
X424380Y421944D01*
X423581Y422599D01*
X414919D02*
X414120Y421944D01*
X413419Y421185D01*
X412829Y420337D01*
X412361Y419416D01*
X412025Y418439D01*
X411827Y417425D01*
X411770Y416394D01*
X411856Y415364D01*
X412083Y414356D01*
X412447Y413389D01*
X412941Y412482D01*
X413554Y411651D01*
X414277Y410912D01*
X415094Y410280D01*
X447781D02*
X448598Y410912D01*
X449321Y411651D01*
X449934Y412482D01*
X450428Y413389D01*
X450792Y414356D01*
X451019Y415364D01*
X451105Y416394D01*
X451048Y417425D01*
X450850Y418439D01*
X450514Y419416D01*
X450046Y420337D01*
X449456Y421185D01*
X448755Y421944D01*
X447956Y422599D01*
X439294D02*
X438495Y421944D01*
X437794Y421185D01*
X437204Y420337D01*
X436736Y419416D01*
X436400Y418439D01*
X436202Y417425D01*
X436145Y416394D01*
X436231Y415364D01*
X436458Y414356D01*
X436822Y413389D01*
X437316Y412482D01*
X437929Y411651D01*
X438652Y410912D01*
X439469Y410280D01*
X171354Y360000D02*
X170567D01*
X171354D01*
X374656Y410280D02*
X375473Y410912D01*
X376196Y411651D01*
X376809Y412482D01*
X377303Y413389D01*
X377667Y414356D01*
X377894Y415364D01*
X377980Y416394D01*
X377923Y417425D01*
X377725Y418439D01*
X377389Y419416D01*
X376921Y420337D01*
X376331Y421185D01*
X375630Y421944D01*
X374831Y422599D01*
X366169D02*
X365370Y421944D01*
X364669Y421185D01*
X364079Y420337D01*
X363611Y419416D01*
X363275Y418439D01*
X363077Y417425D01*
X363020Y416394D01*
X363106Y415364D01*
X363333Y414356D01*
X363697Y413389D01*
X364191Y412482D01*
X364804Y411651D01*
X365527Y410912D01*
X366344Y410280D01*
X399031D02*
X399848Y410912D01*
X400571Y411651D01*
X401184Y412482D01*
X401678Y413389D01*
X402042Y414356D01*
X402269Y415364D01*
X402355Y416394D01*
X402298Y417425D01*
X402100Y418439D01*
X401764Y419416D01*
X401296Y420337D01*
X400706Y421185D01*
X400005Y421944D01*
X399206Y422599D01*
X390544D02*
X389745Y421944D01*
X389044Y421185D01*
X388454Y420337D01*
X387986Y419416D01*
X387650Y418439D01*
X387452Y417425D01*
X387395Y416394D01*
X387481Y415364D01*
X387708Y414356D01*
X388072Y413389D01*
X388566Y412482D01*
X389179Y411651D01*
X389902Y410912D01*
X390719Y410280D01*
X472156D02*
X472973Y410912D01*
X473696Y411651D01*
X474309Y412482D01*
X474803Y413389D01*
X475167Y414356D01*
X475394Y415364D01*
X475480Y416394D01*
X475423Y417425D01*
X475225Y418439D01*
X474889Y419416D01*
X474421Y420337D01*
X473831Y421185D01*
X473130Y421944D01*
X472331Y422599D01*
X463669D02*
X462870Y421944D01*
X462169Y421185D01*
X461579Y420337D01*
X461111Y419416D01*
X460775Y418439D01*
X460577Y417425D01*
X460520Y416394D01*
X460606Y415364D01*
X460833Y414356D01*
X461197Y413389D01*
X461691Y412482D01*
X462304Y411651D01*
X463027Y410912D01*
X463844Y410280D01*
X126500Y350831D02*
Y352799D01*
X125516Y351815D02*
X127484D01*
X419250Y425831D02*
Y427799D01*
X418266Y426815D02*
X420234D01*
X443625Y425831D02*
Y427799D01*
X442641Y426815D02*
X444609D01*
X370500Y425831D02*
Y427799D01*
X369516Y426815D02*
X371484D01*
X394875Y425831D02*
Y427799D01*
X393891Y426815D02*
X395859D01*
X468000Y425831D02*
Y427799D01*
X467016Y426815D02*
X468984D01*
D11*
X306736Y163076D02*
X306313Y163980D01*
X305795Y164832D01*
X305188Y165624D01*
X304499Y166347D01*
X303737Y166990D01*
X302910Y167548D01*
X302028Y168014D01*
X301100Y168382D01*
X300138Y168648D01*
X299154Y168808D01*
X298158Y168862D01*
X297161Y168808D01*
X296177Y168648D01*
X295215Y168382D01*
X294287Y168014D01*
X293405Y167548D01*
X292578Y166990D01*
X291815Y166347D01*
X291127Y165624D01*
X290520Y164832D01*
X290002Y163980D01*
X289579Y163076D01*
X263422Y458503D02*
X263845Y457599D01*
X264363Y456746D01*
X264969Y455954D01*
X265658Y455232D01*
X266420Y454588D01*
X267248Y454031D01*
X268130Y453565D01*
X269057Y453197D01*
X270019Y452931D01*
X271004Y452770D01*
X272000Y452716D01*
X272996Y452770D01*
X273981Y452931D01*
X274943Y453197D01*
X275870Y453565D01*
X276752Y454031D01*
X277580Y454588D01*
X278342Y455232D01*
X279030Y455954D01*
X279637Y456746D01*
X280155Y457599D01*
X280578Y458503D01*
X315922D02*
X316345Y457599D01*
X316863Y456746D01*
X317470Y455954D01*
X318158Y455232D01*
X318920Y454588D01*
X319747Y454031D01*
X320630Y453565D01*
X321557Y453197D01*
X322519Y452931D01*
X323504Y452770D01*
X324500Y452716D01*
X325496Y452770D01*
X326481Y452931D01*
X327443Y453197D01*
X328370Y453565D01*
X329253Y454031D01*
X330080Y454588D01*
X330842Y455232D01*
X331530Y455954D01*
X332137Y456746D01*
X332655Y457599D01*
X333078Y458503D01*
X161078Y342497D02*
X160655Y343401D01*
X160137Y344254D01*
X159530Y345046D01*
X158842Y345768D01*
X158080Y346412D01*
X157253Y346970D01*
X156370Y347435D01*
X155443Y347803D01*
X154481Y348069D01*
X153496Y348230D01*
X152500Y348284D01*
X151504Y348230D01*
X150519Y348069D01*
X149557Y347803D01*
X148630Y347435D01*
X147748Y346970D01*
X146920Y346412D01*
X146158Y345768D01*
X145469Y345046D01*
X144863Y344254D01*
X144345Y343401D01*
X143922Y342497D01*
X254996Y442000D02*
X261886D01*
X280114D02*
X287004D01*
X261886Y446675D02*
X280114D01*
Y442000D02*
Y446675D01*
Y437325D02*
Y442000D01*
X261886Y437325D02*
X280114D01*
X261886D02*
Y442000D01*
Y446675D01*
X265000Y437500D02*
Y446500D01*
X295236Y317000D02*
Y431154D01*
X245236Y317000D02*
X295236D01*
X245236D02*
Y431173D01*
X295236D01*
X467500Y386886D02*
X472618D01*
X462382D02*
X467500D01*
X462382Y360114D02*
Y386886D01*
Y360114D02*
X467500D01*
X472618D01*
Y386886D01*
X467500D02*
Y391532D01*
Y355469D02*
Y360114D01*
X362539Y166882D02*
Y172000D01*
Y177118D01*
X335768D02*
X362539D01*
X335768Y172000D02*
Y177118D01*
Y166882D02*
Y172000D01*
Y166882D02*
X362539D01*
Y172000D02*
X367185D01*
X331122D02*
X335768D01*
X362539Y153882D02*
Y159000D01*
Y164118D01*
X335768D02*
X362539D01*
X335768Y159000D02*
Y164118D01*
Y153882D02*
Y159000D01*
Y153882D02*
X362539D01*
Y159000D02*
X367185D01*
X331122D02*
X335768D01*
X290584Y154295D02*
X305730D01*
X290584D02*
X305730D01*
X306114Y177500D02*
X313004D01*
X280996D02*
X287886D01*
Y172825D02*
X306114D01*
X287886D02*
Y177500D01*
Y182175D01*
X306114D01*
Y177500D02*
Y182175D01*
Y172825D02*
Y177500D01*
X303000Y173000D02*
Y182000D01*
X272236Y186346D02*
Y300500D01*
X322236D01*
Y186327D02*
Y300500D01*
X272236Y186327D02*
X322236D01*
X259114Y489000D02*
Y494118D01*
Y483882D02*
Y489000D01*
Y483882D02*
X285886D01*
Y489000D01*
Y494118D01*
X259114D02*
X285886D01*
X254469Y489000D02*
X259114D01*
X285886D02*
X290532D01*
X259114Y476000D02*
Y481118D01*
Y470882D02*
Y476000D01*
Y470882D02*
X285886D01*
Y476000D01*
Y481118D01*
X259114D02*
X285886D01*
X254469Y476000D02*
X259114D01*
X285886D02*
X290532D01*
X264427Y467283D02*
X279573D01*
X264427D02*
X279573D01*
X370500Y386886D02*
X375618D01*
X365382D02*
X370500D01*
X365382Y360114D02*
Y386886D01*
Y360114D02*
X370500D01*
X375618D01*
Y386886D01*
X370500D02*
Y391532D01*
Y355469D02*
Y360114D01*
X394750Y386886D02*
X399868D01*
X389632D02*
X394750D01*
X389632Y360114D02*
Y386886D01*
Y360114D02*
X394750D01*
X399868D01*
Y386886D01*
X394750D02*
Y391532D01*
Y355469D02*
Y360114D01*
X419000Y386886D02*
X424118D01*
X413882D02*
X419000D01*
X413882Y360114D02*
Y386886D01*
Y360114D02*
X419000D01*
X424118D01*
Y386886D01*
X419000D02*
Y391532D01*
Y355469D02*
Y360114D01*
X443250Y386886D02*
X448368D01*
X438132D02*
X443250D01*
X438132Y360114D02*
Y386886D01*
Y360114D02*
X443250D01*
X448368D01*
Y386886D01*
X443250D02*
Y391532D01*
Y355469D02*
Y360114D01*
X325882Y482614D02*
X331000D01*
X336118D01*
Y509386D01*
X331000D02*
X336118D01*
X325882D02*
X331000D01*
X325882Y482614D02*
Y509386D01*
X331000Y477969D02*
Y482614D01*
Y509386D02*
Y514032D01*
X312882Y482614D02*
X318000D01*
X323118D01*
Y509386D01*
X318000D02*
X323118D01*
X312882D02*
X318000D01*
X312882Y482614D02*
Y509386D01*
X318000Y477969D02*
Y482614D01*
Y509386D02*
Y514032D01*
X229882Y394268D02*
X235000D01*
X240118D01*
Y421039D01*
X235000D02*
X240118D01*
X229882D02*
X235000D01*
X229882Y394268D02*
Y421039D01*
X235000Y389622D02*
Y394268D01*
Y421039D02*
Y425685D01*
X229882Y343114D02*
X235000D01*
X240118D01*
Y369886D01*
X235000D02*
X240118D01*
X229882D02*
X235000D01*
X229882Y343114D02*
Y369886D01*
X235000Y338469D02*
Y343114D01*
Y369886D02*
Y374532D01*
X316927Y467283D02*
X332073D01*
X316927D02*
X332073D01*
X308996Y442000D02*
X315886D01*
X334114D02*
X341004D01*
X315886Y446675D02*
X334114D01*
Y442000D02*
Y446675D01*
Y437325D02*
Y442000D01*
X315886Y437325D02*
X334114D01*
X315886D02*
Y442000D01*
Y446675D01*
X319000Y437500D02*
Y446500D01*
X349236Y317000D02*
Y431154D01*
X299236Y317000D02*
X349236D01*
X299236D02*
Y431173D01*
X349236D01*
X125382Y288114D02*
X130500D01*
X135618D01*
Y314886D01*
X130500D02*
X135618D01*
X125382D02*
X130500D01*
X125382Y288114D02*
Y314886D01*
X130500Y283469D02*
Y288114D01*
Y314886D02*
Y319532D01*
X176500Y407720D02*
Y414610D01*
Y382602D02*
Y389492D01*
X181175D02*
Y407720D01*
X176500Y389492D02*
X181175D01*
X171825D02*
X176500D01*
X171825D02*
Y407720D01*
X176500D01*
X181175D01*
X172000Y404606D02*
X181000D01*
X176500Y437496D02*
Y444386D01*
Y462614D02*
Y469504D01*
X171825Y444386D02*
Y462614D01*
X176500D01*
X181175D01*
Y444386D02*
Y462614D01*
X176500Y444386D02*
X181175D01*
X171825D02*
X176500D01*
X172000Y447500D02*
X181000D01*
X144927Y333717D02*
X160073D01*
X144927D02*
X160073D01*
X144000Y314886D02*
X149118D01*
X138882D02*
X144000D01*
X138882Y288114D02*
Y314886D01*
Y288114D02*
X144000D01*
X149118D01*
Y314886D01*
X144000D02*
Y319532D01*
Y283469D02*
Y288114D01*
X157000Y314886D02*
X162118D01*
X151882D02*
X157000D01*
X151882Y288114D02*
Y314886D01*
Y288114D02*
X157000D01*
X162118D01*
Y314886D01*
X157000D02*
Y319532D01*
Y283469D02*
Y288114D01*
X117764Y370189D02*
Y484343D01*
X167764D01*
Y370169D02*
Y484343D01*
X117764Y370169D02*
X167764D01*
X152614Y360000D02*
X159504D01*
X127496D02*
X134386D01*
Y355325D02*
X152614D01*
X134386D02*
Y360000D01*
Y364675D01*
X152614D01*
Y360000D02*
Y364675D01*
Y355325D02*
Y360000D01*
X149500Y355500D02*
Y364500D01*
D12*
X294816Y503902D02*
Y538949D01*
X254870Y503902D02*
Y538949D01*
Y503902D02*
X294815D01*
X254870Y538949D02*
X294815D01*
X253039Y503902D02*
Y538949D01*
X203343Y503902D02*
X253039D01*
X203343Y538949D02*
X253039D01*
X203343Y503902D02*
Y538949D01*
D13*
X425500Y164780D02*
X428124D01*
X429436Y166748D02*
Y162812D01*
X431404D01*
X432060Y163468D01*
Y164124D01*
X431404Y164780D01*
X429436D01*
X431404D01*
X432060Y165436D01*
Y166092D01*
X431404Y166748D01*
X429436D01*
X434027Y165436D02*
X435339D01*
X435995Y164780D01*
Y162812D01*
X434027D01*
X433371Y163468D01*
X434027Y164124D01*
X435995D01*
X437963Y166092D02*
Y165436D01*
X437307D01*
X438619D01*
X437963D01*
Y163468D01*
X438619Y162812D01*
X441243Y166092D02*
Y165436D01*
X440587D01*
X441899D01*
X441243D01*
Y163468D01*
X441899Y162812D01*
X445835D02*
X444523D01*
X443867Y163468D01*
Y164780D01*
X444523Y165436D01*
X445835D01*
X446491Y164780D01*
Y164124D01*
X443867D01*
X447802Y165436D02*
Y162812D01*
Y164124D01*
X448458Y164780D01*
X449114Y165436D01*
X449770D01*
X451738D02*
Y163468D01*
X452394Y162812D01*
X454362D01*
Y162156D01*
X453706Y161500D01*
X453050D01*
X454362Y162812D02*
Y165436D01*
X459610Y166748D02*
X460922D01*
X460266D01*
Y162812D01*
X459610D01*
X460922D01*
X462889D02*
Y165436D01*
X464857D01*
X465513Y164780D01*
Y162812D01*
X466825Y161500D02*
Y165436D01*
X468793D01*
X469449Y164780D01*
Y163468D01*
X468793Y162812D01*
X466825D01*
X470761Y165436D02*
Y163468D01*
X471417Y162812D01*
X473385D01*
Y165436D01*
X475353Y166092D02*
Y165436D01*
X474697D01*
X476009D01*
X475353D01*
Y163468D01*
X476009Y162812D01*
X107500Y164780D02*
X110124D01*
X111436Y166748D02*
Y162812D01*
X113404D01*
X114060Y163468D01*
Y164124D01*
X113404Y164780D01*
X111436D01*
X113404D01*
X114060Y165436D01*
Y166092D01*
X113404Y166748D01*
X111436D01*
X116027Y165436D02*
X117339D01*
X117995Y164780D01*
Y162812D01*
X116027D01*
X115372Y163468D01*
X116027Y164124D01*
X117995D01*
X119963Y166092D02*
Y165436D01*
X119307D01*
X120619D01*
X119963D01*
Y163468D01*
X120619Y162812D01*
X123243Y166092D02*
Y165436D01*
X122587D01*
X123899D01*
X123243D01*
Y163468D01*
X123899Y162812D01*
X127835D02*
X126523D01*
X125867Y163468D01*
Y164780D01*
X126523Y165436D01*
X127835D01*
X128491Y164780D01*
Y164124D01*
X125867D01*
X129803Y165436D02*
Y162812D01*
Y164124D01*
X130458Y164780D01*
X131114Y165436D01*
X131770D01*
X133738D02*
Y163468D01*
X134394Y162812D01*
X136362D01*
Y162156D01*
X135706Y161500D01*
X135050D01*
X136362Y162812D02*
Y165436D01*
X143578Y166748D02*
X142266D01*
X141610Y166092D01*
Y163468D01*
X142266Y162812D01*
X143578D01*
X144234Y163468D01*
Y166092D01*
X143578Y166748D01*
X145545Y165436D02*
Y163468D01*
X146201Y162812D01*
X148169D01*
Y165436D01*
X150137Y166092D02*
Y165436D01*
X149481D01*
X150793D01*
X150137D01*
Y163468D01*
X150793Y162812D01*
X152761Y161500D02*
Y165436D01*
X154729D01*
X155385Y164780D01*
Y163468D01*
X154729Y162812D01*
X152761D01*
X156697Y165436D02*
Y163468D01*
X157353Y162812D01*
X159321D01*
Y165436D01*
X161288Y166092D02*
Y165436D01*
X160633D01*
X161944D01*
X161288D01*
Y163468D01*
X161944Y162812D01*
X425500Y207280D02*
X428124D01*
X426812Y208592D02*
Y205968D01*
X429436Y209248D02*
Y205312D01*
X431404D01*
X432060Y205968D01*
Y206624D01*
X431404Y207280D01*
X429436D01*
X431404D01*
X432060Y207936D01*
Y208592D01*
X431404Y209248D01*
X429436D01*
X434027Y207936D02*
X435339D01*
X435995Y207280D01*
Y205312D01*
X434027D01*
X433371Y205968D01*
X434027Y206624D01*
X435995D01*
X437963Y208592D02*
Y207936D01*
X437307D01*
X438619D01*
X437963D01*
Y205968D01*
X438619Y205312D01*
X441243Y208592D02*
Y207936D01*
X440587D01*
X441899D01*
X441243D01*
Y205968D01*
X441899Y205312D01*
X445835D02*
X444523D01*
X443867Y205968D01*
Y207280D01*
X444523Y207936D01*
X445835D01*
X446491Y207280D01*
Y206624D01*
X443867D01*
X447802Y207936D02*
Y205312D01*
Y206624D01*
X448458Y207280D01*
X449114Y207936D01*
X449770D01*
X451738D02*
Y205968D01*
X452394Y205312D01*
X454362D01*
Y204656D01*
X453706Y204000D01*
X453050D01*
X454362Y205312D02*
Y207936D01*
X459610Y209248D02*
X460922D01*
X460266D01*
Y205312D01*
X459610D01*
X460922D01*
X462889D02*
Y207936D01*
X464857D01*
X465513Y207280D01*
Y205312D01*
X466825Y204000D02*
Y207936D01*
X468793D01*
X469449Y207280D01*
Y205968D01*
X468793Y205312D01*
X466825D01*
X470761Y207936D02*
Y205968D01*
X471417Y205312D01*
X473385D01*
Y207936D01*
X475353Y208592D02*
Y207936D01*
X474697D01*
X476009D01*
X475353D01*
Y205968D01*
X476009Y205312D01*
X109500Y207280D02*
X112124D01*
X110812Y208592D02*
Y205968D01*
X113436Y209248D02*
Y205312D01*
X115404D01*
X116060Y205968D01*
Y206624D01*
X115404Y207280D01*
X113436D01*
X115404D01*
X116060Y207936D01*
Y208592D01*
X115404Y209248D01*
X113436D01*
X118027Y207936D02*
X119339D01*
X119995Y207280D01*
Y205312D01*
X118027D01*
X117371Y205968D01*
X118027Y206624D01*
X119995D01*
X121963Y208592D02*
Y207936D01*
X121307D01*
X122619D01*
X121963D01*
Y205968D01*
X122619Y205312D01*
X125243Y208592D02*
Y207936D01*
X124587D01*
X125899D01*
X125243D01*
Y205968D01*
X125899Y205312D01*
X129835D02*
X128523D01*
X127867Y205968D01*
Y207280D01*
X128523Y207936D01*
X129835D01*
X130491Y207280D01*
Y206624D01*
X127867D01*
X131802Y207936D02*
Y205312D01*
Y206624D01*
X132458Y207280D01*
X133114Y207936D01*
X133770D01*
X135738D02*
Y205968D01*
X136394Y205312D01*
X138362D01*
Y204656D01*
X137706Y204000D01*
X137050D01*
X138362Y205312D02*
Y207936D01*
X145578Y209248D02*
X144266D01*
X143610Y208592D01*
Y205968D01*
X144266Y205312D01*
X145578D01*
X146234Y205968D01*
Y208592D01*
X145578Y209248D01*
X147546Y207936D02*
Y205968D01*
X148201Y205312D01*
X150169D01*
Y207936D01*
X152137Y208592D02*
Y207936D01*
X151481D01*
X152793D01*
X152137D01*
Y205968D01*
X152793Y205312D01*
X154761Y204000D02*
Y207936D01*
X156729D01*
X157385Y207280D01*
Y205968D01*
X156729Y205312D01*
X154761D01*
X158697Y207936D02*
Y205968D01*
X159353Y205312D01*
X161321D01*
Y207936D01*
X163288Y208592D02*
Y207936D01*
X162633D01*
X163944D01*
X163288D01*
Y205968D01*
X163944Y205312D01*
X324080Y163032D02*
Y166968D01*
X326048D01*
X326704Y166312D01*
Y165000D01*
X326048Y164344D01*
X324080D01*
X325392D02*
X326704Y163032D01*
X328016D02*
X329328D01*
X328672D01*
Y166968D01*
X328016Y166312D01*
X333920Y166968D02*
X332608Y166312D01*
X331296Y165000D01*
Y163688D01*
X331952Y163032D01*
X333264D01*
X333920Y163688D01*
Y164344D01*
X333264Y165000D01*
X331296D01*
X324080Y176532D02*
Y180468D01*
X326048D01*
X326704Y179812D01*
Y178500D01*
X326048Y177844D01*
X324080D01*
X325392D02*
X326704Y176532D01*
X328016D02*
X329328D01*
X328672D01*
Y180468D01*
X328016Y179812D01*
X333920Y180468D02*
X331296D01*
Y178500D01*
X332608Y179156D01*
X333264D01*
X333920Y178500D01*
Y177188D01*
X333264Y176532D01*
X331952D01*
X331296Y177188D01*
X472580Y389032D02*
Y392968D01*
X474548D01*
X475204Y392312D01*
Y391000D01*
X474548Y390344D01*
X472580D01*
X473892D02*
X475204Y389032D01*
X476516D02*
X477828D01*
X477172D01*
Y392968D01*
X476516Y392312D01*
X481764Y389032D02*
Y392968D01*
X479796Y391000D01*
X482420D01*
X247080Y467032D02*
Y470968D01*
X249048D01*
X249704Y470312D01*
Y469000D01*
X249048Y468344D01*
X247080D01*
X248392D02*
X249704Y467032D01*
X251016D02*
X252328D01*
X251672D01*
Y470968D01*
X251016Y470312D01*
X254296D02*
X254952Y470968D01*
X256264D01*
X256920Y470312D01*
Y469656D01*
X256264Y469000D01*
X255608D01*
X256264D01*
X256920Y468344D01*
Y467688D01*
X256264Y467032D01*
X254952D01*
X254296Y467688D01*
X246080Y480532D02*
Y484468D01*
X248048D01*
X248704Y483812D01*
Y482500D01*
X248048Y481844D01*
X246080D01*
X247392D02*
X248704Y480532D01*
X250016D02*
X251328D01*
X250672D01*
Y484468D01*
X250016Y483812D01*
X255920Y480532D02*
X253296D01*
X255920Y483156D01*
Y483812D01*
X255264Y484468D01*
X253952D01*
X253296Y483812D01*
X381486Y389532D02*
Y393468D01*
X383454D01*
X384110Y392812D01*
Y391500D01*
X383454Y390844D01*
X381486D01*
X382798D02*
X384110Y389532D01*
X385422D02*
X386734D01*
X386078D01*
Y393468D01*
X385422Y392812D01*
X388702Y389532D02*
X390014D01*
X389358D01*
Y393468D01*
X388702Y392812D01*
X356580Y389532D02*
Y393468D01*
X358548D01*
X359204Y392812D01*
Y391500D01*
X358548Y390844D01*
X356580D01*
X357892D02*
X359204Y389532D01*
X360516D02*
X361828D01*
X361172D01*
Y393468D01*
X360516Y392812D01*
X363796D02*
X364452Y393468D01*
X365764D01*
X366420Y392812D01*
Y390188D01*
X365764Y389532D01*
X364452D01*
X363796Y390188D01*
Y392812D01*
X314720Y523032D02*
Y526968D01*
X316688D01*
X317344Y526312D01*
Y525000D01*
X316688Y524344D01*
X314720D01*
X316032D02*
X317344Y523032D01*
X318656Y523688D02*
X319312Y523032D01*
X320624D01*
X321280Y523688D01*
Y526312D01*
X320624Y526968D01*
X319312D01*
X318656Y526312D01*
Y525656D01*
X319312Y525000D01*
X321280D01*
X164968Y279567D02*
X161032D01*
Y281535D01*
X161688Y282190D01*
X163000D01*
X163656Y281535D01*
Y279567D01*
Y280879D02*
X164968Y282190D01*
X161688Y283502D02*
X161032Y284158D01*
Y285470D01*
X161688Y286126D01*
X162344D01*
X163000Y285470D01*
X163656Y286126D01*
X164312D01*
X164968Y285470D01*
Y284158D01*
X164312Y283502D01*
X163656D01*
X163000Y284158D01*
X162344Y283502D01*
X161688D01*
X163000Y284158D02*
Y285470D01*
X327720Y523032D02*
Y526968D01*
X329688D01*
X330344Y526312D01*
Y525000D01*
X329688Y524344D01*
X327720D01*
X329032D02*
X330344Y523032D01*
X331656Y526968D02*
X334280D01*
Y526312D01*
X331656Y523688D01*
Y523032D01*
X139468Y279220D02*
X135532D01*
Y281188D01*
X136188Y281844D01*
X137500D01*
X138156Y281188D01*
Y279220D01*
Y280532D02*
X139468Y281844D01*
X135532Y285780D02*
X136188Y284468D01*
X137500Y283156D01*
X138812D01*
X139468Y283812D01*
Y285124D01*
X138812Y285780D01*
X138156D01*
X137500Y285124D01*
Y283156D01*
X431970Y389032D02*
Y392968D01*
X433938D01*
X434594Y392312D01*
Y391000D01*
X433938Y390344D01*
X431970D01*
X433282D02*
X434594Y389032D01*
X438530Y392968D02*
X435906D01*
Y391000D01*
X437218Y391656D01*
X437874D01*
X438530Y391000D01*
Y389688D01*
X437874Y389032D01*
X436562D01*
X435906Y389688D01*
X125968Y279720D02*
X122032D01*
Y281688D01*
X122688Y282344D01*
X124000D01*
X124656Y281688D01*
Y279720D01*
Y281032D02*
X125968Y282344D01*
Y285624D02*
X122032D01*
X124000Y283656D01*
Y286280D01*
X407720Y390032D02*
Y393968D01*
X409688D01*
X410344Y393312D01*
Y392000D01*
X409688Y391344D01*
X407720D01*
X409032D02*
X410344Y390032D01*
X411656Y393312D02*
X412312Y393968D01*
X413624D01*
X414280Y393312D01*
Y392656D01*
X413624Y392000D01*
X412968D01*
X413624D01*
X414280Y391344D01*
Y390688D01*
X413624Y390032D01*
X412312D01*
X411656Y390688D01*
X231720Y434032D02*
Y437968D01*
X233688D01*
X234344Y437312D01*
Y436000D01*
X233688Y435344D01*
X231720D01*
X233032D02*
X234344Y434032D01*
X238280D02*
X235656D01*
X238280Y436656D01*
Y437312D01*
X237624Y437968D01*
X236312D01*
X235656Y437312D01*
X232376Y326532D02*
Y330468D01*
X234344D01*
X235000Y329812D01*
Y328500D01*
X234344Y327844D01*
X232376D01*
X233688D02*
X235000Y326532D01*
X236312D02*
X237624D01*
X236968D01*
Y330468D01*
X236312Y329812D01*
X278844Y163188D02*
Y165812D01*
X278188Y166468D01*
X276876D01*
X276220Y165812D01*
Y163188D01*
X276876Y162532D01*
X278188D01*
X277532Y163844D02*
X278844Y162532D01*
X278188D02*
X278844Y163188D01*
X282124Y162532D02*
Y166468D01*
X280156Y164500D01*
X282780D01*
X290344Y455688D02*
Y458312D01*
X289688Y458968D01*
X288376D01*
X287720Y458312D01*
Y455688D01*
X288376Y455032D01*
X289688D01*
X289032Y456344D02*
X290344Y455032D01*
X289688D02*
X290344Y455688D01*
X291656Y458312D02*
X292312Y458968D01*
X293624D01*
X294280Y458312D01*
Y457656D01*
X293624Y457000D01*
X292968D01*
X293624D01*
X294280Y456344D01*
Y455688D01*
X293624Y455032D01*
X292312D01*
X291656Y455688D01*
X305344Y454188D02*
Y456812D01*
X304688Y457468D01*
X303376D01*
X302720Y456812D01*
Y454188D01*
X303376Y453532D01*
X304688D01*
X304032Y454844D02*
X305344Y453532D01*
X304688D02*
X305344Y454188D01*
X309280Y453532D02*
X306656D01*
X309280Y456156D01*
Y456812D01*
X308624Y457468D01*
X307312D01*
X306656Y456812D01*
X170812Y336000D02*
X168188D01*
X167532Y335344D01*
Y334032D01*
X168188Y333376D01*
X170812D01*
X171468Y334032D01*
Y335344D01*
X170156Y334688D02*
X171468Y336000D01*
Y335344D02*
X170812Y336000D01*
X171468Y337312D02*
Y338624D01*
Y337968D01*
X167532D01*
X168188Y337312D01*
X260720Y298468D02*
Y294532D01*
Y295844D01*
X263344Y298468D01*
X261376Y296500D01*
X263344Y294532D01*
X266624D02*
Y298468D01*
X264656Y296500D01*
X267280D01*
X240032Y433220D02*
X243968D01*
X242656D01*
X240032Y435844D01*
X242000Y433876D01*
X243968Y435844D01*
X240688Y437156D02*
X240032Y437812D01*
Y439124D01*
X240688Y439780D01*
X241344D01*
X242000Y439124D01*
Y438468D01*
Y439124D01*
X242656Y439780D01*
X243312D01*
X243968Y439124D01*
Y437812D01*
X243312Y437156D01*
X351220Y431968D02*
Y428032D01*
Y429344D01*
X353844Y431968D01*
X351876Y430000D01*
X353844Y428032D01*
X357780D02*
X355156D01*
X357780Y430656D01*
Y431312D01*
X357124Y431968D01*
X355812D01*
X355156Y431312D01*
X138904Y498810D02*
Y494875D01*
Y496187D01*
X141528Y498810D01*
X139560Y496842D01*
X141528Y494875D01*
X142840D02*
X144151D01*
X143495D01*
Y498810D01*
X142840Y498154D01*
X209316Y499468D02*
X208005D01*
X208661D01*
Y496188D01*
X208005Y495532D01*
X207349D01*
X206693Y496188D01*
X213252Y495532D02*
X210628D01*
X213252Y498156D01*
Y498812D01*
X212596Y499468D01*
X211284D01*
X210628Y498812D01*
X258000Y500968D02*
X256688D01*
X257344D01*
Y497688D01*
X256688Y497032D01*
X256032D01*
X255376Y497688D01*
X259312Y497032D02*
X260624D01*
X259968D01*
Y500968D01*
X259312Y500312D01*
X460200Y435136D02*
Y431200D01*
X462168D01*
X462824Y431856D01*
Y434480D01*
X462168Y435136D01*
X460200D01*
X466760Y434480D02*
X466104Y435136D01*
X464792D01*
X464136Y434480D01*
Y433824D01*
X464792Y433168D01*
X466104D01*
X466760Y432512D01*
Y431856D01*
X466104Y431200D01*
X464792D01*
X464136Y431856D01*
X470695Y435136D02*
X469383Y434480D01*
X468072Y433168D01*
Y431856D01*
X468727Y431200D01*
X470039D01*
X470695Y431856D01*
Y432512D01*
X470039Y433168D01*
X468072D01*
X387075Y435136D02*
Y431200D01*
X389043D01*
X389699Y431856D01*
Y434480D01*
X389043Y435136D01*
X387075D01*
X393635Y434480D02*
X392979Y435136D01*
X391667D01*
X391011Y434480D01*
Y433824D01*
X391667Y433168D01*
X392979D01*
X393635Y432512D01*
Y431856D01*
X392979Y431200D01*
X391667D01*
X391011Y431856D01*
X397570Y435136D02*
X394947D01*
Y433168D01*
X396258Y433824D01*
X396914D01*
X397570Y433168D01*
Y431856D01*
X396914Y431200D01*
X395602D01*
X394947Y431856D01*
X362700Y435136D02*
Y431200D01*
X364668D01*
X365324Y431856D01*
Y434480D01*
X364668Y435136D01*
X362700D01*
X369260Y434480D02*
X368604Y435136D01*
X367292D01*
X366636Y434480D01*
Y433824D01*
X367292Y433168D01*
X368604D01*
X369260Y432512D01*
Y431856D01*
X368604Y431200D01*
X367292D01*
X366636Y431856D01*
X372539Y431200D02*
Y435136D01*
X370571Y433168D01*
X373195D01*
X435825Y435136D02*
Y431200D01*
X437793D01*
X438449Y431856D01*
Y434480D01*
X437793Y435136D01*
X435825D01*
X442385Y434480D02*
X441729Y435136D01*
X440417D01*
X439761Y434480D01*
Y433824D01*
X440417Y433168D01*
X441729D01*
X442385Y432512D01*
Y431856D01*
X441729Y431200D01*
X440417D01*
X439761Y431856D01*
X443696Y434480D02*
X444352Y435136D01*
X445664D01*
X446320Y434480D01*
Y433824D01*
X445664Y433168D01*
X445008D01*
X445664D01*
X446320Y432512D01*
Y431856D01*
X445664Y431200D01*
X444352D01*
X443696Y431856D01*
X115532Y323752D02*
X119468D01*
Y325720D01*
X118812Y326376D01*
X116188D01*
X115532Y325720D01*
Y323752D01*
X116188Y330312D02*
X115532Y329656D01*
Y328344D01*
X116188Y327688D01*
X116844D01*
X117500Y328344D01*
Y329656D01*
X118156Y330312D01*
X118812D01*
X119468Y329656D01*
Y328344D01*
X118812Y327688D01*
X119468Y334248D02*
Y331624D01*
X116844Y334248D01*
X116188D01*
X115532Y333592D01*
Y332280D01*
X116188Y331624D01*
X411450Y435136D02*
Y431200D01*
X413418D01*
X414074Y431856D01*
Y434480D01*
X413418Y435136D01*
X411450D01*
X418010Y434480D02*
X417354Y435136D01*
X416042D01*
X415386Y434480D01*
Y433824D01*
X416042Y433168D01*
X417354D01*
X418010Y432512D01*
Y431856D01*
X417354Y431200D01*
X416042D01*
X415386Y431856D01*
X419321Y431200D02*
X420633D01*
X419977D01*
Y435136D01*
X419321Y434480D01*
X265220Y179468D02*
Y175532D01*
X267188D01*
X267844Y176188D01*
Y178812D01*
X267188Y179468D01*
X265220D01*
X271780D02*
X270468Y178812D01*
X269156Y177500D01*
Y176188D01*
X269812Y175532D01*
X271124D01*
X271780Y176188D01*
Y176844D01*
X271124Y177500D01*
X269156D01*
X243800Y454736D02*
Y450800D01*
X245768D01*
X246424Y451456D01*
Y454080D01*
X245768Y454736D01*
X243800D01*
X250360D02*
X247736D01*
Y452768D01*
X249048Y453424D01*
X249704D01*
X250360Y452768D01*
Y451456D01*
X249704Y450800D01*
X248392D01*
X247736Y451456D01*
X352720Y443968D02*
Y440032D01*
X354688D01*
X355344Y440688D01*
Y443312D01*
X354688Y443968D01*
X352720D01*
X358624Y440032D02*
Y443968D01*
X356656Y442000D01*
X359280D01*
X119900Y372736D02*
Y368800D01*
X121868D01*
X122524Y369456D01*
Y372080D01*
X121868Y372736D01*
X119900D01*
X123836Y372080D02*
X124492Y372736D01*
X125804D01*
X126460Y372080D01*
Y371424D01*
X125804Y370768D01*
X125148D01*
X125804D01*
X126460Y370112D01*
Y369456D01*
X125804Y368800D01*
X124492D01*
X123836Y369456D01*
X183032Y416327D02*
X186968D01*
Y418294D01*
X186312Y418950D01*
X183688D01*
X183032Y418294D01*
Y416327D01*
X186968Y422886D02*
Y420262D01*
X184344Y422886D01*
X183688D01*
X183032Y422230D01*
Y420918D01*
X183688Y420262D01*
X183032Y429376D02*
X186968D01*
Y431344D01*
X186312Y432000D01*
X183688D01*
X183032Y431344D01*
Y429376D01*
X186968Y433312D02*
Y434624D01*
Y433968D01*
X183032D01*
X183688Y433312D01*
M02*
