G04*
G04 #@! TF.GenerationSoftware,Altium Limited,Altium Designer,23.8.1 (32)*
G04*
G04 Layer_Color=32896*
%FSLAX25Y25*%
%MOIN*%
G70*
G04*
G04 #@! TF.SameCoordinates,D6E9CDF8-AAC3-469D-917B-50C59DE8B454*
G04*
G04*
G04 #@! TF.FilePolarity,Positive*
G04*
G01*
G75*
%ADD13C,0.01000*%
G36*
X374241Y538498D02*
X374278D01*
Y538425D01*
X374314D01*
Y538353D01*
X374351D01*
Y538280D01*
X374387D01*
Y538207D01*
X374424D01*
Y538134D01*
X374460D01*
Y538061D01*
X374496D01*
Y537988D01*
X374533D01*
Y537915D01*
X374569D01*
Y537842D01*
X374606D01*
Y537769D01*
X374642D01*
Y537660D01*
X374679D01*
Y537587D01*
X374715D01*
Y537514D01*
X374751D01*
Y537441D01*
X374788D01*
Y537368D01*
X374824D01*
Y537295D01*
X374861D01*
Y537223D01*
X373950D01*
Y537259D01*
X373913D01*
Y537295D01*
X373877D01*
Y537332D01*
X373840D01*
Y537368D01*
X373804D01*
Y537405D01*
X373767D01*
Y537441D01*
X373731D01*
Y537478D01*
X373694D01*
Y537514D01*
X373658D01*
Y537551D01*
X373622D01*
Y537587D01*
X373585D01*
Y537624D01*
X373549D01*
Y537660D01*
X373512D01*
Y537733D01*
X373476D01*
Y537769D01*
X373439D01*
Y537806D01*
X373403D01*
Y537842D01*
X373366D01*
Y537879D01*
X373330D01*
Y537915D01*
X373293D01*
Y537952D01*
X373257D01*
Y537988D01*
X373221D01*
Y538025D01*
X373184D01*
Y538061D01*
X373148D01*
Y538097D01*
X373111D01*
Y538134D01*
X373075D01*
Y538170D01*
X373038D01*
Y538207D01*
X373002D01*
Y538243D01*
X372965D01*
Y538280D01*
X372929D01*
Y538316D01*
X372892D01*
Y538353D01*
X372856D01*
Y538389D01*
X372820D01*
Y538462D01*
X372783D01*
Y538498D01*
X372747D01*
Y538535D01*
X372710D01*
Y538571D01*
X374241D01*
Y538498D01*
D02*
G37*
G36*
X367170Y529713D02*
X367133D01*
Y529677D01*
X365930D01*
Y530661D01*
X365967D01*
Y532411D01*
X366003D01*
Y534124D01*
X366040D01*
Y534780D01*
X366003D01*
Y534634D01*
X365967D01*
Y534489D01*
X365930D01*
Y534343D01*
X365894D01*
Y534161D01*
X365857D01*
Y534015D01*
X365821D01*
Y533869D01*
X365784D01*
Y533723D01*
X365748D01*
Y533541D01*
X365711D01*
Y533395D01*
X365675D01*
Y533249D01*
X365639D01*
Y533104D01*
X365602D01*
Y532958D01*
X365566D01*
Y532775D01*
X365529D01*
Y532630D01*
X365493D01*
Y532484D01*
X365456D01*
Y532338D01*
X365420D01*
Y532156D01*
X365383D01*
Y532010D01*
X365347D01*
Y531864D01*
X365311D01*
Y531718D01*
X365274D01*
Y531536D01*
X365238D01*
Y531390D01*
X365201D01*
Y531245D01*
X365165D01*
Y531099D01*
X365128D01*
Y530916D01*
X365092D01*
Y530771D01*
X365055D01*
Y530625D01*
X365019D01*
Y530479D01*
X364983D01*
Y530297D01*
X364946D01*
Y530151D01*
X364910D01*
Y530005D01*
X364873D01*
Y529859D01*
X364837D01*
Y529713D01*
X364800D01*
Y529677D01*
X363196D01*
Y529713D01*
X363160D01*
Y536676D01*
X364363D01*
Y535582D01*
X364326D01*
Y534124D01*
X364290D01*
Y532666D01*
X364253D01*
Y531718D01*
X364290D01*
Y531864D01*
X364326D01*
Y532046D01*
X364363D01*
Y532192D01*
X364399D01*
Y532338D01*
X364436D01*
Y532484D01*
X364472D01*
Y532630D01*
X364509D01*
Y532775D01*
X364545D01*
Y532921D01*
X364581D01*
Y533067D01*
X364618D01*
Y533213D01*
X364654D01*
Y533359D01*
X364691D01*
Y533504D01*
X364727D01*
Y533650D01*
X364764D01*
Y533796D01*
X364800D01*
Y533978D01*
X364837D01*
Y534124D01*
X364873D01*
Y534270D01*
X364910D01*
Y534416D01*
X364946D01*
Y534562D01*
X364983D01*
Y534707D01*
X365019D01*
Y534853D01*
X365055D01*
Y534999D01*
X365092D01*
Y535145D01*
X365128D01*
Y535291D01*
X365165D01*
Y535436D01*
X365201D01*
Y535582D01*
X365238D01*
Y535765D01*
X365274D01*
Y535874D01*
Y535910D01*
X365311D01*
Y536056D01*
X365347D01*
Y536202D01*
X365383D01*
Y536348D01*
X365420D01*
Y536493D01*
X365456D01*
Y536639D01*
X365493D01*
Y536676D01*
X367170D01*
Y529713D01*
D02*
G37*
G36*
X370304Y536785D02*
X370523D01*
Y536749D01*
X370633D01*
Y536712D01*
X370742D01*
Y536676D01*
X370851D01*
Y536639D01*
X370924D01*
Y536603D01*
X370997D01*
Y536566D01*
X371070D01*
Y536530D01*
X371106D01*
Y536493D01*
X371179D01*
Y536457D01*
X371216D01*
Y536421D01*
X371252D01*
Y536384D01*
X371289D01*
Y536348D01*
X371325D01*
Y536311D01*
X371361D01*
Y536275D01*
X371398D01*
Y536238D01*
X371434D01*
Y536202D01*
X371471D01*
Y536166D01*
X371507D01*
Y536093D01*
X371544D01*
Y536056D01*
X371580D01*
Y535947D01*
X371617D01*
Y535874D01*
X371653D01*
Y535728D01*
X371690D01*
Y535546D01*
X371726D01*
Y535108D01*
X371762D01*
Y530916D01*
X371726D01*
Y530661D01*
X371690D01*
Y530515D01*
X371653D01*
Y530406D01*
X371617D01*
Y530333D01*
X371580D01*
Y530260D01*
X371544D01*
Y530224D01*
X371507D01*
Y530151D01*
X371471D01*
Y530115D01*
X371434D01*
Y530078D01*
X371398D01*
Y530042D01*
X371361D01*
Y530005D01*
X371325D01*
Y529969D01*
X371289D01*
Y529932D01*
X371216D01*
Y529896D01*
X371179D01*
Y529859D01*
X371106D01*
Y529823D01*
X371070D01*
Y529786D01*
X370997D01*
Y529750D01*
X370888D01*
Y529713D01*
X370815D01*
Y529677D01*
X370669D01*
Y529641D01*
X370560D01*
Y529604D01*
X370377D01*
Y529568D01*
X370086D01*
Y529531D01*
X369466D01*
Y529568D01*
X369247D01*
Y529604D01*
X369065D01*
Y529641D01*
X368956D01*
Y529677D01*
X368846D01*
Y529713D01*
X368737D01*
Y529750D01*
X368664D01*
Y529786D01*
X368591D01*
Y529823D01*
X368555D01*
Y529859D01*
X368482D01*
Y529896D01*
X368445D01*
Y529932D01*
X368373D01*
Y529969D01*
X368336D01*
Y530005D01*
X368300D01*
Y530042D01*
X368263D01*
Y530078D01*
X368227D01*
Y530115D01*
X368190D01*
Y530187D01*
X368154D01*
Y530224D01*
X368117D01*
Y530297D01*
X368081D01*
Y530370D01*
X368044D01*
Y530442D01*
X368008D01*
Y530515D01*
Y530552D01*
X367971D01*
Y530698D01*
X367935D01*
Y530989D01*
X367899D01*
Y532302D01*
X367935D01*
Y532338D01*
X369174D01*
Y532302D01*
X369211D01*
Y530916D01*
X369247D01*
Y530807D01*
X369284D01*
Y530771D01*
X369320D01*
Y530698D01*
X369357D01*
Y530661D01*
X369430D01*
Y530625D01*
X369466D01*
Y530588D01*
X369612D01*
Y530552D01*
X370013D01*
Y530588D01*
X370122D01*
Y530625D01*
X370195D01*
Y530661D01*
X370232D01*
Y530698D01*
X370268D01*
Y530734D01*
X370304D01*
Y530771D01*
X370341D01*
Y530843D01*
X370377D01*
Y530953D01*
X370414D01*
Y535473D01*
X370377D01*
Y535546D01*
X370341D01*
Y535619D01*
X370304D01*
Y535692D01*
X370268D01*
Y535728D01*
X370195D01*
Y535765D01*
X370159D01*
Y535801D01*
X370013D01*
Y535837D01*
X369648D01*
Y535801D01*
X369502D01*
Y535765D01*
X369430D01*
Y535728D01*
X369393D01*
Y535692D01*
X369357D01*
Y535655D01*
X369320D01*
Y535619D01*
X369284D01*
Y535546D01*
X369247D01*
Y535436D01*
X369211D01*
Y534161D01*
X369174D01*
Y534124D01*
X367899D01*
Y535582D01*
X367935D01*
Y535801D01*
X367971D01*
Y535910D01*
X368008D01*
Y535983D01*
X368044D01*
Y536093D01*
X368081D01*
Y536129D01*
X368117D01*
Y536202D01*
X368154D01*
Y536238D01*
X368190D01*
Y536275D01*
X368227D01*
Y536311D01*
X368263D01*
Y536348D01*
X368300D01*
Y536384D01*
X368336D01*
Y536421D01*
X368373D01*
Y536457D01*
X368409D01*
Y536493D01*
X368445D01*
Y536530D01*
X368518D01*
Y536566D01*
X368555D01*
Y536603D01*
X368628D01*
Y536639D01*
X368737D01*
Y536676D01*
X368810D01*
Y536712D01*
X368919D01*
Y536749D01*
X369065D01*
Y536785D01*
X369247D01*
Y536822D01*
X370304D01*
Y536785D01*
D02*
G37*
G36*
X358567D02*
X358749D01*
Y536749D01*
X358895D01*
Y536712D01*
X359004D01*
Y536676D01*
X359114D01*
Y536639D01*
X359187D01*
Y536603D01*
X359260D01*
Y536566D01*
X359296D01*
Y536530D01*
X359369D01*
Y536493D01*
X359405D01*
Y536457D01*
X359478D01*
Y536421D01*
X359515D01*
Y536384D01*
X359551D01*
Y536348D01*
X359588D01*
Y536311D01*
X359624D01*
Y536275D01*
X359661D01*
Y536238D01*
X359697D01*
Y536202D01*
X359733D01*
Y536129D01*
X359770D01*
Y536093D01*
X359806D01*
Y536020D01*
X359843D01*
Y535910D01*
X359879D01*
Y535837D01*
X359916D01*
Y535692D01*
X359952D01*
Y535436D01*
X359989D01*
Y530698D01*
X359952D01*
Y530552D01*
X359916D01*
Y530442D01*
X359879D01*
Y530370D01*
X359843D01*
Y530297D01*
X359806D01*
Y530224D01*
X359770D01*
Y530187D01*
X359733D01*
Y530151D01*
X359697D01*
Y530078D01*
X359661D01*
Y530042D01*
X359624D01*
Y530005D01*
X359588D01*
Y529969D01*
X359515D01*
Y529932D01*
X359478D01*
Y529896D01*
X359442D01*
Y529859D01*
X359369D01*
Y529823D01*
X359296D01*
Y529786D01*
X359223D01*
Y529750D01*
X359150D01*
Y529713D01*
X359041D01*
Y529677D01*
X358931D01*
Y529641D01*
X358786D01*
Y529604D01*
X358603D01*
Y529568D01*
X358348D01*
Y529531D01*
X357729D01*
Y529568D01*
X357473D01*
Y529604D01*
X357328D01*
Y529641D01*
X357182D01*
Y529677D01*
X357072D01*
Y529713D01*
X356999D01*
Y529750D01*
X356927D01*
Y529786D01*
X356854D01*
Y529823D01*
X356781D01*
Y529859D01*
X356744D01*
Y529896D01*
X356672D01*
Y529932D01*
X356635D01*
Y529969D01*
X356598D01*
Y530005D01*
X356562D01*
Y530042D01*
X356526D01*
Y530078D01*
X356489D01*
Y530115D01*
X356453D01*
Y530151D01*
X356416D01*
Y530224D01*
X356380D01*
Y530260D01*
X356343D01*
Y530333D01*
X356307D01*
Y530406D01*
X356271D01*
Y530515D01*
X356234D01*
Y530661D01*
X356198D01*
Y530843D01*
X356161D01*
Y532338D01*
X357437D01*
Y531099D01*
X357473D01*
Y530880D01*
X357510D01*
Y530807D01*
X357546D01*
Y530734D01*
X357583D01*
Y530698D01*
X357619D01*
Y530661D01*
X357656D01*
Y530625D01*
X357729D01*
Y530588D01*
X357838D01*
Y530552D01*
X358275D01*
Y530588D01*
X358385D01*
Y530625D01*
X358421D01*
Y530661D01*
X358494D01*
Y530698D01*
X358530D01*
Y530734D01*
X358567D01*
Y530807D01*
X358603D01*
Y530880D01*
X358640D01*
Y531026D01*
X358676D01*
Y535400D01*
X358640D01*
Y535546D01*
X358603D01*
Y535619D01*
X358567D01*
Y535655D01*
X358530D01*
Y535692D01*
X358494D01*
Y535728D01*
X358458D01*
Y535765D01*
X358385D01*
Y535801D01*
X358275D01*
Y535837D01*
X357911D01*
Y535801D01*
X357765D01*
Y535765D01*
X357692D01*
Y535728D01*
X357619D01*
Y535692D01*
X357583D01*
Y535619D01*
X357546D01*
Y535582D01*
X357510D01*
Y535473D01*
X357473D01*
Y535291D01*
X357437D01*
Y534124D01*
X356161D01*
Y535692D01*
X356198D01*
Y535837D01*
X356234D01*
Y535947D01*
X356271D01*
Y536020D01*
X356307D01*
Y536093D01*
X356343D01*
Y536166D01*
X356380D01*
Y536202D01*
X356416D01*
Y536275D01*
X356453D01*
Y536311D01*
X356489D01*
Y536348D01*
X356526D01*
Y536384D01*
X356562D01*
Y536421D01*
X356598D01*
Y536457D01*
X356672D01*
Y536493D01*
X356708D01*
Y536530D01*
X356744D01*
Y536566D01*
X356817D01*
Y536603D01*
X356890D01*
Y536639D01*
X356963D01*
Y536676D01*
X357072D01*
Y536712D01*
X357182D01*
Y536749D01*
X357328D01*
Y536785D01*
X357510D01*
Y536822D01*
X358567D01*
Y536785D01*
D02*
G37*
G36*
X394982Y529677D02*
X393670D01*
Y532338D01*
Y532374D01*
Y532593D01*
X392212D01*
Y532630D01*
X391957D01*
Y532666D01*
X391847D01*
Y532702D01*
X391738D01*
Y532739D01*
X391665D01*
Y532775D01*
X391629D01*
Y532812D01*
X391556D01*
Y532848D01*
X391519D01*
Y532885D01*
X391483D01*
Y532921D01*
X391446D01*
Y532994D01*
X391410D01*
Y533031D01*
X391373D01*
Y533104D01*
X391337D01*
Y533176D01*
X391301D01*
Y533286D01*
X391264D01*
Y533432D01*
X391228D01*
Y533796D01*
X391191D01*
Y535473D01*
X391228D01*
Y535801D01*
X391264D01*
Y535983D01*
X391301D01*
Y536093D01*
X391337D01*
Y536166D01*
X391373D01*
Y536238D01*
X391410D01*
Y536275D01*
X391446D01*
Y536311D01*
X391483D01*
Y536348D01*
X391519D01*
Y536384D01*
X391556D01*
Y536421D01*
X391592D01*
Y536457D01*
X391629D01*
Y536493D01*
X391665D01*
Y536530D01*
X391738D01*
Y536566D01*
X391811D01*
Y536603D01*
X391920D01*
Y536639D01*
X392030D01*
Y536676D01*
X394982D01*
Y529677D01*
D02*
G37*
G36*
X385723D02*
X382516D01*
Y530734D01*
X382552D01*
Y530771D01*
X384411D01*
Y536202D01*
Y536238D01*
Y536676D01*
X385723D01*
Y529677D01*
D02*
G37*
G36*
X382005D02*
X380730D01*
Y529713D01*
X380693D01*
Y536676D01*
X382005D01*
Y529677D01*
D02*
G37*
G36*
X380219Y535655D02*
X378907D01*
Y529677D01*
X377631D01*
Y529713D01*
X377595D01*
Y531427D01*
Y531463D01*
Y535655D01*
X376319D01*
Y536676D01*
X380219D01*
Y535655D01*
D02*
G37*
G36*
X375809Y529677D02*
X372309D01*
Y530771D01*
X374496D01*
Y531317D01*
Y531354D01*
Y532921D01*
X372528D01*
Y533978D01*
X374496D01*
Y535619D01*
X372419D01*
Y536676D01*
X375809D01*
Y529677D01*
D02*
G37*
G36*
X362212D02*
X360900D01*
Y535546D01*
Y535582D01*
Y536676D01*
X362212D01*
Y529677D01*
D02*
G37*
G36*
X389041Y536785D02*
X389259D01*
Y536749D01*
X389405D01*
Y536712D01*
X389514D01*
Y536676D01*
X389624D01*
Y536639D01*
X389697D01*
Y536603D01*
X389770D01*
Y536566D01*
X389843D01*
Y536530D01*
X389915D01*
Y536493D01*
X389952D01*
Y536457D01*
X390025D01*
Y536421D01*
X390061D01*
Y536384D01*
X390098D01*
Y536348D01*
X390134D01*
Y536311D01*
X390171D01*
Y536275D01*
X390207D01*
Y536238D01*
X390244D01*
Y536166D01*
X390280D01*
Y536129D01*
X390316D01*
Y536056D01*
X390353D01*
Y535983D01*
X390389D01*
Y535874D01*
X390426D01*
Y535765D01*
X390462D01*
Y535619D01*
X390499D01*
Y535254D01*
X390535D01*
Y531135D01*
X390499D01*
Y530734D01*
X390462D01*
Y530588D01*
X390426D01*
Y530479D01*
X390389D01*
Y530370D01*
X390353D01*
Y530297D01*
X390316D01*
Y530260D01*
X390280D01*
Y530187D01*
X390244D01*
Y530151D01*
X390207D01*
Y530115D01*
X390171D01*
Y530078D01*
X390134D01*
Y530042D01*
X390098D01*
Y530005D01*
X390061D01*
Y529969D01*
X390025D01*
Y529932D01*
X389988D01*
Y529896D01*
X389915D01*
Y529859D01*
X389879D01*
Y529823D01*
X389806D01*
Y529786D01*
X389733D01*
Y529750D01*
X389660D01*
Y529713D01*
X389587D01*
Y529677D01*
X389478D01*
Y529641D01*
X389369D01*
Y529604D01*
X389186D01*
Y529568D01*
X388931D01*
Y529531D01*
X388202D01*
Y529568D01*
X387911D01*
Y529604D01*
X387765D01*
Y529641D01*
X387655D01*
Y529677D01*
X387546D01*
Y529713D01*
X387437D01*
Y529750D01*
X387364D01*
Y529786D01*
X387291D01*
Y529823D01*
X387255D01*
Y529859D01*
X387182D01*
Y529896D01*
X387145D01*
Y529932D01*
X387109D01*
Y529969D01*
X387072D01*
Y530005D01*
X387036D01*
Y530042D01*
X386999D01*
Y530078D01*
X386963D01*
Y530115D01*
X386926D01*
Y530151D01*
X386890D01*
Y530187D01*
X386854D01*
Y530260D01*
X386817D01*
Y530333D01*
X386781D01*
Y530406D01*
X386744D01*
Y530479D01*
X386708D01*
Y530625D01*
X386671D01*
Y530807D01*
X386635D01*
Y535546D01*
X386671D01*
Y535728D01*
X386708D01*
Y535837D01*
X386744D01*
Y535947D01*
X386781D01*
Y536020D01*
X386817D01*
Y536093D01*
X386854D01*
Y536166D01*
X386890D01*
Y536202D01*
X386926D01*
Y536238D01*
X386963D01*
Y536275D01*
X386999D01*
Y536311D01*
X387036D01*
Y536348D01*
X387072D01*
Y536384D01*
X387109D01*
Y536421D01*
X387145D01*
Y536457D01*
X387218D01*
Y536493D01*
X387255D01*
Y536530D01*
X387327D01*
Y536566D01*
X387364D01*
Y536603D01*
X387437D01*
Y536639D01*
X387546D01*
Y536676D01*
X387619D01*
Y536712D01*
X387728D01*
Y536749D01*
X387874D01*
Y536785D01*
X388056D01*
Y536822D01*
X389041D01*
Y536785D01*
D02*
G37*
G36*
X354011D02*
X354193D01*
Y536749D01*
X354339D01*
Y536712D01*
X354448D01*
Y536676D01*
X354557D01*
Y536639D01*
X354630D01*
Y536603D01*
X354703D01*
Y536566D01*
X354776D01*
Y536530D01*
X354849D01*
Y536493D01*
X354885D01*
Y536457D01*
X354958D01*
Y536421D01*
X354995D01*
Y536384D01*
X355031D01*
Y536348D01*
X355068D01*
Y536311D01*
X355104D01*
Y536275D01*
X355140D01*
Y536238D01*
X355177D01*
Y536202D01*
X355213D01*
Y536129D01*
X355250D01*
Y536056D01*
X355286D01*
Y535983D01*
X355323D01*
Y535910D01*
X355359D01*
Y535801D01*
X355396D01*
Y535655D01*
X355432D01*
Y535436D01*
X355469D01*
Y530916D01*
X355432D01*
Y530698D01*
X355396D01*
Y530552D01*
X355359D01*
Y530442D01*
X355323D01*
Y530370D01*
X355286D01*
Y530297D01*
X355250D01*
Y530224D01*
X355213D01*
Y530187D01*
X355177D01*
Y530151D01*
X355140D01*
Y530078D01*
X355104D01*
Y530042D01*
X355068D01*
Y530005D01*
X355031D01*
Y529969D01*
X354958D01*
Y529932D01*
X354922D01*
Y529896D01*
X354885D01*
Y529859D01*
X354812D01*
Y529823D01*
X354776D01*
Y529786D01*
X354703D01*
Y529750D01*
X354630D01*
Y529713D01*
X354521D01*
Y529677D01*
X354412D01*
Y529641D01*
X354302D01*
Y529604D01*
X354156D01*
Y529568D01*
X353865D01*
Y529531D01*
X353136D01*
Y529568D01*
X352881D01*
Y529604D01*
X352698D01*
Y529641D01*
X352589D01*
Y529677D01*
X352480D01*
Y529713D01*
X352407D01*
Y529750D01*
X352334D01*
Y529786D01*
X352261D01*
Y529823D01*
X352188D01*
Y529859D01*
X352151D01*
Y529896D01*
X352079D01*
Y529932D01*
X352042D01*
Y529969D01*
X352006D01*
Y530005D01*
X351969D01*
Y530042D01*
X351933D01*
Y530078D01*
X351896D01*
Y530115D01*
X351860D01*
Y530151D01*
X351823D01*
Y530224D01*
X351787D01*
Y530260D01*
X351750D01*
Y530333D01*
X351714D01*
Y530442D01*
X351678D01*
Y530552D01*
X351641D01*
Y530661D01*
X351605D01*
Y530916D01*
X351568D01*
Y535436D01*
X351605D01*
Y535692D01*
X351641D01*
Y535837D01*
X351678D01*
Y535910D01*
X351714D01*
Y536020D01*
X351750D01*
Y536093D01*
X351787D01*
Y536129D01*
X351823D01*
Y536202D01*
X351860D01*
Y536238D01*
X351896D01*
Y536275D01*
X351933D01*
Y536311D01*
X351969D01*
Y536348D01*
X352006D01*
Y536384D01*
X352042D01*
Y536421D01*
X352115D01*
Y536457D01*
X352151D01*
Y536493D01*
X352188D01*
Y536530D01*
X352261D01*
Y536566D01*
X352334D01*
Y536603D01*
X352407D01*
Y536639D01*
X352480D01*
Y536676D01*
X352589D01*
Y536712D01*
X352698D01*
Y536749D01*
X352844D01*
Y536785D01*
X353026D01*
Y536822D01*
X354011D01*
Y536785D01*
D02*
G37*
G36*
X412333Y521330D02*
X396914D01*
Y524027D01*
Y524063D01*
Y536749D01*
X412333D01*
Y521330D01*
D02*
G37*
G36*
X394982D02*
X393378D01*
Y521366D01*
X393160D01*
Y521403D01*
X393050D01*
Y521439D01*
X392977D01*
Y521475D01*
X392904D01*
Y521512D01*
X392868D01*
Y521548D01*
X392795D01*
Y521585D01*
X392759D01*
Y521621D01*
X392722D01*
Y521694D01*
X392686D01*
Y521731D01*
X392649D01*
Y521804D01*
X392613D01*
Y521876D01*
X392577D01*
Y521986D01*
X392540D01*
Y522131D01*
X392503D01*
Y525084D01*
X392540D01*
Y525230D01*
X392577D01*
Y525303D01*
X392613D01*
Y525412D01*
X392649D01*
Y525449D01*
X392686D01*
Y525485D01*
X392722D01*
Y525558D01*
X392759D01*
Y525594D01*
X392795D01*
Y525631D01*
X392832D01*
Y525667D01*
X392904D01*
Y525704D01*
X392941D01*
Y525740D01*
X393014D01*
Y525777D01*
X393087D01*
Y525813D01*
X393233D01*
Y525850D01*
X394982D01*
Y521330D01*
D02*
G37*
G36*
X391920D02*
X389660D01*
Y522059D01*
X391082D01*
Y523407D01*
X389843D01*
Y523444D01*
X389806D01*
Y524100D01*
X389843D01*
Y524136D01*
X391082D01*
Y525157D01*
X389733D01*
Y525850D01*
X391920D01*
Y521330D01*
D02*
G37*
G36*
X387072Y521366D02*
X387036D01*
Y521330D01*
X383864D01*
Y522423D01*
X385760D01*
Y524136D01*
Y524173D01*
Y528328D01*
X387072D01*
Y521366D01*
D02*
G37*
G36*
X383354Y521330D02*
X379855D01*
Y522423D01*
X382042D01*
Y524574D01*
X380073D01*
Y525631D01*
X382042D01*
Y527271D01*
X379928D01*
Y527964D01*
Y528000D01*
Y528328D01*
X383354D01*
Y521330D01*
D02*
G37*
G36*
X379235Y528219D02*
Y528183D01*
Y521366D01*
X379199D01*
Y521330D01*
X377923D01*
Y528328D01*
X379235D01*
Y528219D01*
D02*
G37*
G36*
X376939Y521330D02*
X375663D01*
Y524428D01*
X375152D01*
Y524319D01*
X375116D01*
Y524209D01*
X375080D01*
Y524100D01*
X375043D01*
Y523954D01*
X375007D01*
Y523845D01*
X374970D01*
Y523735D01*
X374934D01*
Y523626D01*
X374897D01*
Y523517D01*
X374861D01*
Y523407D01*
X374824D01*
Y523298D01*
X374788D01*
Y523189D01*
X374751D01*
Y523043D01*
X374715D01*
Y522933D01*
X374679D01*
Y522824D01*
X374642D01*
Y522715D01*
X374606D01*
Y522605D01*
X374569D01*
Y522496D01*
X374533D01*
Y522387D01*
X374496D01*
Y522241D01*
X374460D01*
Y522131D01*
X374424D01*
Y522022D01*
X374387D01*
Y521913D01*
X374351D01*
Y521804D01*
X374314D01*
Y521694D01*
X374278D01*
Y521585D01*
X374241D01*
Y521475D01*
X374205D01*
Y521366D01*
X374168D01*
Y521330D01*
X372856D01*
Y521439D01*
X372892D01*
Y521548D01*
X372929D01*
Y521658D01*
X372965D01*
Y521804D01*
X373002D01*
Y521913D01*
X373038D01*
Y522022D01*
X373075D01*
Y522131D01*
X373111D01*
Y522241D01*
X373148D01*
Y522350D01*
X373184D01*
Y522460D01*
X373221D01*
Y522569D01*
X373257D01*
Y522678D01*
X373293D01*
Y522788D01*
X373330D01*
Y522897D01*
X373366D01*
Y523006D01*
X373403D01*
Y523116D01*
X373439D01*
Y523225D01*
X373476D01*
Y523334D01*
X373512D01*
Y523444D01*
X373549D01*
Y523553D01*
X373585D01*
Y523663D01*
X373622D01*
Y523772D01*
X373658D01*
Y523881D01*
X373694D01*
Y523991D01*
X373731D01*
Y524100D01*
X373767D01*
Y524209D01*
X373804D01*
Y524319D01*
X373840D01*
Y524428D01*
X373877D01*
Y524537D01*
X373913D01*
Y524647D01*
X373804D01*
Y524683D01*
X373694D01*
Y524720D01*
X373622D01*
Y524756D01*
X373549D01*
Y524792D01*
X373512D01*
Y524829D01*
X373439D01*
Y524865D01*
X373403D01*
Y524902D01*
X373366D01*
Y524938D01*
X373330D01*
Y525011D01*
X373293D01*
Y525048D01*
X373257D01*
Y525121D01*
X373221D01*
Y525194D01*
X373184D01*
Y525303D01*
X373148D01*
Y525449D01*
X373111D01*
Y527417D01*
X373148D01*
Y527599D01*
X373184D01*
Y527709D01*
X373221D01*
Y527781D01*
X373257D01*
Y527854D01*
X373293D01*
Y527927D01*
X373330D01*
Y527964D01*
X373366D01*
Y528000D01*
X373403D01*
Y528037D01*
X373439D01*
Y528073D01*
X373476D01*
Y528110D01*
X373512D01*
Y528146D01*
X373585D01*
Y528183D01*
X373658D01*
Y528219D01*
X373731D01*
Y528255D01*
X373840D01*
Y528292D01*
X373986D01*
Y528328D01*
X376939D01*
Y521330D01*
D02*
G37*
G36*
X372200D02*
X370924D01*
Y524865D01*
Y524902D01*
Y528328D01*
X372200D01*
Y521330D01*
D02*
G37*
G36*
X368992Y528183D02*
X369029D01*
Y528000D01*
X369065D01*
Y527818D01*
X369102D01*
Y527636D01*
X369138D01*
Y527454D01*
X369174D01*
Y527235D01*
X369211D01*
Y527052D01*
X369247D01*
Y526870D01*
X369284D01*
Y526688D01*
X369320D01*
Y526506D01*
X369357D01*
Y526324D01*
X369393D01*
Y526141D01*
X369430D01*
Y525922D01*
X369466D01*
Y525740D01*
X369502D01*
Y525558D01*
X369539D01*
Y525376D01*
X369575D01*
Y525194D01*
X369612D01*
Y525011D01*
X369648D01*
Y524792D01*
X369685D01*
Y524610D01*
X369721D01*
Y524428D01*
X369758D01*
Y524246D01*
X369794D01*
Y524063D01*
X369830D01*
Y523881D01*
X369867D01*
Y523663D01*
X369903D01*
Y523480D01*
X369940D01*
Y523298D01*
X369976D01*
Y523116D01*
X370013D01*
Y522933D01*
X370049D01*
Y522751D01*
X370086D01*
Y522569D01*
X370122D01*
Y522350D01*
X370159D01*
Y522168D01*
X370195D01*
Y521986D01*
X370232D01*
Y521804D01*
X370268D01*
Y521621D01*
X370304D01*
Y521439D01*
X370341D01*
Y521330D01*
X369029D01*
Y521512D01*
X368992D01*
Y521548D01*
Y521731D01*
X368956D01*
Y521949D01*
X368919D01*
Y522168D01*
X368883D01*
Y522387D01*
X368846D01*
Y522460D01*
X367680D01*
Y522387D01*
X367643D01*
Y522168D01*
X367607D01*
Y521913D01*
X367570D01*
Y521658D01*
X367534D01*
Y521403D01*
X367498D01*
Y521330D01*
X366185D01*
Y521439D01*
X366222D01*
Y521658D01*
X366258D01*
Y521840D01*
X366295D01*
Y522022D01*
X366331D01*
Y522241D01*
X366368D01*
Y522423D01*
X366404D01*
Y522642D01*
X366441D01*
Y522824D01*
X366477D01*
Y523006D01*
X366513D01*
Y523225D01*
X366550D01*
Y523407D01*
X366586D01*
Y523590D01*
X366623D01*
Y523808D01*
X366659D01*
Y523991D01*
X366696D01*
Y524173D01*
X366732D01*
Y524392D01*
X366769D01*
Y524574D01*
X366805D01*
Y524756D01*
X366842D01*
Y524975D01*
X366878D01*
Y525157D01*
X366914D01*
Y525339D01*
X366951D01*
Y525558D01*
X366987D01*
Y525740D01*
X367024D01*
Y525922D01*
X367060D01*
Y526141D01*
X367097D01*
Y526324D01*
X367133D01*
Y526542D01*
X367170D01*
Y526724D01*
X367206D01*
Y526907D01*
X367243D01*
Y527125D01*
X367279D01*
Y527308D01*
X367315D01*
Y527490D01*
X367352D01*
Y527709D01*
X367388D01*
Y527891D01*
X367425D01*
Y528073D01*
X367461D01*
Y528292D01*
X367498D01*
Y528328D01*
X368992D01*
Y528183D01*
D02*
G37*
%LPC*%
G36*
X393670Y535655D02*
X392832D01*
Y535619D01*
X392722D01*
Y535582D01*
X392649D01*
Y535546D01*
X392613D01*
Y535509D01*
X392577D01*
Y535473D01*
X392540D01*
Y535400D01*
X392503D01*
Y534562D01*
Y534525D01*
Y533869D01*
X392540D01*
Y533760D01*
X392577D01*
Y533723D01*
X392613D01*
Y533687D01*
X392686D01*
Y533650D01*
X392759D01*
Y533614D01*
X393670D01*
Y535655D01*
D02*
G37*
G36*
X388786Y535837D02*
X388312D01*
Y535801D01*
X388239D01*
Y535765D01*
X388166D01*
Y535728D01*
X388129D01*
Y535692D01*
X388093D01*
Y535655D01*
X388056D01*
Y535582D01*
X388020D01*
Y535509D01*
X387983D01*
Y535400D01*
X387947D01*
Y530989D01*
X387983D01*
Y530880D01*
X388020D01*
Y530807D01*
X388056D01*
Y530771D01*
X388093D01*
Y530734D01*
X388129D01*
Y530698D01*
X388166D01*
Y530661D01*
X388239D01*
Y530625D01*
X388312D01*
Y530588D01*
X388457D01*
Y530552D01*
X388713D01*
Y530588D01*
X388858D01*
Y530625D01*
X388931D01*
Y530661D01*
X389004D01*
Y530698D01*
X389041D01*
Y530734D01*
X389077D01*
Y530771D01*
X389113D01*
Y530843D01*
X389150D01*
Y530953D01*
X389186D01*
Y535072D01*
X389223D01*
Y535145D01*
X389186D01*
Y535291D01*
Y535327D01*
Y535436D01*
X389150D01*
Y535546D01*
X389113D01*
Y535582D01*
X389077D01*
Y535655D01*
X389041D01*
Y535692D01*
X388968D01*
Y535728D01*
X388931D01*
Y535765D01*
X388858D01*
Y535801D01*
X388786D01*
Y535837D01*
D02*
G37*
G36*
X353719D02*
X353281D01*
Y535801D01*
X353172D01*
Y535765D01*
X353136D01*
Y535728D01*
X353063D01*
Y535655D01*
X353026D01*
Y535619D01*
X352990D01*
Y535546D01*
X352953D01*
Y535473D01*
X352917D01*
Y535327D01*
X352881D01*
Y531062D01*
X352917D01*
Y530916D01*
X352953D01*
Y530843D01*
X352990D01*
Y530771D01*
X353026D01*
Y530734D01*
X353063D01*
Y530698D01*
X353099D01*
Y530661D01*
X353172D01*
Y530625D01*
X353245D01*
Y530588D01*
X353391D01*
Y530552D01*
X353646D01*
Y530588D01*
X353792D01*
Y530625D01*
X353901D01*
Y530661D01*
X353938D01*
Y530698D01*
X353974D01*
Y530734D01*
X354011D01*
Y530771D01*
X354047D01*
Y530807D01*
X354083D01*
Y530916D01*
X354120D01*
Y531062D01*
X354156D01*
Y535254D01*
Y535291D01*
Y535327D01*
X354120D01*
Y535473D01*
X354083D01*
Y535546D01*
X354047D01*
Y535619D01*
X354011D01*
Y535655D01*
X353974D01*
Y535692D01*
X353938D01*
Y535728D01*
X353865D01*
Y535765D01*
X353828D01*
Y535801D01*
X353719D01*
Y535837D01*
D02*
G37*
G36*
X404970Y534124D02*
X404314D01*
Y534088D01*
X403949D01*
Y534051D01*
X403694D01*
Y534015D01*
X403512D01*
Y533978D01*
X403366D01*
Y533942D01*
X403257D01*
Y533906D01*
X403111D01*
Y533869D01*
X403002D01*
Y533833D01*
X402892D01*
Y533796D01*
X402819D01*
Y533760D01*
X402710D01*
Y533723D01*
X402637D01*
Y533687D01*
X402564D01*
Y533650D01*
X402455D01*
Y533614D01*
X402382D01*
Y533577D01*
X402309D01*
Y533541D01*
X402273D01*
Y533504D01*
X402200D01*
Y533468D01*
X402127D01*
Y533432D01*
X402054D01*
Y533395D01*
X402017D01*
Y533359D01*
X401945D01*
Y533322D01*
X401872D01*
Y533286D01*
X401835D01*
Y533249D01*
X401762D01*
Y533213D01*
X401726D01*
Y533176D01*
X401689D01*
Y533140D01*
X401616D01*
Y533104D01*
X401580D01*
Y533067D01*
X401544D01*
Y533031D01*
X401471D01*
Y532994D01*
X401434D01*
Y532958D01*
X401398D01*
Y532921D01*
X401361D01*
Y532885D01*
X401288D01*
Y532848D01*
X401252D01*
Y532812D01*
X401216D01*
Y532775D01*
X401179D01*
Y532739D01*
X401143D01*
Y532702D01*
X401106D01*
Y532666D01*
X401070D01*
Y532630D01*
X401033D01*
Y532593D01*
X400997D01*
Y532557D01*
X400960D01*
Y532520D01*
X400924D01*
Y532484D01*
X400887D01*
Y532447D01*
X400851D01*
Y532411D01*
X400815D01*
Y532338D01*
X400778D01*
Y532302D01*
X400742D01*
Y532265D01*
X400705D01*
Y532229D01*
X400669D01*
Y532156D01*
X400632D01*
Y532119D01*
X400596D01*
Y532083D01*
X400559D01*
Y532010D01*
X400523D01*
Y531974D01*
X400487D01*
Y531937D01*
X400450D01*
Y531864D01*
X400414D01*
Y531828D01*
X400377D01*
Y531755D01*
X400341D01*
Y531682D01*
X400304D01*
Y531645D01*
X400268D01*
Y531572D01*
X400231D01*
Y531500D01*
X400195D01*
Y531427D01*
X400158D01*
Y531390D01*
X400122D01*
Y531317D01*
X400085D01*
Y531245D01*
X400049D01*
Y531135D01*
X400013D01*
Y531062D01*
X399976D01*
Y530989D01*
X399940D01*
Y530880D01*
X399903D01*
Y530807D01*
X399867D01*
Y530698D01*
X399830D01*
Y530588D01*
X399794D01*
Y530479D01*
X399758D01*
Y530333D01*
X399721D01*
Y530187D01*
X399685D01*
Y530005D01*
X399648D01*
Y529786D01*
X399612D01*
Y529458D01*
X399575D01*
Y528656D01*
X399612D01*
Y528328D01*
X399648D01*
Y528110D01*
X399685D01*
Y527927D01*
X399721D01*
Y527781D01*
X399758D01*
Y527636D01*
X399794D01*
Y527526D01*
X399830D01*
Y527417D01*
X399867D01*
Y527308D01*
X399903D01*
Y527198D01*
X399940D01*
Y527125D01*
X399976D01*
Y527016D01*
X400013D01*
Y526943D01*
X400049D01*
Y526870D01*
X400085D01*
Y526797D01*
X400122D01*
Y526724D01*
X400158D01*
Y526652D01*
X400195D01*
Y526579D01*
X400231D01*
Y526506D01*
X400268D01*
Y526469D01*
X400304D01*
Y526396D01*
X400341D01*
Y526324D01*
X400377D01*
Y526287D01*
X400414D01*
Y526214D01*
X400450D01*
Y526178D01*
X400487D01*
Y526105D01*
X400523D01*
Y526068D01*
X400559D01*
Y526032D01*
X400596D01*
Y525959D01*
X400632D01*
Y525922D01*
X400669D01*
Y525886D01*
X400705D01*
Y525850D01*
X400742D01*
Y525777D01*
X400778D01*
Y525740D01*
X400815D01*
Y525704D01*
X400851D01*
Y525667D01*
X400887D01*
Y525631D01*
X400924D01*
Y525594D01*
X400960D01*
Y525558D01*
X400997D01*
Y525522D01*
X401033D01*
Y525485D01*
X401070D01*
Y525449D01*
X401106D01*
Y525412D01*
X401143D01*
Y525376D01*
X401179D01*
Y525339D01*
X401216D01*
Y525303D01*
X401252D01*
Y525266D01*
X401288D01*
Y525230D01*
X401325D01*
Y525194D01*
X401361D01*
Y525157D01*
X401434D01*
Y525121D01*
X401471D01*
Y525084D01*
X401507D01*
Y525048D01*
X401544D01*
Y525011D01*
X401616D01*
Y524975D01*
X401653D01*
Y524938D01*
X401689D01*
Y524902D01*
X401762D01*
Y524865D01*
X401799D01*
Y524829D01*
X401872D01*
Y524792D01*
X401908D01*
Y524756D01*
X401981D01*
Y524720D01*
X402054D01*
Y524683D01*
X402090D01*
Y524647D01*
X402163D01*
Y524610D01*
X402236D01*
Y524574D01*
X402309D01*
Y524537D01*
X402382D01*
Y524501D01*
X402455D01*
Y524464D01*
X402528D01*
Y524428D01*
X402601D01*
Y524392D01*
X402674D01*
Y524355D01*
X402783D01*
Y524319D01*
X402856D01*
Y524282D01*
X402965D01*
Y524246D01*
X403075D01*
Y524209D01*
X403184D01*
Y524173D01*
X403330D01*
Y524136D01*
X403476D01*
Y524100D01*
X403621D01*
Y524063D01*
X403840D01*
Y524027D01*
X404132D01*
Y523991D01*
X405152D01*
Y524027D01*
X405444D01*
Y524063D01*
X405626D01*
Y524100D01*
X405808D01*
Y524136D01*
X405954D01*
Y524173D01*
X406064D01*
Y524209D01*
X406209D01*
Y524246D01*
X406319D01*
Y524282D01*
X406392D01*
Y524319D01*
X406501D01*
Y524355D01*
X406574D01*
Y524392D01*
X406683D01*
Y524428D01*
X406756D01*
Y524464D01*
X406829D01*
Y524501D01*
X406902D01*
Y524537D01*
X406975D01*
Y524574D01*
X407048D01*
Y524610D01*
X407121D01*
Y524647D01*
X407157D01*
Y524683D01*
X407230D01*
Y524720D01*
X407303D01*
Y524756D01*
X407339D01*
Y524792D01*
X407412D01*
Y524829D01*
X407449D01*
Y524865D01*
X407522D01*
Y524902D01*
X407558D01*
Y524938D01*
X407631D01*
Y524975D01*
X407667D01*
Y525011D01*
X407704D01*
Y525048D01*
X407777D01*
Y525084D01*
X407813D01*
Y525121D01*
X407850D01*
Y525157D01*
X407886D01*
Y525194D01*
X407923D01*
Y525230D01*
X407996D01*
Y525266D01*
X408032D01*
Y525303D01*
X408068D01*
Y525339D01*
X408105D01*
Y525376D01*
X408141D01*
Y525412D01*
X408178D01*
Y525449D01*
X408214D01*
Y525485D01*
X408251D01*
Y525522D01*
X408287D01*
Y525558D01*
X408324D01*
Y525594D01*
X408360D01*
Y525631D01*
X408396D01*
Y525667D01*
X408433D01*
Y525740D01*
X408469D01*
Y525777D01*
X408506D01*
Y525813D01*
X408542D01*
Y525850D01*
X408579D01*
Y525886D01*
X408615D01*
Y525959D01*
X408652D01*
Y525995D01*
X408688D01*
Y526032D01*
X408725D01*
Y526105D01*
X408761D01*
Y526141D01*
X408798D01*
Y526214D01*
X408834D01*
Y526251D01*
X408870D01*
Y526324D01*
X408907D01*
Y526360D01*
X408943D01*
Y526433D01*
X408980D01*
Y526506D01*
X409016D01*
Y526542D01*
X409053D01*
Y526615D01*
X409089D01*
Y526688D01*
X409126D01*
Y526761D01*
X409162D01*
Y526834D01*
X409199D01*
Y526907D01*
X409235D01*
Y526980D01*
X409271D01*
Y527052D01*
X409308D01*
Y527162D01*
X409344D01*
Y527235D01*
X409381D01*
Y527344D01*
X409417D01*
Y527454D01*
X409454D01*
Y527563D01*
X409490D01*
Y527709D01*
X409526D01*
Y527854D01*
X409563D01*
Y528000D01*
X409599D01*
Y528183D01*
X409636D01*
Y528438D01*
X409672D01*
Y529641D01*
X409636D01*
Y529896D01*
X409599D01*
Y530115D01*
X409563D01*
Y530260D01*
X409526D01*
Y530406D01*
X409490D01*
Y530515D01*
X409454D01*
Y530661D01*
X409417D01*
Y530734D01*
X409381D01*
Y530843D01*
X409344D01*
Y530953D01*
X409308D01*
Y531026D01*
X409271D01*
Y531099D01*
X409235D01*
Y531208D01*
X409199D01*
Y531281D01*
X409162D01*
Y531354D01*
X409126D01*
Y531427D01*
X409089D01*
Y531463D01*
X409053D01*
Y531536D01*
X409016D01*
Y531609D01*
X408980D01*
Y531682D01*
X408943D01*
Y531718D01*
X408907D01*
Y531791D01*
X408870D01*
Y531828D01*
X408834D01*
Y531901D01*
X408798D01*
Y531937D01*
X408761D01*
Y532010D01*
X408725D01*
Y532046D01*
X408688D01*
Y532119D01*
X408652D01*
Y532156D01*
X408615D01*
Y532192D01*
X408579D01*
Y532229D01*
X408542D01*
Y532302D01*
X408506D01*
Y532338D01*
X408469D01*
Y532374D01*
X408433D01*
Y532411D01*
X408396D01*
Y532447D01*
X408360D01*
Y532484D01*
X408324D01*
Y532520D01*
X408287D01*
Y532557D01*
X408251D01*
Y532593D01*
X408214D01*
Y532630D01*
X408178D01*
Y532666D01*
X408141D01*
Y532702D01*
X408105D01*
Y532739D01*
X408068D01*
Y532775D01*
X408032D01*
Y532812D01*
X407996D01*
Y532848D01*
X407959D01*
Y532885D01*
X407923D01*
Y532921D01*
X407886D01*
Y532958D01*
X407813D01*
Y532994D01*
X407777D01*
Y533031D01*
X407740D01*
Y533067D01*
X407704D01*
Y533104D01*
X407631D01*
Y533140D01*
X407595D01*
Y533176D01*
X407558D01*
Y533213D01*
X407485D01*
Y533249D01*
X407449D01*
Y533286D01*
X407376D01*
Y533322D01*
X407339D01*
Y533359D01*
X407267D01*
Y533395D01*
X407194D01*
Y533432D01*
X407157D01*
Y533468D01*
X407084D01*
Y533504D01*
X407011D01*
Y533541D01*
X406939D01*
Y533577D01*
X406866D01*
Y533614D01*
X406793D01*
Y533650D01*
X406720D01*
Y533687D01*
X406647D01*
Y533723D01*
X406537D01*
Y533760D01*
X406465D01*
Y533796D01*
X406355D01*
Y533833D01*
X406246D01*
Y533869D01*
X406137D01*
Y533906D01*
X406027D01*
Y533942D01*
X405881D01*
Y533978D01*
X405735D01*
Y534015D01*
X405553D01*
Y534051D01*
X405335D01*
Y534088D01*
X404970D01*
Y534124D01*
D02*
G37*
%LPD*%
G36*
X405007Y532520D02*
X405262D01*
Y532484D01*
X405444D01*
Y532447D01*
X405590D01*
Y532411D01*
X405699D01*
Y532374D01*
X405808D01*
Y532338D01*
X405918D01*
Y532302D01*
X405991D01*
Y532265D01*
X406064D01*
Y532229D01*
X406173D01*
Y532192D01*
X406246D01*
Y532156D01*
X406282D01*
Y532119D01*
X406355D01*
Y532083D01*
X406428D01*
Y532046D01*
X406501D01*
Y532010D01*
X406537D01*
Y531974D01*
X406610D01*
Y531937D01*
X406647D01*
Y531901D01*
X406683D01*
Y531864D01*
X406756D01*
Y531828D01*
X406793D01*
Y531791D01*
X406829D01*
Y531755D01*
X406866D01*
Y531718D01*
X406939D01*
Y531682D01*
X406975D01*
Y531645D01*
X407011D01*
Y531609D01*
X407048D01*
Y531572D01*
X407084D01*
Y531536D01*
X407121D01*
Y531500D01*
X407157D01*
Y531463D01*
X407194D01*
Y531427D01*
X407230D01*
Y531390D01*
X407267D01*
Y531354D01*
X407303D01*
Y531281D01*
X407339D01*
Y531245D01*
X407376D01*
Y531208D01*
X407412D01*
Y531172D01*
X407449D01*
Y531099D01*
X407485D01*
Y531062D01*
X407522D01*
Y530989D01*
X407558D01*
Y530953D01*
X407595D01*
Y530880D01*
X407631D01*
Y530843D01*
X407667D01*
Y530771D01*
X407704D01*
Y530698D01*
X407740D01*
Y530625D01*
X407777D01*
Y530552D01*
X407813D01*
Y530479D01*
X407850D01*
Y530406D01*
X407886D01*
Y530297D01*
X407923D01*
Y530187D01*
X407959D01*
Y530078D01*
X407996D01*
Y529969D01*
X408032D01*
Y529823D01*
X408068D01*
Y529641D01*
X408105D01*
Y529313D01*
X408141D01*
Y528766D01*
X408105D01*
Y528474D01*
X408068D01*
Y528292D01*
X408032D01*
Y528146D01*
X407996D01*
Y528000D01*
X407959D01*
Y527891D01*
X407923D01*
Y527818D01*
X407886D01*
Y527709D01*
X407850D01*
Y527636D01*
X407813D01*
Y527526D01*
X407777D01*
Y527454D01*
X407740D01*
Y527381D01*
X407704D01*
Y527344D01*
X407667D01*
Y527271D01*
X407631D01*
Y527198D01*
X407595D01*
Y527162D01*
X407558D01*
Y527089D01*
X407522D01*
Y527052D01*
X407485D01*
Y526980D01*
X407449D01*
Y526943D01*
X407412D01*
Y526907D01*
X407376D01*
Y526834D01*
X407339D01*
Y526797D01*
X407303D01*
Y526761D01*
X407267D01*
Y526724D01*
X407230D01*
Y526688D01*
X407194D01*
Y526652D01*
X407157D01*
Y526615D01*
X407121D01*
Y526579D01*
X407084D01*
Y526542D01*
X407048D01*
Y526506D01*
X407011D01*
Y526469D01*
X406975D01*
Y526433D01*
X406939D01*
Y526396D01*
X406902D01*
Y526360D01*
X406866D01*
Y526324D01*
X406829D01*
Y526287D01*
X406756D01*
Y526251D01*
X406720D01*
Y526214D01*
X406683D01*
Y526178D01*
X406610D01*
Y526141D01*
X406574D01*
Y526105D01*
X406501D01*
Y526068D01*
X406465D01*
Y526032D01*
X406392D01*
Y525995D01*
X406319D01*
Y525959D01*
X406246D01*
Y525922D01*
X406173D01*
Y525886D01*
X406100D01*
Y525850D01*
X406027D01*
Y525813D01*
X405954D01*
Y525777D01*
X405845D01*
Y525740D01*
X405735D01*
Y525704D01*
X405626D01*
Y525667D01*
X405480D01*
Y525631D01*
X405335D01*
Y525594D01*
X405116D01*
Y525558D01*
X404132D01*
Y525594D01*
X403913D01*
Y525631D01*
X403767D01*
Y525667D01*
X403658D01*
Y525704D01*
X403512D01*
Y525740D01*
X403439D01*
Y525777D01*
X403330D01*
Y525813D01*
X403220D01*
Y525850D01*
X403148D01*
Y525886D01*
X403075D01*
Y525922D01*
X403002D01*
Y525959D01*
X402929D01*
Y525995D01*
X402892D01*
Y526032D01*
X402819D01*
Y526068D01*
X402746D01*
Y526105D01*
X402710D01*
Y526141D01*
X402637D01*
Y526178D01*
X402601D01*
Y526214D01*
X402564D01*
Y526251D01*
X402491D01*
Y526287D01*
X402455D01*
Y526324D01*
X402418D01*
Y526360D01*
X402382D01*
Y526396D01*
X402309D01*
Y526433D01*
X402273D01*
Y526469D01*
X402236D01*
Y526506D01*
X402200D01*
Y526542D01*
X402163D01*
Y526579D01*
X402127D01*
Y526615D01*
X402090D01*
Y526652D01*
X402054D01*
Y526688D01*
X402017D01*
Y526724D01*
X401981D01*
Y526797D01*
X401945D01*
Y526834D01*
X401908D01*
Y526870D01*
X401872D01*
Y526907D01*
X401835D01*
Y526980D01*
X401799D01*
Y527016D01*
X401762D01*
Y527052D01*
X401726D01*
Y527125D01*
X401689D01*
Y527162D01*
X401653D01*
Y527235D01*
X401616D01*
Y527308D01*
X401580D01*
Y527381D01*
X401544D01*
Y527417D01*
X401507D01*
Y527490D01*
X401471D01*
Y527599D01*
X401434D01*
Y527672D01*
X401398D01*
Y527745D01*
X401361D01*
Y527854D01*
X401325D01*
Y527964D01*
X401288D01*
Y528073D01*
X401252D01*
Y528219D01*
X401216D01*
Y528365D01*
X401179D01*
Y528583D01*
X401143D01*
Y529495D01*
X401179D01*
Y529713D01*
X401216D01*
Y529896D01*
X401252D01*
Y530005D01*
X401288D01*
Y530151D01*
X401325D01*
Y530260D01*
X401361D01*
Y530333D01*
X401398D01*
Y530442D01*
X401434D01*
Y530515D01*
X401471D01*
Y530588D01*
X401507D01*
Y530661D01*
X401544D01*
Y530734D01*
X401580D01*
Y530807D01*
X401616D01*
Y530880D01*
X401653D01*
Y530916D01*
X401689D01*
Y530989D01*
X401726D01*
Y531026D01*
X401762D01*
Y531099D01*
X401799D01*
Y531135D01*
X401835D01*
Y531172D01*
X401872D01*
Y531245D01*
X401908D01*
Y531281D01*
X401945D01*
Y531317D01*
X401981D01*
Y531354D01*
X402017D01*
Y531390D01*
X402054D01*
Y531427D01*
X402090D01*
Y531463D01*
X402127D01*
Y531500D01*
X402163D01*
Y531536D01*
X402200D01*
Y531572D01*
X402236D01*
Y531609D01*
X402273D01*
Y531645D01*
X402309D01*
Y531682D01*
X402346D01*
Y531718D01*
X402382D01*
Y531755D01*
X402418D01*
Y531791D01*
X402455D01*
Y531828D01*
X402528D01*
Y531864D01*
X402564D01*
Y531901D01*
X402601D01*
Y531937D01*
X402674D01*
Y531974D01*
X402710D01*
Y532010D01*
X402783D01*
Y532046D01*
X402856D01*
Y532083D01*
X402892D01*
Y532119D01*
X402965D01*
Y532156D01*
X403038D01*
Y532192D01*
X403111D01*
Y532229D01*
X403184D01*
Y532265D01*
X403257D01*
Y532302D01*
X403366D01*
Y532338D01*
X403476D01*
Y532374D01*
X403585D01*
Y532411D01*
X403694D01*
Y532447D01*
X403840D01*
Y532484D01*
X404022D01*
Y532520D01*
X404241D01*
Y532557D01*
X405007D01*
Y532520D01*
D02*
G37*
%LPC*%
G36*
X406866Y529932D02*
X406465D01*
Y529896D01*
X406355D01*
Y529859D01*
X406282D01*
Y529823D01*
X406209D01*
Y529786D01*
X406137D01*
Y529750D01*
X406100D01*
Y529713D01*
X406064D01*
Y529677D01*
X406027D01*
Y529641D01*
X405991D01*
Y529604D01*
X405954D01*
Y529531D01*
X405918D01*
Y529495D01*
X405881D01*
Y529422D01*
X405845D01*
Y529313D01*
X405808D01*
Y529167D01*
X405772D01*
Y528948D01*
X405808D01*
Y528766D01*
X405845D01*
Y528693D01*
X405881D01*
Y528620D01*
X405918D01*
Y528547D01*
X405954D01*
Y528511D01*
X405991D01*
Y528474D01*
X406027D01*
Y528438D01*
X406064D01*
Y528401D01*
X406100D01*
Y528365D01*
X406137D01*
Y528328D01*
X406173D01*
Y528292D01*
X406246D01*
Y528255D01*
X406319D01*
Y528219D01*
X406428D01*
Y528183D01*
X406902D01*
Y528219D01*
X407011D01*
Y528255D01*
X407084D01*
Y528292D01*
X407157D01*
Y528328D01*
X407194D01*
Y528365D01*
X407230D01*
Y528401D01*
X407303D01*
Y528438D01*
X407339D01*
Y528511D01*
X407376D01*
Y528547D01*
X407412D01*
Y528583D01*
Y528620D01*
X407449D01*
Y528693D01*
X407485D01*
Y528766D01*
X407522D01*
Y528912D01*
X407558D01*
Y529167D01*
X407522D01*
Y529349D01*
X407485D01*
Y529422D01*
X407449D01*
Y529495D01*
X407412D01*
Y529568D01*
X407376D01*
Y529604D01*
X407339D01*
Y529641D01*
X407303D01*
Y529677D01*
X407267D01*
Y529713D01*
X407230D01*
Y529750D01*
X407194D01*
Y529786D01*
X407121D01*
Y529823D01*
X407048D01*
Y529859D01*
X406975D01*
Y529896D01*
X406866D01*
Y529932D01*
D02*
G37*
G36*
X394144Y525194D02*
X393597D01*
Y525157D01*
X393488D01*
Y525121D01*
X393451D01*
Y525084D01*
X393415D01*
Y525048D01*
X393378D01*
Y524975D01*
X393342D01*
Y523881D01*
Y523845D01*
Y522277D01*
X393378D01*
Y522168D01*
X393415D01*
Y522131D01*
X393451D01*
Y522095D01*
X393488D01*
Y522059D01*
X393561D01*
Y522022D01*
X394144D01*
Y525194D01*
D02*
G37*
G36*
X375663Y527344D02*
X374861D01*
Y527308D01*
X374642D01*
Y527271D01*
X374569D01*
Y527235D01*
X374533D01*
Y527198D01*
X374496D01*
Y527162D01*
X374460D01*
Y527089D01*
X374424D01*
Y526943D01*
X374387D01*
Y525922D01*
X374424D01*
Y525777D01*
X374460D01*
Y525704D01*
X374496D01*
Y525631D01*
X374533D01*
Y525594D01*
X374569D01*
Y525558D01*
X374642D01*
Y525522D01*
X374751D01*
Y525485D01*
X375663D01*
Y527344D01*
D02*
G37*
G36*
X368263Y526433D02*
X368227D01*
Y526360D01*
X368190D01*
Y526105D01*
X368154D01*
Y526068D01*
Y525850D01*
X368117D01*
Y525594D01*
X368081D01*
Y525339D01*
X368044D01*
Y525048D01*
X368008D01*
Y524792D01*
X367971D01*
Y524537D01*
X367935D01*
Y524282D01*
X367899D01*
Y524027D01*
X367862D01*
Y523772D01*
X367826D01*
Y523590D01*
X368664D01*
Y523845D01*
X368628D01*
Y524063D01*
X368591D01*
Y524319D01*
X368555D01*
Y524537D01*
X368518D01*
Y524792D01*
X368482D01*
Y525011D01*
X368445D01*
Y525230D01*
X368409D01*
Y525485D01*
X368373D01*
Y525704D01*
X368336D01*
Y525959D01*
X368300D01*
Y526178D01*
X368263D01*
Y526433D01*
D02*
G37*
%LPD*%
D13*
X305548Y489074D02*
X442826Y488974D01*
X440358Y478204D02*
X441670D01*
X442326Y477548D01*
Y474925D01*
X441670Y474269D01*
X440358D01*
X439702Y474925D01*
Y477548D01*
X440358Y478204D01*
X438390Y476893D02*
Y474269D01*
Y475581D01*
X437734Y476236D01*
X437078Y476893D01*
X436422D01*
X434454Y474269D02*
X433142D01*
X433798D01*
Y476893D01*
X434454D01*
X429207Y474269D02*
X430519D01*
X431175Y474925D01*
Y476236D01*
X430519Y476893D01*
X429207D01*
X428551Y476236D01*
Y475581D01*
X431175D01*
X427239Y474269D02*
Y476893D01*
X425271D01*
X424615Y476236D01*
Y474269D01*
X422647Y477548D02*
Y476893D01*
X423303D01*
X421991D01*
X422647D01*
Y474925D01*
X421991Y474269D01*
X419367Y476893D02*
X418055D01*
X417400Y476236D01*
Y474269D01*
X419367D01*
X420023Y474925D01*
X419367Y475581D01*
X417400D01*
X413464Y478204D02*
Y474269D01*
X415432D01*
X416087Y474925D01*
Y476236D01*
X415432Y476893D01*
X413464D01*
X411496Y474269D02*
X410184D01*
X409528Y474925D01*
Y476236D01*
X410184Y476893D01*
X411496D01*
X412152Y476236D01*
Y474925D01*
X411496Y474269D01*
X404280D02*
Y478204D01*
X402312D01*
X401656Y477548D01*
Y476236D01*
X402312Y475581D01*
X404280D01*
X399689Y474269D02*
X398377D01*
X397721Y474925D01*
Y476236D01*
X398377Y476893D01*
X399689D01*
X400345Y476236D01*
Y474925D01*
X399689Y474269D01*
X396409Y476893D02*
Y474269D01*
Y475581D01*
X395753Y476236D01*
X395097Y476893D01*
X394441D01*
X392473D02*
X391817D01*
Y476236D01*
X392473D01*
Y476893D01*
Y474925D02*
X391817D01*
Y474269D01*
X392473D01*
Y474925D01*
X442326Y462208D02*
Y458272D01*
X440358D01*
X439702Y458928D01*
Y461552D01*
X440358Y462208D01*
X442326D01*
X437734Y458272D02*
X436422D01*
X435766Y458928D01*
Y460240D01*
X436422Y460896D01*
X437734D01*
X438390Y460240D01*
Y458928D01*
X437734Y458272D01*
X434454Y460896D02*
Y458928D01*
X433798Y458272D01*
X431831D01*
Y460896D01*
X429863Y461552D02*
Y460896D01*
X430519D01*
X429207D01*
X429863D01*
Y458928D01*
X429207Y458272D01*
X426583D02*
X425271D01*
X424615Y458928D01*
Y460240D01*
X425271Y460896D01*
X426583D01*
X427239Y460240D01*
Y458928D01*
X426583Y458272D01*
X423303Y460896D02*
Y458272D01*
Y459584D01*
X422647Y460240D01*
X421991Y460896D01*
X421335D01*
X418711D02*
X417399D01*
X416744Y460240D01*
Y458272D01*
X418711D01*
X419367Y458928D01*
X418711Y459584D01*
X416744D01*
X411496Y458272D02*
Y462208D01*
X408872Y458272D01*
Y462208D01*
X406904Y460896D02*
X405592D01*
X404936Y460240D01*
Y458272D01*
X406904D01*
X407560Y458928D01*
X406904Y459584D01*
X404936D01*
X402968Y461552D02*
Y460896D01*
X403624D01*
X402312D01*
X402968D01*
Y458928D01*
X402312Y458272D01*
X399689Y460896D02*
X398377D01*
X397721Y460240D01*
Y458272D01*
X399689D01*
X400345Y458928D01*
X399689Y459584D01*
X397721D01*
X396409Y458272D02*
X395097D01*
X395753D01*
Y462208D01*
X396409D01*
X393129Y458272D02*
X391817D01*
X392473D01*
Y460896D01*
X393129D01*
X389193D02*
X387881D01*
X387226Y460240D01*
Y458272D01*
X389193D01*
X389849Y458928D01*
X389193Y459584D01*
X387226D01*
X379354Y461552D02*
X380010Y462208D01*
X381322D01*
X381978Y461552D01*
Y458928D01*
X381322Y458272D01*
X380010D01*
X379354Y458928D01*
Y460240D01*
X380666D01*
X377386Y460896D02*
X376074D01*
X375418Y460240D01*
Y458272D01*
X377386D01*
X378042Y458928D01*
X377386Y459584D01*
X375418D01*
X374106Y458272D02*
Y460896D01*
X373450D01*
X372794Y460240D01*
Y458272D01*
Y460240D01*
X372139Y460896D01*
X371482Y460240D01*
Y458272D01*
X368203D02*
X369515D01*
X370171Y458928D01*
Y460240D01*
X369515Y460896D01*
X368203D01*
X367547Y460240D01*
Y459584D01*
X370171D01*
X366235Y458272D02*
X364923D01*
X365579D01*
Y460896D01*
X366235D01*
X362955D02*
Y458272D01*
Y459584D01*
X362299Y460240D01*
X361643Y460896D01*
X360987D01*
X358363Y458272D02*
X357051D01*
X356396Y458928D01*
Y460240D01*
X357051Y460896D01*
X358363D01*
X359019Y460240D01*
Y458928D01*
X358363Y458272D01*
X442326Y470206D02*
Y466270D01*
X440358D01*
X439702Y466926D01*
Y469550D01*
X440358Y470206D01*
X442326D01*
X437734Y466270D02*
X436422D01*
X435766Y466926D01*
Y468238D01*
X436422Y468894D01*
X437734D01*
X438390Y468238D01*
Y466926D01*
X437734Y466270D01*
X434454Y468894D02*
Y466926D01*
X433798Y466270D01*
X431831D01*
Y468894D01*
X429863Y469550D02*
Y468894D01*
X430519D01*
X429207D01*
X429863D01*
Y466926D01*
X429207Y466270D01*
X426583D02*
X425271D01*
X424615Y466926D01*
Y468238D01*
X425271Y468894D01*
X426583D01*
X427239Y468238D01*
Y466926D01*
X426583Y466270D01*
X423303Y468894D02*
Y466270D01*
Y467582D01*
X422647Y468238D01*
X421991Y468894D01*
X421335D01*
X415432Y470206D02*
Y466270D01*
X412808D01*
X411496Y468894D02*
Y466926D01*
X410840Y466270D01*
X408872D01*
Y468894D01*
X407560Y466270D02*
X406248D01*
X406904D01*
Y468894D01*
X407560D01*
X404280Y466270D02*
X402312D01*
X401656Y466926D01*
X402312Y467582D01*
X403624D01*
X404280Y468238D01*
X403624Y468894D01*
X401656D01*
X396409Y466270D02*
Y470206D01*
X393785Y466270D01*
Y470206D01*
X390505Y466270D02*
X391817D01*
X392473Y466926D01*
Y468238D01*
X391817Y468894D01*
X390505D01*
X389849Y468238D01*
Y467582D01*
X392473D01*
X388537Y468894D02*
X387226Y466270D01*
X385913Y468894D01*
X382634Y466270D02*
X383946D01*
X384602Y466926D01*
Y468238D01*
X383946Y468894D01*
X382634D01*
X381978Y468238D01*
Y467582D01*
X384602D01*
X380666Y466270D02*
X378698D01*
X378042Y466926D01*
X378698Y467582D01*
X380010D01*
X380666Y468238D01*
X380010Y468894D01*
X378042D01*
X442326Y454210D02*
Y450274D01*
X440358D01*
X439702Y450930D01*
Y453554D01*
X440358Y454210D01*
X442326D01*
X437734Y450274D02*
X436422D01*
X435766Y450930D01*
Y452242D01*
X436422Y452898D01*
X437734D01*
X438390Y452242D01*
Y450930D01*
X437734Y450274D01*
X434454Y452898D02*
Y450930D01*
X433798Y450274D01*
X431831D01*
Y452898D01*
X429863Y453554D02*
Y452898D01*
X430519D01*
X429207D01*
X429863D01*
Y450930D01*
X429207Y450274D01*
X426583D02*
X425271D01*
X424615Y450930D01*
Y452242D01*
X425271Y452898D01*
X426583D01*
X427239Y452242D01*
Y450930D01*
X426583Y450274D01*
X423303Y452898D02*
Y450274D01*
Y451586D01*
X422647Y452242D01*
X421991Y452898D01*
X421335D01*
X415432Y450274D02*
Y454210D01*
X412808Y450274D01*
Y454210D01*
X411496Y452898D02*
Y450930D01*
X410840Y450274D01*
X408872D01*
Y452898D01*
X407560Y450274D02*
Y452898D01*
X405592D01*
X404936Y452242D01*
Y450274D01*
X402968D02*
X401656D01*
X401000Y450930D01*
Y452242D01*
X401656Y452898D01*
X402968D01*
X403624Y452242D01*
Y450930D01*
X402968Y450274D01*
X393129Y453554D02*
X393785Y454210D01*
X395097D01*
X395753Y453554D01*
Y450930D01*
X395097Y450274D01*
X393785D01*
X393129Y450930D01*
Y452242D01*
X394441D01*
X391817Y450274D02*
X390505D01*
X391161D01*
Y452898D01*
X391817D01*
X388537Y450274D02*
X387226D01*
X387881D01*
Y454210D01*
X388537D01*
X291924Y492574D02*
X294548D01*
X291924Y495198D01*
Y495854D01*
X292580Y496510D01*
X293892D01*
X294548Y495854D01*
X290612D02*
X289956Y496510D01*
X288644D01*
X287988Y495854D01*
Y493230D01*
X288644Y492574D01*
X289956D01*
X290612Y493230D01*
Y495854D01*
X284052Y492574D02*
X286676D01*
X284052Y495198D01*
Y495854D01*
X284708Y496510D01*
X286020D01*
X286676Y495854D01*
X280773Y492574D02*
Y496510D01*
X282741Y494542D01*
X280117D01*
X442326Y508886D02*
Y512821D01*
X440358D01*
X439702Y512165D01*
Y510853D01*
X440358Y510198D01*
X442326D01*
X438390Y511510D02*
Y508886D01*
Y510198D01*
X437734Y510853D01*
X437078Y511510D01*
X436422D01*
X433798Y508886D02*
X432486D01*
X431831Y509542D01*
Y510853D01*
X432486Y511510D01*
X433798D01*
X434454Y510853D01*
Y509542D01*
X433798Y508886D01*
X430519Y507574D02*
X429863D01*
X429207Y508230D01*
Y511510D01*
X424615Y508886D02*
X425927D01*
X426583Y509542D01*
Y510853D01*
X425927Y511510D01*
X424615D01*
X423959Y510853D01*
Y510198D01*
X426583D01*
X421991Y512165D02*
Y511510D01*
X422647D01*
X421335D01*
X421991D01*
Y509542D01*
X421335Y508886D01*
X418711D02*
X417399D01*
X416744Y509542D01*
Y510853D01*
X417399Y511510D01*
X418711D01*
X419367Y510853D01*
Y509542D01*
X418711Y508886D01*
X408872Y512821D02*
X411496D01*
Y510853D01*
X410184D01*
X411496D01*
Y508886D01*
X407560D02*
X406248D01*
X406904D01*
Y511510D01*
X407560D01*
X404280Y508886D02*
Y511510D01*
X402312D01*
X401656Y510853D01*
Y508886D01*
X399689Y511510D02*
X398377D01*
X397721Y510853D01*
Y508886D01*
X399689D01*
X400345Y509542D01*
X399689Y510198D01*
X397721D01*
X396409Y508886D02*
X395097D01*
X395753D01*
Y512821D01*
X396409D01*
X386569D02*
Y508886D01*
X388537D01*
X389193Y509542D01*
Y510853D01*
X388537Y511510D01*
X386569D01*
X383290Y508886D02*
X384602D01*
X385258Y509542D01*
Y510853D01*
X384602Y511510D01*
X383290D01*
X382634Y510853D01*
Y510198D01*
X385258D01*
X374762Y512165D02*
X375418Y512821D01*
X376730D01*
X377386Y512165D01*
Y509542D01*
X376730Y508886D01*
X375418D01*
X374762Y509542D01*
X373450Y511510D02*
Y509542D01*
X372794Y508886D01*
X370827D01*
Y511510D01*
X369515D02*
Y508886D01*
Y510198D01*
X368859Y510853D01*
X368203Y511510D01*
X367547D01*
X365579Y508886D02*
X363611D01*
X362955Y509542D01*
X363611Y510198D01*
X364923D01*
X365579Y510853D01*
X364923Y511510D01*
X362955D01*
X360987Y508886D02*
X359675D01*
X359019Y509542D01*
Y510853D01*
X359675Y511510D01*
X360987D01*
X361643Y510853D01*
Y509542D01*
X360987Y508886D01*
X442326Y482267D02*
Y486203D01*
X440358D01*
X439702Y485547D01*
Y484235D01*
X440358Y483579D01*
X442326D01*
X438390Y484891D02*
Y482267D01*
Y483579D01*
X437734Y484235D01*
X437078Y484891D01*
X436422D01*
X433798Y482267D02*
X432486D01*
X431831Y482923D01*
Y484235D01*
X432486Y484891D01*
X433798D01*
X434454Y484235D01*
Y482923D01*
X433798Y482267D01*
X430519Y480955D02*
X429863D01*
X429207Y481611D01*
Y484891D01*
X424615Y482267D02*
X425927D01*
X426583Y482923D01*
Y484235D01*
X425927Y484891D01*
X424615D01*
X423959Y484235D01*
Y483579D01*
X426583D01*
X421991Y485547D02*
Y484891D01*
X422647D01*
X421335D01*
X421991D01*
Y482923D01*
X421335Y482267D01*
X418711D02*
X417399D01*
X416744Y482923D01*
Y484235D01*
X417399Y484891D01*
X418711D01*
X419367Y484235D01*
Y482923D01*
X418711Y482267D01*
X408872Y486203D02*
Y482267D01*
X410840D01*
X411496Y482923D01*
Y484235D01*
X410840Y484891D01*
X408872D01*
X405592Y482267D02*
X406904D01*
X407560Y482923D01*
Y484235D01*
X406904Y484891D01*
X405592D01*
X404936Y484235D01*
Y483579D01*
X407560D01*
X403624Y484891D02*
X402968D01*
Y484235D01*
X403624D01*
Y484891D01*
Y482923D02*
X402968D01*
Y482267D01*
X403624D01*
Y482923D01*
X393785Y485547D02*
X394441Y486203D01*
X395753D01*
X396409Y485547D01*
Y482923D01*
X395753Y482267D01*
X394441D01*
X393785Y482923D01*
Y484235D01*
X395097D01*
X392473Y484891D02*
Y482923D01*
X391817Y482267D01*
X389849D01*
Y484891D01*
X388537Y482267D02*
X387226D01*
X387881D01*
Y484891D01*
X388537D01*
X385258Y482267D02*
X383946D01*
X384602D01*
Y486203D01*
X385258D01*
X381978D02*
Y482267D01*
Y484235D01*
X381322Y484891D01*
X380010D01*
X379354Y484235D01*
Y482267D01*
X376074D02*
X377386D01*
X378042Y482923D01*
Y484235D01*
X377386Y484891D01*
X376074D01*
X375418Y484235D01*
Y483579D01*
X378042D01*
X374106Y484891D02*
Y482267D01*
Y483579D01*
X373450Y484235D01*
X372794Y484891D01*
X372139D01*
X370171Y482267D02*
Y484891D01*
X369515D01*
X368859Y484235D01*
Y482267D01*
Y484235D01*
X368203Y484891D01*
X367547Y484235D01*
Y482267D01*
X364267D02*
X365579D01*
X366235Y482923D01*
Y484235D01*
X365579Y484891D01*
X364267D01*
X363611Y484235D01*
Y483579D01*
X366235D01*
X355739Y485547D02*
X356396Y486203D01*
X357707D01*
X358363Y485547D01*
Y482923D01*
X357707Y482267D01*
X356396D01*
X355739Y482923D01*
X353772Y484891D02*
X352460D01*
X351804Y484235D01*
Y482267D01*
X353772D01*
X354428Y482923D01*
X353772Y483579D01*
X351804D01*
X350492Y482267D02*
Y484891D01*
X348524D01*
X347868Y484235D01*
Y482267D01*
X343932Y486203D02*
Y482267D01*
X345900D01*
X346556Y482923D01*
Y484235D01*
X345900Y484891D01*
X343932D01*
X342620Y482267D02*
X341308D01*
X341964D01*
Y484891D01*
X342620D01*
X336717Y486203D02*
Y482267D01*
X338685D01*
X339341Y482923D01*
Y484235D01*
X338685Y484891D01*
X336717D01*
X334749Y482267D02*
X333437D01*
X332781Y482923D01*
Y484235D01*
X333437Y484891D01*
X334749D01*
X335405Y484235D01*
Y482923D01*
X334749Y482267D01*
X439702Y496169D02*
X440358Y496825D01*
X441670D01*
X442326Y496169D01*
Y493545D01*
X441670Y492889D01*
X440358D01*
X439702Y493545D01*
X437734Y492889D02*
X436422D01*
X435766Y493545D01*
Y494857D01*
X436422Y495513D01*
X437734D01*
X438390Y494857D01*
Y493545D01*
X437734Y492889D01*
X434454D02*
Y495513D01*
X432486D01*
X431831Y494857D01*
Y492889D01*
X430519Y495513D02*
X429207Y492889D01*
X427895Y495513D01*
X424615Y492889D02*
X425927D01*
X426583Y493545D01*
Y494857D01*
X425927Y495513D01*
X424615D01*
X423959Y494857D01*
Y494201D01*
X426583D01*
X422647Y495513D02*
Y492889D01*
Y494201D01*
X421991Y494857D01*
X421335Y495513D01*
X420679D01*
X418711Y492889D02*
X416744D01*
X416087Y493545D01*
X416744Y494201D01*
X418055D01*
X418711Y494857D01*
X418055Y495513D01*
X416087D01*
X414120Y492889D02*
X412808D01*
X412152Y493545D01*
Y494857D01*
X412808Y495513D01*
X414120D01*
X414776Y494857D01*
Y493545D01*
X414120Y492889D01*
X410840Y495513D02*
Y492889D01*
Y494201D01*
X410184Y494857D01*
X409528Y495513D01*
X408872D01*
X402968Y496825D02*
Y492889D01*
X401000D01*
X400345Y493545D01*
Y494201D01*
X401000Y494857D01*
X402968D01*
X401000D01*
X400345Y495513D01*
Y496169D01*
X401000Y496825D01*
X402968D01*
X399033Y492889D02*
X397721D01*
X398377D01*
Y495513D01*
X399033D01*
X395753Y494857D02*
X393129D01*
X391817Y496825D02*
Y492889D01*
X389849D01*
X389193Y493545D01*
Y496169D01*
X389849Y496825D01*
X391817D01*
X387881Y492889D02*
X386569D01*
X387225D01*
Y495513D01*
X387881D01*
X384602D02*
Y492889D01*
Y494201D01*
X383946Y494857D01*
X383290Y495513D01*
X382634D01*
X378698Y492889D02*
X380010D01*
X380666Y493545D01*
Y494857D01*
X380010Y495513D01*
X378698D01*
X378042Y494857D01*
Y494201D01*
X380666D01*
X374106Y495513D02*
X376074D01*
X376730Y494857D01*
Y493545D01*
X376074Y492889D01*
X374106D01*
X372794D02*
X371482D01*
X372138D01*
Y495513D01*
X372794D01*
X368859Y492889D02*
X367547D01*
X366891Y493545D01*
Y494857D01*
X367547Y495513D01*
X368859D01*
X369515Y494857D01*
Y493545D01*
X368859Y492889D01*
X365579D02*
Y495513D01*
X363611D01*
X362955Y494857D01*
Y492889D01*
X360987Y495513D02*
X359675D01*
X359019Y494857D01*
Y492889D01*
X360987D01*
X361643Y493545D01*
X360987Y494201D01*
X359019D01*
X357707Y492889D02*
X356396D01*
X357051D01*
Y496825D01*
X357707D01*
X350492Y494857D02*
X347868D01*
X342620Y492889D02*
Y496825D01*
X340652D01*
X339997Y496169D01*
Y494857D01*
X340652Y494201D01*
X342620D01*
X341308D02*
X339997Y492889D01*
X336717D02*
X338029D01*
X338685Y493545D01*
Y494857D01*
X338029Y495513D01*
X336717D01*
X336061Y494857D01*
Y494201D01*
X338685D01*
X334749Y492889D02*
X333437D01*
X334093D01*
Y496825D01*
X334749D01*
X330813Y495513D02*
X329501D01*
X328845Y494857D01*
Y492889D01*
X330813D01*
X331469Y493545D01*
X330813Y494201D01*
X328845D01*
X327533Y495513D02*
Y493545D01*
X326877Y492889D01*
X324910D01*
Y492233D01*
X325566Y491577D01*
X326221D01*
X324910Y492889D02*
Y495513D01*
X319662Y496825D02*
Y492889D01*
X317694D01*
X317038Y493545D01*
Y494201D01*
X317694Y494857D01*
X319662D01*
X317694D01*
X317038Y495513D01*
Y496169D01*
X317694Y496825D01*
X319662D01*
X315070Y492889D02*
X313758D01*
X313102Y493545D01*
Y494857D01*
X313758Y495513D01*
X315070D01*
X315726Y494857D01*
Y493545D01*
X315070Y492889D01*
X311135Y495513D02*
X309823D01*
X309167Y494857D01*
Y492889D01*
X311135D01*
X311790Y493545D01*
X311135Y494201D01*
X309167D01*
X307855Y495513D02*
Y492889D01*
Y494201D01*
X307199Y494857D01*
X306543Y495513D01*
X305887D01*
X301295Y496825D02*
Y492889D01*
X303263D01*
X303919Y493545D01*
Y494857D01*
X303263Y495513D01*
X301295D01*
X439702Y503511D02*
X442326D01*
Y499576D01*
X439702D01*
X442326Y501543D02*
X441014D01*
X438390Y499576D02*
Y502199D01*
X436422D01*
X435766Y501543D01*
Y499576D01*
X433142Y498264D02*
X432486D01*
X431831Y498919D01*
Y502199D01*
X433798D01*
X434454Y501543D01*
Y500231D01*
X433798Y499576D01*
X431831D01*
X428551D02*
X429863D01*
X430519Y500231D01*
Y501543D01*
X429863Y502199D01*
X428551D01*
X427895Y501543D01*
Y500887D01*
X430519D01*
X426583Y499576D02*
Y502199D01*
X424615D01*
X423959Y501543D01*
Y499576D01*
X422647Y503511D02*
Y499576D01*
Y501543D01*
X421991Y502199D01*
X420679D01*
X420023Y501543D01*
Y499576D01*
X418055Y502199D02*
X416744D01*
X416087Y501543D01*
Y499576D01*
X418055D01*
X418711Y500231D01*
X418055Y500887D01*
X416087D01*
X414776Y502199D02*
Y499576D01*
Y500887D01*
X414120Y501543D01*
X413464Y502199D01*
X412808D01*
X410840Y499576D02*
X409528D01*
X410184D01*
Y502199D01*
X410840D01*
X406904D02*
X405592D01*
X404936Y501543D01*
Y499576D01*
X406904D01*
X407560Y500231D01*
X406904Y500887D01*
X404936D01*
X397065Y503511D02*
X399689D01*
Y499576D01*
X397065D01*
X399689Y501543D02*
X398377D01*
X395753Y499576D02*
X394441D01*
X395097D01*
Y503511D01*
X395753D01*
X390505Y499576D02*
X391817D01*
X392473Y500231D01*
Y501543D01*
X391817Y502199D01*
X390505D01*
X389849Y501543D01*
Y500887D01*
X392473D01*
X387881Y502855D02*
Y502199D01*
X388537D01*
X387226D01*
X387881D01*
Y500231D01*
X387226Y499576D01*
X385258Y502199D02*
Y499576D01*
Y500887D01*
X384602Y501543D01*
X383946Y502199D01*
X383290D01*
X380666Y499576D02*
X379354D01*
X378698Y500231D01*
Y501543D01*
X379354Y502199D01*
X380666D01*
X381322Y501543D01*
Y500231D01*
X380666Y499576D01*
X376730Y502855D02*
Y502199D01*
X377386D01*
X376074D01*
X376730D01*
Y500231D01*
X376074Y499576D01*
X372139D02*
X373450D01*
X374106Y500231D01*
Y501543D01*
X373450Y502199D01*
X372139D01*
X371482Y501543D01*
Y500887D01*
X374106D01*
X367547Y502199D02*
X369515D01*
X370171Y501543D01*
Y500231D01*
X369515Y499576D01*
X367547D01*
X366235D02*
Y502199D01*
X364267D01*
X363611Y501543D01*
Y499576D01*
X362299D02*
X360987D01*
X361643D01*
Y502199D01*
X362299D01*
X356396D02*
X358363D01*
X359019Y501543D01*
Y500231D01*
X358363Y499576D01*
X356396D01*
X354428Y502199D02*
X353116D01*
X352460Y501543D01*
Y499576D01*
X354428D01*
X355084Y500231D01*
X354428Y500887D01*
X352460D01*
X345244Y499576D02*
X346556D01*
X347212Y500231D01*
Y501543D01*
X346556Y502199D01*
X345244D01*
X344588Y501543D01*
Y500887D01*
X347212D01*
X336717Y503511D02*
Y499576D01*
X338685D01*
X339341Y500231D01*
Y501543D01*
X338685Y502199D01*
X336717D01*
X333437Y499576D02*
X334749D01*
X335405Y500231D01*
Y501543D01*
X334749Y502199D01*
X333437D01*
X332781Y501543D01*
Y500887D01*
X335405D01*
X324910Y502855D02*
X325566Y503511D01*
X326877D01*
X327533Y502855D01*
Y500231D01*
X326877Y499576D01*
X325566D01*
X324910Y500231D01*
X322942Y499576D02*
X321630D01*
X320974Y500231D01*
Y501543D01*
X321630Y502199D01*
X322942D01*
X323598Y501543D01*
Y500231D01*
X322942Y499576D01*
X319662D02*
Y502199D01*
X319006D01*
X318350Y501543D01*
Y499576D01*
Y501543D01*
X317694Y502199D01*
X317038Y501543D01*
Y499576D01*
X315726Y498264D02*
Y502199D01*
X313758D01*
X313102Y501543D01*
Y500231D01*
X313758Y499576D01*
X315726D01*
X311790Y502199D02*
Y500231D01*
X311135Y499576D01*
X309167D01*
Y502199D01*
X307199Y502855D02*
Y502199D01*
X307855D01*
X306543D01*
X307199D01*
Y500231D01*
X306543Y499576D01*
X303919Y502199D02*
X302607D01*
X301951Y501543D01*
Y499576D01*
X303919D01*
X304575Y500231D01*
X303919Y500887D01*
X301951D01*
X298015Y503511D02*
Y499576D01*
X299983D01*
X300639Y500231D01*
Y501543D01*
X299983Y502199D01*
X298015D01*
X296047Y499576D02*
X294736D01*
X294080Y500231D01*
Y501543D01*
X294736Y502199D01*
X296047D01*
X296703Y501543D01*
Y500231D01*
X296047Y499576D01*
X292768Y502199D02*
Y499576D01*
Y500887D01*
X292112Y501543D01*
X291456Y502199D01*
X290800D01*
X286864Y499576D02*
X288176D01*
X288832Y500231D01*
Y501543D01*
X288176Y502199D01*
X286864D01*
X286208Y501543D01*
Y500887D01*
X288832D01*
X284896Y499576D02*
X282928D01*
X282272Y500231D01*
X282928Y500887D01*
X284240D01*
X284896Y501543D01*
X284240Y502199D01*
X282272D01*
M02*
