G04*
G04 #@! TF.GenerationSoftware,Altium Limited,Altium Designer,23.8.1 (32)*
G04*
G04 Layer_Color=16711935*
%FSLAX25Y25*%
%MOIN*%
G70*
G04*
G04 #@! TF.SameCoordinates,D6E9CDF8-AAC3-469D-917B-50C59DE8B454*
G04*
G04*
G04 #@! TF.FilePolarity,Positive*
G04*
G01*
G75*
%ADD10C,0.00787*%
%ADD11C,0.00500*%
%ADD37C,0.00394*%
D10*
X243933Y442000D02*
X243146D01*
X243933D01*
X282016Y159000D02*
X281228D01*
X282016D01*
X324854Y177500D02*
X324067D01*
X324854D01*
X288929Y462579D02*
X288142D01*
X288929D01*
X341429D02*
X340642D01*
X341429D01*
X297933Y442000D02*
X297146D01*
X297933D01*
X176894Y426067D02*
X176106D01*
X176894D01*
Y426039D02*
X176106D01*
X176894D01*
X136358Y338421D02*
X135571D01*
X136358D01*
X171354Y360000D02*
X170567D01*
X171354D01*
D11*
X305736Y154304D02*
X306269Y155160D01*
X306705Y156070D01*
X307040Y157021D01*
X307269Y158004D01*
X307390Y159005D01*
X307401Y160014D01*
X307302Y161018D01*
X307094Y162005D01*
X306780Y162963D01*
X306364Y163882D01*
X305850Y164750D01*
X305245Y165557D01*
X304555Y166294D01*
X303790Y166950D01*
X302957Y167520D01*
X302067Y167995D01*
X301131Y168371D01*
X300160Y168643D01*
X299165Y168807D01*
X298158Y168862D01*
X297150Y168807D01*
X296155Y168643D01*
X295183Y168371D01*
X294247Y167995D01*
X293358Y167520D01*
X292525Y166950D01*
X291760Y166294D01*
X291070Y165557D01*
X290465Y164750D01*
X289951Y163882D01*
X289534Y162963D01*
X289221Y162005D01*
X289013Y161018D01*
X288914Y160014D01*
X288925Y159005D01*
X289046Y158004D01*
X289275Y157021D01*
X289610Y156070D01*
X290046Y155160D01*
X290579Y154304D01*
X264421Y467275D02*
X263889Y466419D01*
X263452Y465509D01*
X263118Y464558D01*
X262889Y463575D01*
X262768Y462574D01*
X262757Y461565D01*
X262856Y460561D01*
X263063Y459574D01*
X263377Y458615D01*
X263793Y457696D01*
X264307Y456828D01*
X264913Y456021D01*
X265602Y455285D01*
X266368Y454628D01*
X267200Y454059D01*
X268090Y453583D01*
X269026Y453207D01*
X269998Y452936D01*
X270993Y452772D01*
X272000Y452716D01*
X273007Y452772D01*
X274003Y452936D01*
X274974Y453207D01*
X275910Y453583D01*
X276800Y454059D01*
X277632Y454628D01*
X278398Y455285D01*
X279087Y456021D01*
X279693Y456828D01*
X280207Y457696D01*
X280623Y458615D01*
X280937Y459574D01*
X281144Y460561D01*
X281243Y461565D01*
X281232Y462574D01*
X281111Y463575D01*
X280882Y464558D01*
X280548Y465509D01*
X280112Y466419D01*
X279579Y467275D01*
X316921D02*
X316389Y466419D01*
X315952Y465509D01*
X315618Y464558D01*
X315389Y463575D01*
X315268Y462574D01*
X315257Y461565D01*
X315356Y460561D01*
X315563Y459574D01*
X315877Y458615D01*
X316293Y457696D01*
X316807Y456828D01*
X317413Y456021D01*
X318102Y455285D01*
X318868Y454628D01*
X319700Y454059D01*
X320590Y453583D01*
X321526Y453207D01*
X322498Y452936D01*
X323493Y452772D01*
X324500Y452716D01*
X325507Y452772D01*
X326502Y452936D01*
X327474Y453207D01*
X328410Y453583D01*
X329300Y454059D01*
X330132Y454628D01*
X330898Y455285D01*
X331587Y456021D01*
X332193Y456828D01*
X332707Y457696D01*
X333123Y458615D01*
X333437Y459574D01*
X333644Y460561D01*
X333743Y461565D01*
X333732Y462574D01*
X333611Y463575D01*
X333382Y464558D01*
X333048Y465509D01*
X332611Y466419D01*
X332079Y467275D01*
X160079Y333725D02*
X160611Y334581D01*
X161048Y335491D01*
X161382Y336442D01*
X161611Y337425D01*
X161732Y338426D01*
X161743Y339435D01*
X161644Y340439D01*
X161437Y341426D01*
X161123Y342385D01*
X160707Y343304D01*
X160193Y344172D01*
X159587Y344979D01*
X158898Y345715D01*
X158132Y346372D01*
X157300Y346941D01*
X156410Y347417D01*
X155474Y347793D01*
X154502Y348064D01*
X153507Y348229D01*
X152500Y348284D01*
X151493Y348229D01*
X150497Y348064D01*
X149526Y347793D01*
X148590Y347417D01*
X147700Y346941D01*
X146868Y346372D01*
X146102Y345715D01*
X145413Y344979D01*
X144807Y344172D01*
X144293Y343304D01*
X143877Y342385D01*
X143563Y341426D01*
X143356Y340439D01*
X143257Y339435D01*
X143268Y338426D01*
X143389Y337425D01*
X143618Y336442D01*
X143952Y335491D01*
X144388Y334581D01*
X144921Y333725D01*
X261886Y446675D02*
X280114D01*
Y442000D02*
Y446675D01*
Y437325D02*
Y442000D01*
X261886Y437325D02*
X280114D01*
X261886D02*
Y442000D01*
Y446675D01*
X250606Y442000D02*
X261886D01*
X280114D02*
X291394D01*
X245236Y431173D02*
X295236D01*
X245236Y317000D02*
Y431173D01*
Y317000D02*
X295236D01*
Y431173D01*
X467500Y386886D02*
X472618D01*
X462382D02*
X467500D01*
X462382Y360114D02*
Y386886D01*
Y360114D02*
X467500D01*
X472618D01*
Y386886D01*
X467500D02*
Y392791D01*
Y354209D02*
Y360114D01*
X362539Y166882D02*
Y172000D01*
Y177118D01*
X335768D02*
X362539D01*
X335768Y172000D02*
Y177118D01*
Y166882D02*
Y172000D01*
Y166882D02*
X362539D01*
Y172000D02*
X368445D01*
X329862D02*
X335768D01*
X362539Y153882D02*
Y159000D01*
Y164118D01*
X335768D02*
X362539D01*
X335768Y159000D02*
Y164118D01*
Y153882D02*
Y159000D01*
Y153882D02*
X362539D01*
Y159000D02*
X368445D01*
X329862D02*
X335768D01*
X290584Y154295D02*
X305730D01*
X287886Y172825D02*
X306114D01*
X287886D02*
Y177500D01*
Y182175D01*
X306114D01*
Y177500D02*
Y182175D01*
Y172825D02*
Y177500D01*
X317394D01*
X276606D02*
X287886D01*
X272236Y186327D02*
X322236D01*
Y300500D01*
X272236D02*
X322236D01*
X272236Y186327D02*
Y300500D01*
X259114Y489000D02*
Y494118D01*
Y483882D02*
Y489000D01*
Y483882D02*
X285886D01*
Y489000D01*
Y494118D01*
X259114D02*
X285886D01*
X253209Y489000D02*
X259114D01*
X285886D02*
X291791D01*
X259114Y476000D02*
Y481118D01*
Y470882D02*
Y476000D01*
Y470882D02*
X285886D01*
Y476000D01*
Y481118D01*
X259114D02*
X285886D01*
X253209Y476000D02*
X259114D01*
X285886D02*
X291791D01*
X264427Y467283D02*
X279573D01*
X370500Y386886D02*
X375618D01*
X365382D02*
X370500D01*
X365382Y360114D02*
Y386886D01*
Y360114D02*
X370500D01*
X375618D01*
Y386886D01*
X370500D02*
Y392791D01*
Y354209D02*
Y360114D01*
X394750Y386886D02*
X399868D01*
X389632D02*
X394750D01*
X389632Y360114D02*
Y386886D01*
Y360114D02*
X394750D01*
X399868D01*
Y386886D01*
X394750D02*
Y392791D01*
Y354209D02*
Y360114D01*
X419000Y386886D02*
X424118D01*
X413882D02*
X419000D01*
X413882Y360114D02*
Y386886D01*
Y360114D02*
X419000D01*
X424118D01*
Y386886D01*
X419000D02*
Y392791D01*
Y354209D02*
Y360114D01*
X443250Y386886D02*
X448368D01*
X438132D02*
X443250D01*
X438132Y360114D02*
Y386886D01*
Y360114D02*
X443250D01*
X448368D01*
Y386886D01*
X443250D02*
Y392791D01*
Y354209D02*
Y360114D01*
X325882Y482614D02*
X331000D01*
X336118D01*
Y509386D01*
X331000D02*
X336118D01*
X325882D02*
X331000D01*
X325882Y482614D02*
Y509386D01*
X331000Y476709D02*
Y482614D01*
Y509386D02*
Y515291D01*
X312882Y482614D02*
X318000D01*
X323118D01*
Y509386D01*
X318000D02*
X323118D01*
X312882D02*
X318000D01*
X312882Y482614D02*
Y509386D01*
X318000Y476709D02*
Y482614D01*
Y509386D02*
Y515291D01*
X229882Y394268D02*
X235000D01*
X240118D01*
Y421039D01*
X235000D02*
X240118D01*
X229882D02*
X235000D01*
X229882Y394268D02*
Y421039D01*
X235000Y388362D02*
Y394268D01*
Y421039D02*
Y426945D01*
X229882Y343114D02*
X235000D01*
X240118D01*
Y369886D01*
X235000D02*
X240118D01*
X229882D02*
X235000D01*
X229882Y343114D02*
Y369886D01*
X235000Y337209D02*
Y343114D01*
Y369886D02*
Y375791D01*
X316927Y467283D02*
X332073D01*
X315886Y446675D02*
X334114D01*
Y442000D02*
Y446675D01*
Y437325D02*
Y442000D01*
X315886Y437325D02*
X334114D01*
X315886D02*
Y442000D01*
Y446675D01*
X304606Y442000D02*
X315886D01*
X334114D02*
X345394D01*
X299236Y431173D02*
X349236D01*
X299236Y317000D02*
Y431173D01*
Y317000D02*
X349236D01*
Y431173D01*
X125382Y288114D02*
X130500D01*
X135618D01*
Y314886D01*
X130500D02*
X135618D01*
X125382D02*
X130500D01*
X125382Y288114D02*
Y314886D01*
X130500Y282209D02*
Y288114D01*
Y314886D02*
Y320791D01*
X181175Y389492D02*
Y407720D01*
X176500Y389492D02*
X181175D01*
X171825D02*
X176500D01*
X171825D02*
Y407720D01*
X176500D01*
X181175D01*
X176500D02*
Y419000D01*
Y378213D02*
Y389492D01*
X171825Y444386D02*
Y462614D01*
X176500D01*
X181175D01*
Y444386D02*
Y462614D01*
X176500Y444386D02*
X181175D01*
X171825D02*
X176500D01*
Y433106D02*
Y444386D01*
Y462614D02*
Y473894D01*
X144927Y333717D02*
X160073D01*
X144000Y314886D02*
X149118D01*
X138882D02*
X144000D01*
X138882Y288114D02*
Y314886D01*
Y288114D02*
X144000D01*
X149118D01*
Y314886D01*
X144000D02*
Y320791D01*
Y282209D02*
Y288114D01*
X157000Y314886D02*
X162118D01*
X151882D02*
X157000D01*
X151882Y288114D02*
Y314886D01*
Y288114D02*
X157000D01*
X162118D01*
Y314886D01*
X157000D02*
Y320791D01*
Y282209D02*
Y288114D01*
X117764Y370169D02*
X167764D01*
Y484343D01*
X117764D02*
X167764D01*
X117764Y370169D02*
Y484343D01*
X134386Y355325D02*
X152614D01*
X134386D02*
Y360000D01*
Y364675D01*
X152614D01*
Y360000D02*
Y364675D01*
Y355325D02*
Y360000D01*
X163894D01*
X123106D02*
X134386D01*
D37*
X133980Y341500D02*
X133914Y342497D01*
X133714Y343476D01*
X133387Y344420D01*
X132936Y345312D01*
X132370Y346136D01*
X131700Y346877D01*
X130937Y347522D01*
X130095Y348060D01*
X129189Y348481D01*
X128234Y348777D01*
X127249Y348943D01*
X126250Y348976D01*
X125256Y348876D01*
X124284Y348644D01*
X123351Y348285D01*
X122475Y347805D01*
X121670Y347212D01*
X120952Y346518D01*
X120333Y345733D01*
X119824Y344874D01*
X119434Y343954D01*
X119170Y342990D01*
X119036Y342000D01*
Y341000D01*
X119170Y340010D01*
X119434Y339046D01*
X119824Y338126D01*
X120333Y337266D01*
X120952Y336482D01*
X121670Y335788D01*
X122475Y335195D01*
X123351Y334715D01*
X124284Y334355D01*
X125256Y334124D01*
X126250Y334024D01*
X127249Y334057D01*
X128234Y334224D01*
X129189Y334520D01*
X130095Y334940D01*
X130937Y335478D01*
X131700Y336123D01*
X132371Y336864D01*
X132936Y337688D01*
X133387Y338580D01*
X133714Y339524D01*
X133914Y340503D01*
X133980Y341500D01*
X132602D02*
X132519Y342504D01*
X132272Y343481D01*
X131867Y344404D01*
X131316Y345248D01*
X130633Y345990D01*
X129838Y346609D01*
X128951Y347088D01*
X127998Y347416D01*
X127004Y347582D01*
X125996D01*
X125002Y347416D01*
X124049Y347088D01*
X123162Y346609D01*
X122367Y345990D01*
X121684Y345248D01*
X121133Y344404D01*
X120728Y343481D01*
X120481Y342504D01*
X120398Y341500D01*
X120481Y340496D01*
X120728Y339519D01*
X121133Y338596D01*
X121684Y337752D01*
X122367Y337010D01*
X123162Y336391D01*
X124049Y335912D01*
X125002Y335584D01*
X125996Y335419D01*
X127004D01*
X127998Y335584D01*
X128951Y335912D01*
X129838Y336391D01*
X130633Y337010D01*
X131316Y337752D01*
X131867Y338596D01*
X132272Y339519D01*
X132519Y340496D01*
X132602Y341500D01*
X133389Y341500D02*
X133316Y342503D01*
X133097Y343485D01*
X132738Y344425D01*
X132246Y345302D01*
X131631Y346098D01*
X130907Y346796D01*
X130089Y347381D01*
X129194Y347841D01*
X128242Y348166D01*
X127253Y348349D01*
X126248Y348386D01*
X125248Y348275D01*
X124275Y348021D01*
X123349Y347628D01*
X122491Y347104D01*
X121718Y346460D01*
X121046Y345711D01*
X120492Y344872D01*
X120064Y343962D01*
X119775Y342998D01*
X119628Y342003D01*
Y340997D01*
X119775Y340002D01*
X120064Y339039D01*
X120492Y338128D01*
X121046Y337290D01*
X121718Y336540D01*
X122491Y335897D01*
X123349Y335373D01*
X124275Y334980D01*
X125248Y334725D01*
X126248Y334615D01*
X127253Y334652D01*
X128242Y334835D01*
X129194Y335159D01*
X130089Y335619D01*
X130907Y336205D01*
X131631Y336903D01*
X132246Y337699D01*
X132738Y338576D01*
X133097Y339515D01*
X133316Y340497D01*
X133389Y341500D01*
X426730Y416500D02*
X426664Y417497D01*
X426465Y418476D01*
X426137Y419420D01*
X425686Y420312D01*
X425120Y421136D01*
X424450Y421877D01*
X423687Y422522D01*
X422845Y423060D01*
X421939Y423481D01*
X420984Y423776D01*
X419999Y423943D01*
X419000Y423976D01*
X418006Y423876D01*
X417034Y423644D01*
X416101Y423285D01*
X415225Y422805D01*
X414421Y422212D01*
X413702Y421518D01*
X413083Y420733D01*
X412574Y419874D01*
X412184Y418954D01*
X411920Y417990D01*
X411786Y417000D01*
Y416000D01*
X411920Y415010D01*
X412184Y414046D01*
X412574Y413126D01*
X413083Y412266D01*
X413702Y411482D01*
X414421Y410788D01*
X415225Y410195D01*
X416101Y409715D01*
X417034Y409355D01*
X418006Y409124D01*
X419000Y409024D01*
X419999Y409057D01*
X420984Y409224D01*
X421939Y409519D01*
X422845Y409940D01*
X423687Y410478D01*
X424450Y411123D01*
X425121Y411864D01*
X425686Y412688D01*
X426137Y413580D01*
X426465Y414524D01*
X426664Y415503D01*
X426730Y416500D01*
X425352D02*
X425269Y417504D01*
X425022Y418481D01*
X424617Y419404D01*
X424066Y420248D01*
X423383Y420990D01*
X422588Y421609D01*
X421701Y422088D01*
X420748Y422416D01*
X419754Y422581D01*
X418746D01*
X417752Y422416D01*
X416799Y422088D01*
X415912Y421609D01*
X415117Y420990D01*
X414434Y420248D01*
X413883Y419404D01*
X413478Y418481D01*
X413231Y417504D01*
X413148Y416500D01*
X413231Y415496D01*
X413478Y414519D01*
X413883Y413596D01*
X414434Y412752D01*
X415117Y412010D01*
X415912Y411391D01*
X416799Y410912D01*
X417752Y410584D01*
X418746Y410419D01*
X419754D01*
X420748Y410584D01*
X421701Y410912D01*
X422588Y411391D01*
X423383Y412010D01*
X424066Y412752D01*
X424617Y413596D01*
X425022Y414519D01*
X425269Y415496D01*
X425352Y416500D01*
X426139Y416500D02*
X426066Y417503D01*
X425847Y418485D01*
X425488Y419425D01*
X424996Y420302D01*
X424381Y421098D01*
X423657Y421796D01*
X422839Y422381D01*
X421944Y422841D01*
X420992Y423166D01*
X420003Y423349D01*
X418998Y423385D01*
X417998Y423276D01*
X417025Y423021D01*
X416099Y422628D01*
X415241Y422104D01*
X414468Y421460D01*
X413797Y420711D01*
X413241Y419872D01*
X412815Y418961D01*
X412525Y417998D01*
X412378Y417003D01*
Y415997D01*
X412525Y415002D01*
X412815Y414039D01*
X413241Y413128D01*
X413797Y412289D01*
X414468Y411540D01*
X415241Y410897D01*
X416099Y410373D01*
X417025Y409980D01*
X417998Y409725D01*
X418998Y409615D01*
X420003Y409652D01*
X420992Y409835D01*
X421944Y410159D01*
X422839Y410619D01*
X423657Y411204D01*
X424381Y411903D01*
X424996Y412699D01*
X425488Y413576D01*
X425847Y414515D01*
X426066Y415497D01*
X426139Y416500D01*
X451105Y416500D02*
X451039Y417497D01*
X450840Y418476D01*
X450512Y419420D01*
X450061Y420312D01*
X449496Y421136D01*
X448825Y421877D01*
X448062Y422522D01*
X447220Y423060D01*
X446313Y423481D01*
X445359Y423776D01*
X444374Y423943D01*
X443375Y423976D01*
X442381Y423876D01*
X441409Y423644D01*
X440476Y423285D01*
X439600Y422805D01*
X438796Y422212D01*
X438077Y421518D01*
X437458Y420733D01*
X436949Y419874D01*
X436559Y418954D01*
X436295Y417990D01*
X436161Y417000D01*
Y416000D01*
X436295Y415010D01*
X436559Y414046D01*
X436949Y413126D01*
X437458Y412266D01*
X438077Y411482D01*
X438796Y410788D01*
X439600Y410195D01*
X440476Y409715D01*
X441409Y409355D01*
X442381Y409124D01*
X443375Y409024D01*
X444374Y409057D01*
X445359Y409224D01*
X446313Y409519D01*
X447220Y409940D01*
X448062Y410478D01*
X448825Y411123D01*
X449496Y411864D01*
X450061Y412688D01*
X450512Y413580D01*
X450840Y414524D01*
X451039Y415503D01*
X451105Y416500D01*
X449727D02*
X449644Y417504D01*
X449397Y418481D01*
X448992Y419404D01*
X448441Y420248D01*
X447758Y420990D01*
X446963Y421609D01*
X446076Y422088D01*
X445123Y422416D01*
X444129Y422581D01*
X443121D01*
X442127Y422416D01*
X441174Y422088D01*
X440287Y421609D01*
X439492Y420990D01*
X438809Y420248D01*
X438258Y419404D01*
X437853Y418481D01*
X437606Y417504D01*
X437523Y416500D01*
X437606Y415496D01*
X437853Y414519D01*
X438258Y413596D01*
X438809Y412752D01*
X439492Y412010D01*
X440287Y411391D01*
X441174Y410912D01*
X442127Y410584D01*
X443121Y410419D01*
X444129D01*
X445123Y410584D01*
X446076Y410912D01*
X446963Y411391D01*
X447758Y412010D01*
X448441Y412752D01*
X448992Y413596D01*
X449397Y414519D01*
X449644Y415496D01*
X449727Y416500D01*
X450514Y416500D02*
X450441Y417503D01*
X450222Y418485D01*
X449863Y419425D01*
X449371Y420302D01*
X448756Y421098D01*
X448032Y421796D01*
X447214Y422381D01*
X446319Y422841D01*
X445367Y423166D01*
X444378Y423349D01*
X443373Y423385D01*
X442373Y423276D01*
X441400Y423021D01*
X440474Y422628D01*
X439616Y422104D01*
X438843Y421460D01*
X438171Y420711D01*
X437616Y419872D01*
X437189Y418961D01*
X436900Y417998D01*
X436753Y417003D01*
Y415997D01*
X436900Y415002D01*
X437189Y414039D01*
X437616Y413128D01*
X438171Y412289D01*
X438843Y411540D01*
X439616Y410897D01*
X440474Y410373D01*
X441400Y409980D01*
X442373Y409725D01*
X443373Y409615D01*
X444378Y409652D01*
X445367Y409835D01*
X446319Y410159D01*
X447214Y410619D01*
X448032Y411204D01*
X448756Y411903D01*
X449371Y412699D01*
X449863Y413576D01*
X450222Y414515D01*
X450441Y415497D01*
X450514Y416500D01*
X377980Y416500D02*
X377914Y417497D01*
X377714Y418476D01*
X377387Y419420D01*
X376936Y420312D01*
X376371Y421136D01*
X375700Y421877D01*
X374937Y422522D01*
X374095Y423060D01*
X373188Y423481D01*
X372234Y423776D01*
X371249Y423943D01*
X370250Y423976D01*
X369256Y423876D01*
X368284Y423644D01*
X367351Y423285D01*
X366475Y422805D01*
X365670Y422212D01*
X364952Y421518D01*
X364333Y420733D01*
X363824Y419874D01*
X363434Y418954D01*
X363170Y417990D01*
X363036Y417000D01*
Y416000D01*
X363170Y415010D01*
X363434Y414046D01*
X363824Y413126D01*
X364333Y412266D01*
X364952Y411482D01*
X365670Y410788D01*
X366475Y410195D01*
X367351Y409715D01*
X368284Y409355D01*
X369256Y409124D01*
X370250Y409024D01*
X371249Y409057D01*
X372234Y409224D01*
X373188Y409519D01*
X374095Y409940D01*
X374937Y410478D01*
X375700Y411123D01*
X376371Y411864D01*
X376936Y412688D01*
X377387Y413580D01*
X377714Y414524D01*
X377914Y415503D01*
X377980Y416500D01*
X376602D02*
X376519Y417504D01*
X376272Y418481D01*
X375867Y419404D01*
X375316Y420248D01*
X374633Y420990D01*
X373838Y421609D01*
X372951Y422088D01*
X371998Y422416D01*
X371004Y422581D01*
X369996D01*
X369002Y422416D01*
X368049Y422088D01*
X367162Y421609D01*
X366367Y420990D01*
X365684Y420248D01*
X365133Y419404D01*
X364728Y418481D01*
X364481Y417504D01*
X364398Y416500D01*
X364481Y415496D01*
X364728Y414519D01*
X365133Y413596D01*
X365684Y412752D01*
X366367Y412010D01*
X367162Y411391D01*
X368049Y410912D01*
X369002Y410584D01*
X369996Y410419D01*
X371004D01*
X371998Y410584D01*
X372951Y410912D01*
X373838Y411391D01*
X374633Y412010D01*
X375316Y412752D01*
X375867Y413596D01*
X376272Y414519D01*
X376519Y415496D01*
X376602Y416500D01*
X377389Y416500D02*
X377316Y417503D01*
X377097Y418485D01*
X376738Y419425D01*
X376246Y420302D01*
X375631Y421098D01*
X374907Y421796D01*
X374089Y422381D01*
X373194Y422841D01*
X372242Y423166D01*
X371253Y423349D01*
X370248Y423385D01*
X369248Y423276D01*
X368275Y423021D01*
X367349Y422628D01*
X366491Y422104D01*
X365718Y421460D01*
X365047Y420711D01*
X364492Y419872D01*
X364065Y418961D01*
X363775Y417998D01*
X363628Y417003D01*
Y415997D01*
X363775Y415002D01*
X364065Y414039D01*
X364492Y413128D01*
X365047Y412289D01*
X365718Y411540D01*
X366491Y410897D01*
X367349Y410373D01*
X368275Y409980D01*
X369248Y409725D01*
X370248Y409615D01*
X371253Y409652D01*
X372242Y409835D01*
X373194Y410159D01*
X374089Y410619D01*
X374907Y411204D01*
X375631Y411903D01*
X376246Y412699D01*
X376738Y413576D01*
X377097Y414515D01*
X377316Y415497D01*
X377389Y416500D01*
X402355Y416500D02*
X402289Y417497D01*
X402090Y418476D01*
X401762Y419420D01*
X401311Y420312D01*
X400745Y421136D01*
X400075Y421877D01*
X399312Y422522D01*
X398470Y423060D01*
X397564Y423481D01*
X396609Y423776D01*
X395624Y423943D01*
X394625Y423976D01*
X393631Y423876D01*
X392659Y423644D01*
X391726Y423285D01*
X390850Y422805D01*
X390045Y422212D01*
X389327Y421518D01*
X388708Y420733D01*
X388199Y419874D01*
X387809Y418954D01*
X387545Y417990D01*
X387411Y417000D01*
Y416000D01*
X387545Y415010D01*
X387809Y414046D01*
X388199Y413126D01*
X388708Y412266D01*
X389327Y411482D01*
X390045Y410788D01*
X390850Y410195D01*
X391726Y409715D01*
X392659Y409355D01*
X393631Y409124D01*
X394625Y409024D01*
X395624Y409057D01*
X396609Y409224D01*
X397564Y409519D01*
X398470Y409940D01*
X399312Y410478D01*
X400075Y411123D01*
X400746Y411864D01*
X401311Y412688D01*
X401762Y413580D01*
X402090Y414524D01*
X402289Y415503D01*
X402355Y416500D01*
X400977D02*
X400894Y417504D01*
X400647Y418481D01*
X400242Y419404D01*
X399691Y420248D01*
X399008Y420990D01*
X398213Y421609D01*
X397326Y422088D01*
X396373Y422416D01*
X395379Y422581D01*
X394371D01*
X393377Y422416D01*
X392424Y422088D01*
X391537Y421609D01*
X390742Y420990D01*
X390059Y420248D01*
X389508Y419404D01*
X389103Y418481D01*
X388856Y417504D01*
X388773Y416500D01*
X388856Y415496D01*
X389103Y414519D01*
X389508Y413596D01*
X390059Y412752D01*
X390742Y412010D01*
X391537Y411391D01*
X392424Y410912D01*
X393377Y410584D01*
X394371Y410419D01*
X395379D01*
X396373Y410584D01*
X397326Y410912D01*
X398213Y411391D01*
X399008Y412010D01*
X399691Y412752D01*
X400242Y413596D01*
X400647Y414519D01*
X400894Y415496D01*
X400977Y416500D01*
X401764Y416500D02*
X401691Y417503D01*
X401472Y418485D01*
X401113Y419425D01*
X400621Y420302D01*
X400006Y421098D01*
X399282Y421796D01*
X398464Y422381D01*
X397569Y422841D01*
X396617Y423166D01*
X395628Y423349D01*
X394623Y423385D01*
X393623Y423276D01*
X392650Y423021D01*
X391724Y422628D01*
X390866Y422104D01*
X390093Y421460D01*
X389422Y420711D01*
X388866Y419872D01*
X388439Y418961D01*
X388150Y417998D01*
X388003Y417003D01*
Y415997D01*
X388150Y415002D01*
X388439Y414039D01*
X388866Y413128D01*
X389422Y412289D01*
X390093Y411540D01*
X390866Y410897D01*
X391724Y410373D01*
X392650Y409980D01*
X393623Y409725D01*
X394623Y409615D01*
X395628Y409652D01*
X396617Y409835D01*
X397569Y410159D01*
X398464Y410619D01*
X399282Y411204D01*
X400006Y411903D01*
X400621Y412699D01*
X401113Y413576D01*
X401472Y414515D01*
X401691Y415497D01*
X401764Y416500D01*
X475480Y416500D02*
X475414Y417497D01*
X475214Y418476D01*
X474887Y419420D01*
X474436Y420312D01*
X473871Y421136D01*
X473200Y421877D01*
X472437Y422522D01*
X471595Y423060D01*
X470688Y423481D01*
X469734Y423776D01*
X468749Y423943D01*
X467750Y423976D01*
X466756Y423876D01*
X465784Y423644D01*
X464851Y423285D01*
X463975Y422805D01*
X463170Y422212D01*
X462452Y421518D01*
X461833Y420733D01*
X461324Y419874D01*
X460934Y418954D01*
X460670Y417990D01*
X460536Y417000D01*
Y416000D01*
X460670Y415010D01*
X460934Y414046D01*
X461324Y413126D01*
X461833Y412266D01*
X462452Y411482D01*
X463170Y410788D01*
X463975Y410195D01*
X464851Y409715D01*
X465784Y409355D01*
X466756Y409124D01*
X467750Y409024D01*
X468749Y409057D01*
X469734Y409224D01*
X470688Y409519D01*
X471595Y409940D01*
X472437Y410478D01*
X473200Y411123D01*
X473871Y411864D01*
X474436Y412688D01*
X474887Y413580D01*
X475214Y414524D01*
X475414Y415503D01*
X475480Y416500D01*
X474102D02*
X474019Y417504D01*
X473772Y418481D01*
X473367Y419404D01*
X472816Y420248D01*
X472133Y420990D01*
X471338Y421609D01*
X470451Y422088D01*
X469498Y422416D01*
X468504Y422581D01*
X467496D01*
X466502Y422416D01*
X465549Y422088D01*
X464662Y421609D01*
X463867Y420990D01*
X463184Y420248D01*
X462633Y419404D01*
X462228Y418481D01*
X461981Y417504D01*
X461898Y416500D01*
X461981Y415496D01*
X462228Y414519D01*
X462633Y413596D01*
X463184Y412752D01*
X463867Y412010D01*
X464662Y411391D01*
X465549Y410912D01*
X466502Y410584D01*
X467496Y410419D01*
X468504D01*
X469498Y410584D01*
X470451Y410912D01*
X471338Y411391D01*
X472133Y412010D01*
X472816Y412752D01*
X473367Y413596D01*
X473772Y414519D01*
X474019Y415496D01*
X474102Y416500D01*
X474889Y416500D02*
X474816Y417503D01*
X474597Y418485D01*
X474238Y419425D01*
X473746Y420302D01*
X473131Y421098D01*
X472407Y421796D01*
X471589Y422381D01*
X470694Y422841D01*
X469742Y423166D01*
X468753Y423349D01*
X467748Y423385D01*
X466748Y423276D01*
X465775Y423021D01*
X464849Y422628D01*
X463991Y422104D01*
X463218Y421460D01*
X462546Y420711D01*
X461992Y419872D01*
X461564Y418961D01*
X461275Y417998D01*
X461128Y417003D01*
Y415997D01*
X461275Y415002D01*
X461564Y414039D01*
X461992Y413128D01*
X462546Y412289D01*
X463218Y411540D01*
X463991Y410897D01*
X464849Y410373D01*
X465775Y409980D01*
X466748Y409725D01*
X467748Y409615D01*
X468753Y409652D01*
X469742Y409835D01*
X470694Y410159D01*
X471589Y410619D01*
X472407Y411204D01*
X473131Y411903D01*
X473746Y412699D01*
X474238Y413576D01*
X474597Y414515D01*
X474816Y415497D01*
X474889Y416500D01*
M02*
