M48
;Layer_Color=9474304
;FILE_FORMAT=2:4
INCH,TZ
;TYPE=PLATED
T01F00S00C0.0280
T02F00S00C0.0315
T03F00S00C0.0354
T04F00S00C0.0366
T05F00S00C0.0390
T06F00S00C0.0417
T07F00S00C0.0512
T08F00S00C0.1378
%
T01
X34640Y36310
X35900Y46850
T02
X32750Y15900
Y17200
X37081
Y15900
X15700Y27985
X14400
X13050
Y32315
X14400
X15700
X23500Y33485
Y37815
Y38600
Y42931
X37050Y39515
X39475
X41900
X44325
X46750
Y35185
X44325
X41900
X39475
X37050
X33100Y47435
X31800
Y51765
X33100
X29415Y48900
Y47600
X25085
Y48900
T03
X12650Y33650
Y34650
X37050Y41150
Y42150
X39488
Y41150
X41925
Y42150
X44363
Y41150
X46800
Y42150
T04
X28832Y15900
X29816
X30800
X15250Y33842
X14266
X16234
X26216Y46258
X27200
X28184
X31466
X32450
X33434
T05
X21347Y50850
X22332
X23316
X24300
X26500
X27484
X28469
T06
X31739Y17750
X27661
X12311Y36000
X16389
X17650Y37821
Y41900
Y43311
X25061Y44200
X29139
X30461
X34539
X17650Y47389
T07
X28247Y19558
X31200
Y25566
Y27550
Y29534
X28247
Y27550
Y25566
X12800Y37942
Y43950
Y45934
X15753
Y43950
Y37942
X25547Y36184
Y34200
Y32216
X28500
Y34200
Y36184
X30947
Y34200
Y32216
Y42192
X28500
X25547
X33900
Y36184
Y34200
Y32216
X15753Y47919
X12800
T08
X44450Y17950
X46812
Y22300
X44450
X45850Y25400
X13600Y25550
X14712Y22300
X12350
Y17950
X14712
X46000Y51550
X11600
M30
